<svg width="29" height="29" viewBox="0 0 29 29" fill="none" xmlns="http://www.w3.org/2000/svg"><g clip-path="url(#a)"><path d="M2.84 11.77h.999l-.5-1.272-.5 1.271z" fill="#B9B9B8"/><path d="M15.246 10.69c-.091-.044-.227-.044-.364-.044h-.907v.726h.908c.136 0 .272 0 .363-.046.09-.045.136-.181.136-.317.045-.182-.046-.273-.136-.318z" fill="#228FE0"/><path d="M24.96 9.33v.544l-.272-.545h-2.134v.545l-.272-.545h-2.906c-.5 0-.908.09-1.27.272V9.33h-2.044v.272c-.227-.181-.5-.272-.862-.272H7.89l-.498 1.135-.5-1.135H4.577v.545l-.272-.545H2.352l-.907 2.134L.4 13.823h2.315l.273-.726h.636l.272.726h2.633v-.544l.227.544h1.316l.227-.544v.544h6.31v-1.18h.091c.091 0 .091 0 .091.136v.999h3.269v-.272c.272.136.68.272 1.226.272h1.361l.273-.726h.635l.273.726h2.633v-.681l.408.681h2.134V9.329H24.96zM9.616 13.141h-.772v-2.496l-1.09 2.496h-.68l-1.09-2.496v2.496H4.441l-.318-.68H2.579l-.272.726h-.862l1.361-3.223h1.135l1.271 3.041v-3.04h1.226l.999 2.179.908-2.18h1.27v3.178zm3.087-2.496h-1.77v.59h1.725v.635h-1.726v.636h1.77v.68h-2.541v-3.22h2.542v.68zm3.405 1.316c.09.182.136.318.136.59v.636h-.772v-.409c0-.181 0-.454-.136-.635-.136-.136-.272-.136-.545-.136h-.817v1.18h-.772V9.965h1.725c.409 0 .681 0 .908.136.227.136.363.363.363.726 0 .5-.317.772-.544.863a.86.86 0 0 1 .454.272zm1.362 1.18h-.772V9.92h.772v3.223zm8.943 0h-1.09l-1.452-2.406v2.406h-1.544l-.272-.68h-1.59l-.272.726h-.862c-.363 0-.817-.091-1.09-.363-.272-.273-.408-.636-.408-1.226 0-.454.09-.908.408-1.271.227-.272.636-.363 1.135-.363h.727v.68h-.727c-.272 0-.408.046-.59.182-.136.136-.227.409-.227.726 0 .364.046.59.227.772.136.136.318.182.545.182h.318l1.044-2.497h1.135l1.27 3.042V10.01h1.136l1.316 2.225V10.01h.772v3.132h.09z" fill="#B9B9B8"/><path d="M20.738 11.78h1.044l-.499-1.27-.545 1.27zm-7.718 6.538V15.73l-1.18 1.271 1.18 1.317z" fill="#228FE0"/><path d="M8.164 16.048v.59h1.68v.636h-1.68v.68h1.861l.863-.953-.817-.953H8.164z" fill="#B9B9B8"/><path d="M14.746 16.048h-.953v.817h.999c.272 0 .454-.136.454-.409-.046-.272-.227-.408-.5-.408z" fill="#228FE0"/><path d="M28.774 16.82v-2.043h-1.907c-.408 0-.726.09-.953.272v-.272h-2.088c-.318 0-.727.09-.908.272v-.272H19.24v.272c-.273-.227-.772-.272-1-.272h-2.45v.272c-.228-.227-.772-.272-1.045-.272h-2.724l-.635.68-.59-.68H6.71v4.449h3.995l.635-.681.59.68h2.452v-1.043h.318c.318 0 .726 0 1.044-.137v1.226h2.043v-1.18h.09c.137 0 .137 0 .137.136v1.044h6.174c.408 0 .817-.09 1.044-.272v.272h1.952c.409 0 .817-.045 1.09-.227.453-.272.726-.772.726-1.362a1.74 1.74 0 0 0-.227-.862zm-14.073.726h-.908v1.09H12.34l-.908-1.044-.953 1.044H7.483v-3.224h3.041l.908 1.044.954-1.044h2.406c.59 0 1.27.182 1.27 1.044-.045.909-.68 1.09-1.361 1.09zm4.54-.181c.09.136.136.317.136.59v.635h-.772v-.408c0-.182 0-.5-.136-.636-.091-.136-.273-.136-.545-.136h-.817v1.18h-.772v-3.223h1.725c.363 0 .681 0 .908.136a.803.803 0 0 1 .409.727.904.904 0 0 1-.545.862c.227.09.363.182.409.273zm3.132-1.317h-1.77v.59h1.724v.636h-1.725v.635h1.77v.681h-2.541v-3.223h2.542v.681zm1.906 2.542h-1.452v-.68h1.452c.137 0 .227 0 .318-.092a.347.347 0 0 0 .091-.227.347.347 0 0 0-.09-.227c-.046-.045-.137-.09-.273-.09-.726-.046-1.589 0-1.589-.999 0-.454.272-.953 1.09-.953h1.498v.771h-1.408c-.136 0-.227 0-.317.046-.091.045-.091.136-.091.227 0 .136.09.181.181.227a.583.583 0 0 0 .273.045h.408c.409 0 .681.09.863.272.136.137.227.364.227.681 0 .681-.409 1-1.18 1zm3.905-.318c-.182.182-.5.318-.954.318h-1.452v-.68h1.452c.136 0 .227 0 .318-.092a.347.347 0 0 0 .09-.227.347.347 0 0 0-.09-.227c-.045-.045-.136-.09-.272-.09-.727-.046-1.59 0-1.59-.999 0-.454.273-.953 1.09-.953h1.498v.771h-1.361c-.137 0-.227 0-.318.046-.091.045-.091.136-.091.227 0 .136.045.181.181.227a.583.583 0 0 0 .273.045h.409c.408 0 .68.09.862.272.045 0 .045.046.045.046.137.181.182.409.182.636a.92.92 0 0 1-.272.68z" fill="#B9B9B8"/><path d="M18.424 16.139c-.091-.046-.227-.046-.364-.046h-.908v.727h.908c.137 0 .273 0 .364-.046.09-.045.136-.181.136-.318.045-.181-.046-.272-.136-.317z" fill="#228FE0"/><path d="M15.244 10.69c-.091-.044-.227-.044-.363-.044h-.908v.726h.908c.136 0 .272 0 .363-.046.09-.045.136-.181.136-.317.045-.182-.045-.273-.136-.318zm5.494 1.09h1.044l-.499-1.27-.545 1.27zm-7.718 6.538V15.73l-1.18 1.271 1.18 1.317zm1.726-2.27h-.953v.817h.999c.272 0 .454-.136.454-.409-.046-.272-.227-.408-.5-.408zm3.678.091c-.091-.046-.227-.046-.364-.046h-.908v.727h.908c.137 0 .273 0 .364-.046.09-.045.136-.181.136-.318.045-.181-.046-.272-.136-.317z" fill="#B9B9B8"/><path d="M14.428 18.5l-.635-.682v.772h-1.498l-.908-1.044-.999 1.044H7.392v-3.178h3.042l.953 1.044.454-.544-1.135-1.135H6.71v4.449h3.995l.68-.681.591.68h2.451V18.5zm-4.721-4.722l-.59-.636h-.273v-.272l-.68-.68-.455.952h-.635l-1.09-2.496v2.496H4.441l-.318-.68H2.579l-.317.68h-.817l1.361-3.177h1.135l1.271 3.041V9.965h.681l-.635-.636h-.681v.545l-.227-.545H2.352l-.907 2.134L.4 13.778h2.361l.272-.681h.636l.318.681h2.542v-.545l.227.545h1.316l.227-.545v.545h1.408z" fill="#B9B9B8"/><path d="M7.619 11.69l-.726-.727.544 1.18.182-.453z" fill="#2FABF7"/><path d="M28.25 19.055a1.66 1.66 0 0 0 .727-1.225l-.636-.636c.046.136.091.273.091.454 0 .272-.09.5-.272.681-.182.182-.5.318-.954.318h-1.452v-.681h1.452c.137 0 .227 0 .318-.091a.347.347 0 0 0 .091-.227.347.347 0 0 0-.09-.227c-.046-.045-.137-.09-.273-.09-.726-.046-1.589 0-1.589-1 0-.453.272-.862.953-.953l-.5-.5c-.09.046-.135.092-.18.092v-.273h-2.089c-.318 0-.726.091-.908.273v-.273h-3.722v.273c-.273-.227-.772-.273-1-.273h-2.45v.273c-.227-.227-.772-.273-1.045-.273H12l-.636.681-.59-.68h-.5l1.362 1.361.681-.726h2.406c.59 0 1.271.181 1.271 1.044 0 .908-.635 1.09-1.316 1.09h-.908v.68l.68.681v-.68h.228c.318 0 .726 0 1.044-.137v1.226h2.043v-1.18h.09c.137 0 .137 0 .137.136v1.044h6.174c.408 0 .817-.09 1.044-.272v.272h1.952c.363.045.772 0 1.09-.182zm-9.033-1.634c.09.136.136.318.136.59v.636h-.772v-.409c0-.181 0-.5-.136-.635-.09-.137-.273-.137-.545-.137h-.817v1.18h-.772v-3.222h1.725c.363 0 .681 0 .908.136a.803.803 0 0 1 .409.726c0 .5-.318.772-.545.863.227.09.363.181.409.272zm3.132-1.316h-1.77v.59h1.725v.635h-1.726v.636h1.771v.68h-2.542v-3.222h2.542v.68zm1.907 2.542h-1.453v-.681h1.453c.136 0 .227 0 .317-.091a.347.347 0 0 0 .091-.227.347.347 0 0 0-.09-.227c-.046-.045-.137-.09-.273-.09-.726-.046-1.589 0-1.589-1 0-.453.273-.953 1.09-.953H25.3v.772h-1.408c-.136 0-.226 0-.317.045-.091.046-.091.137-.091.227 0 .136.09.182.181.227a.571.571 0 0 0 .273.046h.409c.408 0 .68.09.862.272.136.136.227.363.227.681 0 .681-.409.999-1.18.999z" fill="#B9B9B8"/><path d="M26.459 16.366c0 .136.045.181.182.227.09.045.181.045.272.045h.409c.272 0 .454.045.635.136l-.68-.68h-.41c-.136 0-.226 0-.317.045a.347.347 0 0 0-.091.227z" fill="#B9B9B8"/><path d="M24.87 13.642l.09.137h.046l-.137-.137z" fill="#228FE0"/><path d="M22.361 11.122l.772 1.861v-1.09l-.772-.77z" fill="#B9B9B8"/><path d="M14.61 12.643h.09c.091 0 .091 0 .091.136v.999h3.269v-.272a2.72 2.72 0 0 0 1.225.272h1.362l.273-.726h.635l.273.726h2.633v-.454l-.636-.636v.5h-1.543l-.227-.727h-1.59l-.272.727h-.862c-.363 0-.817-.09-1.09-.363-.272-.273-.408-.636-.408-1.226 0-.454.09-.908.408-1.271.227-.272.636-.363 1.135-.363h.726v.68h-.726c-.272 0-.409.046-.59.182-.136.136-.227.409-.227.727 0 .363.045.59.227.771.136.136.318.182.545.182h.317l1.045-2.497h.454l-.636-.635h-1.18c-.5 0-.908.09-1.271.272v-.272h-1.998v.272c-.227-.182-.5-.272-.862-.272H7.89l-.499 1.134-.499-1.134H4.895l.635.635h.908l.772 1.68.272.272.817-1.997H9.57v3.223H8.8V10.69l-.772 1.816 1.316 1.316h5.221l.046-1.18zm2.088-2.678h.771v3.223h-.771V9.965zm-3.995.68h-1.77v.59h1.724v.636h-1.725v.636h1.77v.68h-2.541V9.966h2.542v.68zm1.27 2.497h-.77V9.92h1.724c.409 0 .681 0 .908.136.227.137.363.364.363.727 0 .5-.317.772-.544.862a.594.594 0 0 1 .363.273c.09.181.136.318.136.59v.635h-.772v-.408c0-.182 0-.454-.136-.636-.045-.09-.182-.09-.454-.09h-.817v1.134z" fill="#B9B9B8"/></g><defs><clipPath id="a"><path fill="#fff" d="M.4 0H29v28.6H.4z"/></clipPath></defs></svg>