<svg width="19" height="20" viewBox="0 0 19 20" fill="none" xmlns="http://www.w3.org/2000/svg"><g clip-path="url(#a)"><path d="M9.576 19.05c4.846 0 8.775-4.074 8.775-9.1S14.422.85 9.576.85C4.729.85.8 4.924.8 9.95s3.928 9.1 8.775 9.1z" fill="#B9B9B8"/><path d="M10.199 9.83c1.394.006 2.666-1.18 2.666-2.622 0-1.577-1.273-2.667-2.666-2.667h-1.2c-1.41 0-2.571 1.09-2.571 2.667 0 1.443 1.161 2.628 2.571 2.621h1.2z" fill="#FFFBF9"/><path d="M9.535 8.612V5.748c.555.221.95.779.95 1.432 0 .654-.395 1.211-.95 1.432zM7.526 7.18c.002-.653.395-1.21.95-1.432v2.864a1.535 1.535 0 0 1-.95-1.432zm1.48-2.42c-1.29 0-2.334 1.084-2.334 2.42 0 1.337 1.045 2.42 2.333 2.42 1.29 0 2.335-1.083 2.335-2.42 0-1.336-1.045-2.42-2.335-2.42z" fill="#B9B9B8"/><path d="M3.82 11.634c0 .215.149.24.28.24.583 0 .774-.456.774-.872 0-.523-.323-.9-.843-.9-.111 0-.162.008-.21.011v1.52zm-.264-1.312c0-.251-.126-.235-.247-.237v-.073c.105.005.212.005.318.005.113 0 .266-.005.466-.005.698 0 1.078.483 1.078.979 0 .277-.156.973-1.11.973-.138 0-.265-.006-.391-.006-.121 0-.24.003-.361.005v-.072c.161-.017.24-.023.247-.213v-1.356zm1.998-.067c-.07 0-.132-.067-.132-.14a.14.14 0 0 1 .132-.135c.07 0 .133.06.133.135 0 .076-.06.14-.133.14zm-.288 1.635h.051c.075 0 .13 0 .13-.092v-.758c0-.122-.041-.14-.14-.195V10.8c.126-.04.277-.092.287-.1a.091.091 0 0 1 .05-.015c.012 0 .018.017.018.04v1.073c0 .092.06.092.135.092h.046v.073c-.092 0-.187-.005-.283-.005-.097 0-.194.002-.294.005v-.073zm.832-.833c0-.103-.03-.13-.156-.184v-.053c.115-.04.226-.075.355-.135.008 0 .016.006.016.028v.182c.154-.114.286-.21.467-.21.229 0 .31.174.31.392v.721c0 .093.06.093.134.093h.05v.072c-.096 0-.19-.005-.287-.005-.097 0-.194.003-.29.005v-.072h.048c.075 0 .129 0 .129-.093v-.724c0-.159-.094-.237-.248-.237-.086 0-.223.072-.313.134v.827c0 .093.06.093.135.093h.049v.072c-.094 0-.189-.005-.286-.005-.097 0-.194.003-.291.005v-.072h.049c.075 0 .129 0 .129-.093v-.74zm1.857.045c.068 0 .075-.036.075-.07 0-.142-.083-.257-.234-.257-.165 0-.278.126-.31.327h.47zm-.477.09a.728.728 0 0 0 0 .162c.016.266.18.484.396.484.149 0 .264-.085.364-.188l.038.04c-.125.17-.278.315-.499.315-.429 0-.515-.43-.515-.61 0-.547.356-.71.544-.71.219 0 .454.143.456.44 0 .016 0 .033-.002.05l-.025.017h-.757zm.846.698h.073c.075 0 .13 0 .13-.092v-.785c0-.087-.1-.104-.141-.126v-.042c.197-.087.305-.16.33-.16.015 0 .023.01.023.037v.252h.006c.067-.11.18-.289.345-.289.067 0 .153.048.153.149 0 .075-.051.143-.126.143-.084 0-.084-.068-.178-.068a.233.233 0 0 0-.197.232v.657c0 .092.054.092.13.092h.15v.073a11.675 11.675 0 0 0-.698 0v-.072zm1.039-.315c.035.184.143.34.34.34.159 0 .218-.1.218-.198 0-.33-.588-.223-.588-.674 0-.156.122-.357.418-.357a.69.69 0 0 1 .308.08l.018.285h-.061c-.027-.175-.122-.276-.294-.276-.108 0-.21.064-.21.185 0 .327.625.226.625.665 0 .184-.143.38-.464.38a.69.69 0 0 1-.328-.095l-.03-.321.048-.014zm3.208-1.057h-.067c-.051-.327-.275-.459-.577-.459-.31 0-.76.216-.76.886 0 .566.388.97.803.97.267 0 .488-.189.542-.483l.062.017-.062.408c-.113.073-.418.148-.596.148-.63 0-1.03-.422-1.03-1.05 0-.574.494-.985 1.022-.985.218 0 .429.073.636.148l.027.4zm.097 1.372h.05c.077 0 .13 0 .13-.092v-1.557c0-.181-.04-.187-.142-.218V9.98c.107-.037.22-.087.277-.121.03-.016.051-.03.06-.03.016 0 .021.016.021.039v1.931c0 .093.06.093.135.093h.046v.072c-.092 0-.186-.005-.283-.005-.097 0-.194.002-.294.005v-.072zm1.73-.08c0 .05.03.052.075.052l.108-.002v.058a2.66 2.66 0 0 0-.388.087l-.014-.008v-.227c-.161.137-.286.235-.477.235-.146 0-.297-.098-.297-.333v-.715c0-.073-.01-.143-.16-.157v-.053c.096-.003.312-.02.347-.02.03 0 .03.02.03.082v.72c0 .085 0 .325.234.325.091 0 .213-.073.326-.17v-.753c0-.055-.13-.086-.226-.114v-.05c.242-.017.393-.04.42-.04.022 0 .022.02.022.051v1.031zm.537-.163c0 .106.097.285.277.285.289 0 .41-.293.41-.542 0-.302-.221-.554-.43-.554-.101 0-.184.068-.257.132v.68zm0-.76c.107-.095.253-.202.402-.202.312 0 .5.283.5.588 0 .366-.258.732-.643.732-.2 0-.305-.067-.375-.098l-.081.065-.056-.031a3.56 3.56 0 0 0 .037-.498V10.24c0-.182-.04-.187-.143-.218v-.045c.108-.036.221-.086.278-.12.03-.016.051-.03.06-.03.016 0 .02.016.02.038v1.02zM3.305 13.59h.02c.053 0 .109-.008.109-.088v-.797c0-.079-.056-.087-.109-.087h-.02v-.045c.057 0 .145.006.217.006.073 0 .161-.006.23-.006v.045h-.02c-.053 0-.109.008-.109.087v.797c0 .08.056.087.109.087h.02v.046c-.07 0-.159-.006-.232-.006-.072 0-.158.006-.215.006v-.046z" fill="#FFFBF9"/><path d="M3.746 13.628v-.033h-.014c-.052 0-.114-.01-.115-.093v-.797c0-.084.063-.093.115-.093h.014v-.033c-.067 0-.152.006-.223.006-.07 0-.154-.006-.211-.006v.033h.014c.053 0 .115.009.115.093v.797c0 .084-.062.093-.115.093h-.014v.033c.057 0 .14-.007.21-.007.07 0 .155.006.224.007zm.007.013c-.071 0-.159-.006-.232-.006-.072 0-.158.006-.216.006H3.3v-.059h.025c.054-.001.102-.006.103-.08v-.797c0-.075-.05-.08-.102-.08h-.027v-.059h.006c.058 0 .146.006.217.006.073 0 .161-.006.23-.006h.007v.059h-.026c-.054 0-.103.005-.103.08v.797c0 .074.049.079.102.08h.027v.059h-.006zm1.007-.306l.004-.003v-.57c0-.126-.084-.144-.128-.144h-.032v-.046c.069 0 .136.007.205.007.06 0 .12-.007.18-.007v.046h-.021c-.062 0-.131.012-.131.193v.692c0 .054.001.107.009.154H4.79l-.755-.873v.627c0 .132.025.178.137.178h.025v.045c-.063 0-.126-.006-.189-.006-.066 0-.133.006-.2.006v-.045h.021c.101 0 .132-.072.132-.194v-.64a.134.134 0 0 0-.133-.137h-.02v-.046c.056 0 .114.006.17.006.043 0 .086-.006.13-.006l.653.763z" fill="#FFFBF9"/><path d="M4.756 13.332v-.002.002zm.003.003l.005-.005-.005.005zm.03.315h.048a1.065 1.065 0 0 1-.007-.146v-.692c0-.183.073-.2.136-.2h.016v-.033c-.058 0-.116.006-.174.006-.067 0-.133-.006-.199-.006v.033h.026c.045 0 .134.02.134.15l-.002.574-.003.003-.005.005-.652-.765c-.044 0-.086.006-.131.006-.054 0-.109-.006-.162-.006v.033h.013a.14.14 0 0 1 .14.143v.64c0 .123-.033.2-.139.2h-.014v.033c.064 0 .129-.006.193-.006.061 0 .122.005.183.006v-.032h-.02c-.115-.001-.144-.053-.144-.185v-.644l.762.883zm.055.014l-.06-.003-.744-.86v.61c.001.132.02.17.131.171h.031v.059h-.006c-.063 0-.127-.006-.19-.006-.065 0-.132.006-.199.006h-.006v-.059h.027c.097 0 .124-.065.125-.186v-.641c0-.08-.064-.13-.126-.13H3.8v-.059h.006c.056 0 .114.006.169.006.043 0 .086-.006.135-.004l.645.753v-.56c0-.12-.079-.135-.122-.136h-.038v-.059h.006c.07 0 .137.006.206.006.06 0 .12-.006.18-.006h.006v.059h-.027c-.06.002-.123.007-.124.186v.692c0 .053.001.107.009.153l.001.008h-.008zm.366-1.015c-.11 0-.115.027-.137.138H5.03c.006-.042.014-.085.018-.13a.926.926 0 0 0 .009-.128h.035c.012.046.048.044.088.044h.757c.04 0 .076-.001.079-.047l.035.006c-.006.04-.012.082-.016.123-.003.041-.003.082-.003.123l-.044.017c-.003-.056-.01-.146-.108-.146h-.24v.81c0 .116.05.13.12.13h.029v.046c-.057 0-.16-.006-.24-.006-.087 0-.19.006-.247.006v-.046h.028c.08 0 .121-.008.121-.128v-.812h-.24z" fill="#FFFBF9"/><path d="M5.787 13.64c-.058 0-.16-.005-.24-.005-.087 0-.19.006-.247.006h-.006v-.059h.034c.08-.002.113-.003.115-.12v-.806h-.234v-.014h.246v.82c0 .121-.047.133-.127.134h-.022v.032c.058 0 .157-.006.242-.006.076 0 .174.005.232.006v-.032h-.02c-.071 0-.128-.018-.128-.138v-.816h.247c.098 0 .111.087.114.144l.032-.012c0-.04 0-.08.003-.12.004-.04.01-.078.015-.117l-.022-.004c-.007.045-.048.047-.085.046H5.17c-.035 0-.072-.001-.085-.044H5.06a.887.887 0 0 1-.009.123c-.004.042-.01.082-.015.123h.03c.02-.106.032-.14.142-.14v.014c-.109.002-.106.021-.13.134l-.001.005h-.056l.001-.008c.006-.043.014-.085.018-.13a.91.91 0 0 0 .009-.128v-.006h.046l.002.005c.01.038.037.038.074.039h.764c.041 0 .07-.002.073-.041v-.007l.008.001.041.007-.001.007c-.006.04-.012.081-.016.122-.003.04-.003.082-.003.123v.005l-.004.002-.052.02v-.01c-.004-.057-.01-.14-.103-.14h-.234v.803c.002.115.046.123.115.124h.035v.059h-.007zm.309-.05h.02c.053 0 .109-.008.109-.088v-.797c0-.079-.056-.087-.109-.087h-.02v-.045c.09 0 .242.006.365.006s.276-.006.375-.006a2.68 2.68 0 0 0 .004.233l-.045.012c-.006-.099-.024-.178-.178-.178h-.204v.398h.174c.088 0 .107-.051.116-.133h.044a3.626 3.626 0 0 0 0 .35l-.044.01c-.009-.091-.013-.15-.114-.15h-.176v.354c0 .099.085.099.178.099.176 0 .254-.012.298-.186l.041.01a3.42 3.42 0 0 0-.05.243c-.093 0-.262-.006-.394-.006s-.307.006-.39.006v-.046z" fill="#FFFBF9"/><path d="M6.876 13.628c.012-.077.029-.154.047-.23l-.029-.008c-.044.17-.129.185-.302.184-.092 0-.185 0-.186-.105v-.361h.183c.102-.002.113.063.12.149l.032-.007a3.389 3.389 0 0 1 0-.34h-.032c-.008.08-.032.136-.122.135h-.18v-.412h.21c.153-.001.178.08.184.176l.032-.008a2.76 2.76 0 0 1-.003-.222c-.1 0-.248.006-.369.006-.12 0-.268-.006-.358-.006v.033h.014c.052 0 .115.01.115.093v.797c0 .084-.063.093-.115.094h-.014v.032c.085 0 .255-.006.384-.006s.294.005.389.006zm.005.013c-.094 0-.263-.006-.395-.006s-.306.006-.39.006H6.09v-.059h.026c.054 0 .102-.006.103-.08v-.797c-.001-.074-.05-.08-.102-.08H6.09v-.059h.006c.09 0 .242.006.365.006.124 0 .276-.006.376-.006h.006v.007l-.001.078c0 .053 0 .11.004.154v.005l-.005.002-.051.014v-.008c-.01-.099-.022-.17-.173-.172h-.198v.385h.168c.085 0 .1-.045.11-.128v-.005h.056v.006a3.802 3.802 0 0 0 0 .351v.006l-.005.001-.05.01v-.007c-.01-.092-.012-.144-.11-.145H6.42v.349c0 .092.077.092.173.092.176-.001.247-.01.292-.18l.001-.007.006.001.047.013-.001.006c-.02.08-.037.16-.05.242v.005H6.88zm.435-.555h.072c.147 0 .226-.057.226-.237 0-.135-.083-.222-.214-.222-.044 0-.063.005-.084.006v.453zm-.188-.353c0-.11-.058-.115-.103-.115h-.027v-.046c.047 0 .138.006.227.006.088 0 .159-.006.236-.006.185 0 .35.052.35.268 0 .137-.088.22-.204.268l.25.389c.042.064.07.082.143.092v.045c-.049 0-.096-.006-.144-.006-.045 0-.092.006-.138.006a4.252 4.252 0 0 1-.305-.493h-.096v.326c0 .117.052.122.12.122h.026v.045c-.084 0-.168-.006-.252-.006-.07 0-.14.006-.213.006v-.045h.027c.054 0 .103-.026.103-.083v-.773z" fill="#FFFBF9"/><path d="M7.389 13.08c.145-.001.218-.053.22-.23-.001-.133-.08-.216-.208-.216-.04 0-.059.004-.078.005v.441h.066zm-.072.013H7.31v-.466h.005c.02-.002.04-.006.084-.006.134 0 .22.09.221.228 0 .182-.084.244-.232.244h-.072zm0 .042h.1l.002.003c.096.175.192.339.3.49.045 0 .092-.007.138-.007.046 0 .092.006.137.006v-.033c-.069-.009-.1-.03-.141-.093l-.256-.396.008-.003c.115-.047.2-.129.2-.262 0-.211-.159-.26-.343-.261-.077 0-.148.006-.236.006-.086 0-.173-.006-.222-.006v.033h.021c.045 0 .11.007.11.121v.773c0 .062-.055.09-.11.09h-.02v.032c.07 0 .137-.007.206-.007.082 0 .165.006.246.007v-.033h-.02c-.067 0-.126-.008-.126-.128v-.332h.006zM8 13.64c-.05 0-.096-.006-.144-.006-.045 0-.092.006-.143.003a4.277 4.277 0 0 1-.304-.49h-.087v.319c.002.114.046.113.114.115h.033v.059h-.006c-.085 0-.17-.006-.253-.006-.07 0-.139.006-.212.006h-.007v-.059h.033c.053 0 .098-.024.098-.075v-.773c-.002-.108-.052-.108-.098-.11h-.033v-.056H7c.047 0 .138.006.227.006.088 0 .158-.006.236-.006.185 0 .355.053.356.274 0 .137-.088.223-.2.271l.245.383c.041.063.067.079.139.088h.005v.059H8zm.997-.305l.002-.003v-.57c0-.126-.083-.144-.127-.144H8.84v-.046c.069 0 .136.007.205.007.06 0 .12-.007.18-.007v.046h-.021c-.062 0-.131.012-.131.193v.692c0 .054.001.107.009.154h-.056l-.755-.873v.627c0 .132.024.178.137.178h.025v.045c-.063 0-.126-.006-.189-.006-.066 0-.133.006-.2.006v-.045h.021c.101 0 .132-.072.132-.194v-.64a.134.134 0 0 0-.133-.137h-.02v-.046c.056 0 .114.006.17.006.043 0 .086-.006.13-.006l.653.763z" fill="#FFFBF9"/><path d="M8.992 13.332v-.002.002zm.004.003L9 13.33l-.004.005zm.03.315h.047a1.062 1.062 0 0 1-.007-.146v-.692c0-.183.074-.2.137-.2h.015v-.033c-.058 0-.116.006-.174.006-.067 0-.133-.006-.2-.006v.033h.027c.045 0 .134.02.134.15l-.002.574L9 13.34l-.004.005-.653-.765c-.044 0-.086.006-.13.006-.055 0-.11-.006-.163-.006v.033h.013a.14.14 0 0 1 .14.143v.64c0 .123-.034.2-.14.2H8.05v.033c.063 0 .129-.006.193-.006.062 0 .122.005.183.006v-.032h-.019c-.115 0-.144-.053-.144-.185v-.644l.762.883zm.055.014l-.06-.002-.745-.861v.61c.002.132.021.17.132.171h.03v.058h-.006c-.063 0-.126-.006-.189-.006-.066 0-.133.006-.2.006h-.006v-.058h.027c.097 0 .125-.065.126-.187v-.64a.127.127 0 0 0-.127-.13h-.026v-.059h.007c.056 0 .113.006.169.006.043 0 .085-.006.135-.004l.644.753v-.56c0-.12-.078-.136-.12-.136h-.04v-.059h.007c.069 0 .136.006.205.006.06 0 .12-.006.18-.006h.007v.059h-.028c-.06.001-.123.007-.125.187v.692c0 .053.002.106.01.152v.008H9.08zm.594-.921h-.003l-.136.43h.274l-.135-.43zm-.214.674c-.015.052-.032.091-.032.118 0 .046.061.054.11.054h.016v.045a2.547 2.547 0 0 0-.336 0v-.045h.009c.057 0 .105-.036.127-.1l.235-.697c.019-.057.045-.133.054-.189a.755.755 0 0 0 .134-.065.023.023 0 0 1 .011-.003c.004 0 .007 0 .01.004l.014.038.27.796c.017.053.035.11.054.155.017.043.048.06.097.06h.008v.047a3.975 3.975 0 0 0-.422 0v-.046h.016c.034 0 .091-.006.091-.044a.492.492 0 0 0-.03-.11l-.056-.176h-.334l-.046.158z" fill="#FFFBF9"/><path d="M9.669 12.745h.003-.003zm-.124.422h.257l-.128-.408-.13.408zm-.018.013l.14-.444h.008v.007h-.001.001v-.007h.005l.14.444h-.293zm.3.447c.072-.002.144-.005.214-.005.068 0 .132.003.195.005v-.031h-.002c-.05 0-.085-.02-.103-.065-.019-.046-.037-.103-.054-.156l-.27-.796-.013-.036c0-.002 0-.002-.002-.002H9.79l-.01.002a.533.533 0 0 1-.13.061c-.009.058-.035.134-.054.19l-.235.698c-.022.066-.074.104-.134.104h-.002v.032a2.54 2.54 0 0 1 .322 0v-.032h-.009c-.047 0-.114-.006-.116-.06 0-.03.018-.07.032-.12l.007.001-.007-.002.049-.163h.342l.06.181c.015.05.029.09.029.112-.003.046-.065.05-.098.05h-.01v.032zm.416.014a4.367 4.367 0 0 0-.202-.006c-.072 0-.145.003-.22.006h-.007v-.059h.023c.034 0 .084-.008.084-.037a.47.47 0 0 0-.03-.107l-.055-.173h-.323l-.046.154c-.015.052-.033.092-.032.117 0 .037.055.046.104.046h.022v.06l-.006-.001c-.06-.003-.119-.006-.178-.006-.052 0-.105.003-.157.006h-.007v-.059h.015c.055 0 .1-.032.121-.094l.235-.698a1.49 1.49 0 0 0 .058-.193.774.774 0 0 0 .134-.065c.004-.002.008-.004.014-.004.003 0 .011.001.016.01l.013.038.27.795c.018.054.035.11.054.155.018.04.044.056.091.056h.015v.06l-.006-.001zm.065-.992c-.11 0-.115.027-.137.138h-.044c.006-.042.013-.085.018-.13a.92.92 0 0 0 .009-.128h.035c.011.046.048.044.088.044h.757c.039 0 .076-.001.079-.047l.035.006-.016.123c-.003.041-.003.082-.003.123l-.044.017c-.003-.056-.01-.146-.109-.146h-.24v.809c0 .117.051.13.122.13h.027v.047c-.057 0-.16-.006-.239-.006-.088 0-.19.006-.248.006v-.046h.028c.081 0 .122-.008.122-.128v-.812h-.24z" fill="#FFFBF9"/><path d="M10.885 13.64c-.058 0-.16-.005-.24-.005-.087 0-.19.006-.247.006h-.006v-.059h.034c.08-.002.113-.003.115-.12v-.807h-.234v-.013h.247v.82c0 .121-.048.133-.128.133h-.022v.033c.058 0 .157-.006.242-.006.077 0 .175.005.233.006v-.033h-.022c-.07 0-.128-.017-.128-.137v-.816h.247c.098 0 .111.087.114.144l.032-.012c0-.04 0-.08.003-.12l.015-.117-.022-.004c-.007.045-.049.047-.085.046h-.764c-.035 0-.072-.001-.085-.044h-.024a.986.986 0 0 1-.01.123c-.003.042-.01.083-.016.123h.031c.02-.106.032-.14.142-.139v.014c-.109.001-.106.02-.13.133l-.001.005h-.057l.001-.008c.006-.043.013-.085.018-.129a.912.912 0 0 0 .009-.128v-.007h.046l.001.005c.01.038.037.038.075.039h.764c.04 0 .07-.001.073-.04v-.008l.007.001.042.007-.001.007-.017.122c-.002.04-.002.082-.002.123v.005l-.005.002-.052.02v-.01c-.004-.057-.01-.14-.102-.14h-.234v.803c.001.115.045.123.115.124h.034v.059h-.006zm.316-.05h.02c.054 0 .109-.008.109-.088v-.797c0-.079-.055-.087-.108-.087h-.02v-.045c.057 0 .144.006.216.006.074 0 .162-.006.23-.006v.045h-.02c-.053 0-.108.008-.108.087v.797c0 .08.055.087.108.087h.02v.046c-.07 0-.158-.006-.231-.006-.072 0-.159.006-.216.006v-.046z" fill="#FFFBF9"/><path d="M11.643 13.628v-.033h-.014c-.053 0-.115-.01-.115-.093v-.797c0-.084.062-.093.115-.093h.014v-.033c-.068 0-.153.006-.224.006-.07 0-.154-.006-.21-.006v.033h.013c.053 0 .115.01.115.093v.797c0 .084-.062.093-.115.093h-.014v.033c.057-.001.14-.006.21-.006.07 0 .156.005.225.006zm.006.013c-.07 0-.158-.006-.231-.006-.072 0-.159.006-.216.006h-.007v-.059h.027c.053 0 .102-.006.102-.08v-.797c0-.074-.049-.08-.102-.08h-.027v-.059h.007c.057 0 .145.006.217.006.073 0 .16-.006.23-.006h.006v.059h-.025c-.054 0-.102.006-.103.08v.797c0 .074.05.08.103.08h.026v.059h-.006zm.608-.051c.285 0 .334-.26.334-.482 0-.222-.115-.491-.36-.491-.256 0-.332.237-.332.44 0 .273.12.533.358.533zm-.023-1.04c.313 0 .563.2.563.525 0 .35-.242.582-.555.582a.527.527 0 0 1-.549-.546c0-.316.237-.561.541-.561z" fill="#FFFBF9"/><path d="M11.891 13.058c0-.205.078-.448.34-.448.249 0 .365.274.365.498 0 .222-.05.489-.34.489v-.013c.278 0 .327-.254.327-.476 0-.22-.114-.484-.352-.485-.252 0-.327.232-.327.434 0 .271.12.526.352.526v.014c-.244 0-.364-.266-.365-.54zm-.206.053a.552.552 0 0 1 .548-.568v.013a.538.538 0 0 0-.535.555c0 .323.235.54.543.54.309 0 .548-.23.548-.577 0-.32-.245-.517-.556-.518v-.013c.315 0 .568.203.568.531 0 .354-.245.589-.56.59a.535.535 0 0 1-.556-.553zm2.099.224l.003-.003v-.57c0-.126-.084-.144-.128-.144h-.032v-.046c.07 0 .137.007.205.007.061 0 .121-.007.181-.007v.046h-.022c-.061 0-.13.012-.13.193v.692c0 .054.001.107.008.154h-.055l-.756-.873v.627c0 .132.025.178.138.178h.025v.045c-.063 0-.126-.006-.189-.006-.066 0-.134.006-.2.006v-.045h.021c.101 0 .132-.072.132-.194v-.64a.134.134 0 0 0-.134-.137h-.019v-.046c.056 0 .113.006.169.006.044 0 .087-.006.13-.006l.653.763z" fill="#FFFBF9"/><path d="M13.781 13.332l-.001-.002.001.002zm.003.003l.005-.005-.005.005zm.03.315h.048a1.116 1.116 0 0 1-.008-.146v-.692c0-.183.074-.2.137-.2h.016v-.033c-.058 0-.116.006-.174.006-.067 0-.133-.006-.2-.006v.033h.027c.045 0 .134.02.134.15l-.002.574-.003.003-.005.005-.653-.765c-.043 0-.086.006-.13.006-.054 0-.109-.006-.163-.006v.033h.013a.14.14 0 0 1 .14.143v.64c0 .123-.032.2-.138.2h-.014v.033c.063 0 .129-.006.193-.006.061 0 .122.005.183.006v-.032h-.02c-.114 0-.143-.053-.143-.185v-.644l.762.883zm.056.014l-.061-.003-.744-.86v.61c.002.132.021.17.13.17h.033v.06h-.007c-.063 0-.126-.006-.189-.006-.066 0-.133.006-.2.006h-.006v-.059h.026c.098 0 .125-.065.126-.186v-.641a.127.127 0 0 0-.127-.13h-.025v-.059h.006c.056 0 .114.006.169.006.043 0 .085-.006.136-.004l.644.753v-.56c0-.12-.079-.135-.121-.136h-.039v-.059h.007c.069 0 .136.006.205.006.06 0 .12-.006.18-.006h.007v.059h-.03c-.06.002-.122.007-.124.186v.692c0 .053.001.107.009.153v.007h-.006zm.594-.921h-.003l-.136.43h.274l-.135-.43zm-.215.674c-.014.052-.032.091-.032.118 0 .046.062.054.11.054h.016v.045a2.522 2.522 0 0 0-.336 0v-.045h.01c.057 0 .105-.036.127-.1l.235-.697c.019-.057.045-.133.054-.189a.758.758 0 0 0 .134-.065.023.023 0 0 1 .011-.003c.005 0 .007 0 .01.004l.014.038.27.796c.017.053.035.11.054.155.018.043.048.06.097.06h.008v.047a3.964 3.964 0 0 0-.422 0v-.046h.016c.034 0 .091-.006.091-.044a.509.509 0 0 0-.03-.11l-.056-.176h-.333l-.048.158z" fill="#FFFBF9"/><path d="M14.457 12.745l.002-.001-.002.001zm-.125.422h.256l-.127-.407-.129.407zm-.018.013l.141-.444h.007v.007h-.001.002v-.007h.004l.139.444h-.292zm.3.447c.073-.003.144-.005.214-.005.068 0 .132.003.196.005v-.032h-.003c-.05 0-.084-.02-.102-.065-.02-.046-.037-.102-.055-.155l-.27-.796-.012-.036-.002-.002h-.003l-.008.002a.559.559 0 0 1-.131.061c-.01.058-.036.133-.055.19l-.235.698c-.022.066-.073.104-.133.103h-.002v.032c.05-.003.1-.005.152-.005.056 0 .114.003.17.005v-.032h-.01c-.047 0-.114-.005-.116-.06 0-.03.02-.068.033-.12l.006.002-.006-.002.049-.163h.341l.06.181c.015.049.029.09.029.112-.002.046-.064.05-.097.05h-.01v.032zm.416.014c-.067-.003-.132-.006-.202-.006-.072 0-.145.003-.22.006H14.6v-.059h.023c.034 0 .084-.008.085-.037a.508.508 0 0 0-.03-.108l-.056-.172H14.3l-.046.154c-.014.052-.032.092-.032.117 0 .037.055.046.104.046h.022v.059h-.006a2.746 2.746 0 0 0-.335 0H14v-.059h.015c.054 0 .1-.033.122-.094l.234-.698c.02-.057.046-.133.059-.193a.797.797 0 0 0 .133-.065.03.03 0 0 1 .014-.004c.004 0 .011.001.016.01l.014.037.27.796c.017.053.034.11.054.155.017.04.043.056.09.057h.016v.059l-.007-.001zm.37-.156c0 .062.041.08.088.086.06.004.126.004.194-.003a.21.21 0 0 0 .14-.083.346.346 0 0 0 .046-.11h.043c-.016.088-.037.173-.055.26-.129 0-.258-.006-.387-.006-.13 0-.258.006-.387.006v-.046h.02c.053 0 .11-.008.11-.102v-.782c0-.079-.057-.087-.11-.087h-.02v-.045c.077 0 .154.006.232.006.075 0 .148-.006.223-.006v.045H15.5c-.056 0-.1.002-.1.082v.785z" fill="#FFFBF9"/><path d="M15.852 13.627c.017-.082.036-.163.052-.245h-.03a.343.343 0 0 1-.046.107.215.215 0 0 1-.145.085 1.122 1.122 0 0 1-.195.003c-.048-.005-.094-.027-.094-.092V12.7c0-.084.052-.088.106-.088h.03v-.033c-.072 0-.143.006-.216.006-.076 0-.15-.006-.225-.006v.033h.014c.052 0 .116.009.116.093v.782c0 .098-.064.108-.116.108h-.014v.032c.126 0 .253-.006.38-.006.128 0 .256.006.383.006zm.005.014c-.13 0-.258-.006-.387-.006-.13 0-.258.006-.388.006h-.006v-.059h.026c.054-.001.104-.005.105-.095v-.782c-.001-.074-.05-.08-.104-.08h-.027v-.059h.006c.078 0 .155.006.232.006.075 0 .148-.006.223-.006h.006v.059H15.5c-.056.001-.092-.001-.093.075v.785c0 .057.036.072.082.079a1.056 1.056 0 0 0 .193-.003.204.204 0 0 0 .136-.08.352.352 0 0 0 .044-.107l.002-.005h.054v.008c-.017.087-.037.172-.055.259l-.002.005h-.004zm.011-.951h.019c.02 0 .029-.016.029-.04 0-.027-.015-.035-.03-.035h-.018v.075zm-.052.084v-.007c.02-.003.023-.003.023-.015v-.119c0-.016-.002-.022-.022-.02v-.009h.079c.027 0 .052.013.052.042a.05.05 0 0 1-.037.049l.026.037a.175.175 0 0 0 .034.037v.005h-.03c-.015 0-.027-.031-.056-.073h-.017v.053c0 .01.004.01.023.013v.007h-.075zm.077.046c.07 0 .122-.061.122-.13s-.052-.13-.122-.13-.123.061-.123.13.053.13.123.13zm0-.29c.088 0 .155.07.155.16s-.067.16-.155.16a.155.155 0 0 1-.155-.16c0-.09.067-.16.155-.16z" fill="#FFFBF9"/></g><defs><clipPath id="a"><path fill="#fff" d="M.801.85h17.55v18.2H.801z"/></clipPath></defs></svg>