<svg width="23" height="21" viewBox="0 0 23 21" fill="none" xmlns="http://www.w3.org/2000/svg"><g clip-path="url(#a)" fill="#B9B9B8"><path d="M21.684 13.956a.183.183 0 0 0-.078-.074.212.212 0 0 0-.102-.027.212.212 0 0 0-.18.101.198.198 0 0 0 .077.275.216.216 0 0 0 .206 0 .198.198 0 0 0 .077-.075.198.198 0 0 0 0-.2zm-.109.175h-.045l-.028-.066h-.027v.066h-.036v-.169h.073c.008 0 .027 0 .045.01.01.008.018.025.018.042a.047.047 0 0 1-.027.044l.027.073z"/><path d="M21.523 13.997c0-.004-.018-.004-.028-.004h-.018v.044h.027s.01 0 .019-.003c.01-.004.01-.013.01-.02 0-.007 0-.014-.01-.017zM15.73 4.373c-1.659 0-3.169.61-4.307 1.61a6.507 6.507 0 0 0-4.304-1.609h-.041C3.553 4.397.699 7.177.699 10.6c0 3.437 2.876 6.225 6.42 6.225a6.506 6.506 0 0 0 4.303-1.609 6.248 6.248 0 0 1-.656-.68h1.326c-.2.238-.418.46-.652.667h-.001l-.016.014a6.504 6.504 0 0 0 4.309 1.61c3.546-.001 6.418-2.79 6.417-6.227v-.003c0-3.437-2.876-6.224-6.42-6.224zm-4.89 2.253h1.219c.18.211.348.434.498.667h-2.176c.14-.223.293-.451.458-.667zM10 7.946h2.926c.104.217.197.44.276.668H9.654c.035-.065.16-.324.347-.667zm-3.235 4.147h-.762l.454-2.307-1.043 2.307h-.69L4.6 9.802l-.454 2.29h-.69l.59-2.998h1.189l.054 1.857.844-1.857h1.234l-.6 2.999zm2.695-1.296l-.164.866-.027.155-.018.124-.01.083-.008.066h-.635l.019-.252c-.19.201-.454.294-.799.294-.408 0-.69-.271-.69-.665 0-.593.49-.94 1.334-.94.081 0 .19.007.308.018.018-.08.028-.113.028-.158 0-.161-.137-.221-.49-.221-.218 0-.463.025-.626.067l-.109.027-.063.016.1-.55c.38-.093.625-.128.906-.128.653 0 .998.248.998.715 0 .121-.009.212-.054.483zm1.515-1.204c.626 0 1.025.345 1.025.886 0 .18-.027.356-.091.603h-1.505c-.01.037-.01.054-.01.077 0 .282.227.426.662.426.273 0 .518-.047.79-.154l-.127.61a3.028 3.028 0 0 1-.771.099c-.853 0-1.297-.375-1.297-1.094 0-.836.562-1.452 1.324-1.453zm1.59 4.303h-2.279a6.167 6.167 0 0 1-.379-.667h3.031c-.111.23-.236.452-.374.667zm1.395-3.682a5.281 5.281 0 0 0-.554-.036c-.245 0-.372.067-.372.198 0 .114.036.142.354.265.39.149.544.345.544.68 0 .556-.372.813-1.188.813a6.381 6.381 0 0 1-.626-.042l-.136-.024-.037-.007.11-.563c.244.067.454.096.689.096.3 0 .435-.067.435-.22 0-.111-.045-.147-.354-.269-.408-.16-.589-.372-.589-.68 0-.45.3-.825 1.152-.825.182 0 .481.021.68.048l-.108.566zm1.189 1.333a.704.704 0 0 0 .199-.024l-.1.541c-.208.056-.371.08-.544.08-.39 0-.599-.19-.599-.536 0-.069.009-.142.018-.219l.046-.24.036-.193.354-1.862h.752l-.108.56h.39l-.11.594h-.39l-.2 1.017c-.008.044-.008.078-.008.1 0 .127.082.18.264.182zm1.855-1.207c-.362 0-.48.262-.752 1.754h-.762l.462-2.44h.69l-.073.37c.236-.288.417-.396.663-.396.027 0 .054.003.081.006 0 .002.028.006.065.015.009.002.018.002.082.026l-.271.69-.091-.018a.756.756 0 0 0-.094-.007zm1.346 1.818c-.863 0-1.207-.506-1.207-1.125 0-.864.59-1.45 1.497-1.45.79 0 1.207.482 1.207 1.1 0 .152 0 .162-.018.304-.118.811-.7 1.172-1.479 1.17zm1.56-.065a.196.196 0 0 1-.2-.191c0-.104.091-.19.2-.19.11 0 .2.086.2.19 0 .106-.09.19-.2.19z"/><path d="M19.912 11.757c-.082 0-.154.065-.154.145 0 .081.072.146.154.146a.145.145 0 0 0 .145-.146.144.144 0 0 0-.145-.145zm.072.23h-.046l-.027-.066h-.027v.066h-.037v-.17h.073a.12.12 0 0 1 .046.01.062.062 0 0 1 .018.043c0 .018-.01.036-.027.044l.027.073z"/><path d="M19.93 11.852c0-.004-.019-.004-.028-.004h-.02v.044h.029s.01 0 .018-.003c.01-.004.01-.012.01-.02 0-.006 0-.013-.01-.017zm-8.964-1.7c-.244 0-.417.155-.49.438l.844.002v-.127c0-.198-.127-.313-.354-.313zm-2.457.845c-.426 0-.644.125-.644.371 0 .152.1.249.272.249.309 0 .526-.25.545-.61a1.455 1.455 0 0 0-.173-.01zm10.113-.817c-.39 0-.626.445-.626.836 0 .332.163.554.436.55.163 0 .516-.22.58-.599.018-.088.027-.186.027-.292 0-.254-.108-.496-.417-.495z"/></g><defs><clipPath id="a"><path fill="#fff" d="M.699.2h21.45V21H.699z"/></clipPath></defs></svg>