<svg width="23" height="23" viewBox="0 0 23 23" fill="none" xmlns="http://www.w3.org/2000/svg"><g clip-path="url(#a)"><path d="M22.2 11.25c0 3.648-2.86 6.63-6.435 6.63-3.54 0-6.435-2.982-6.435-6.63 0-3.648 2.86-6.63 6.401-6.63 3.61 0 6.47 2.982 6.47 6.63z" fill="#B9B9B8"/><path d="M15.765 4.62c3.541 0 6.435 2.982 6.435 6.63 0 3.648-2.86 6.63-6.435 6.63-3.54 0-6.435-2.982-6.435-6.63" fill="#B9B9B8"/><path d="M15.766 4.62c3.54 0 6.435 2.982 6.435 6.63 0 3.648-2.86 6.63-6.435 6.63M7.117 4.62C3.61 4.655.75 7.602.75 11.25c0 3.648 2.86 6.63 6.435 6.63 1.668 0 3.166-.666 4.324-1.719.238-.21.443-.456.647-.701h-1.328a8.08 8.08 0 0 1-.477-.667h2.282c.136-.21.272-.456.374-.701h-3.03a4.255 4.255 0 0 1-.272-.702h3.54a7.137 7.137 0 0 0 .341-2.105c0-.49-.068-.947-.136-1.403H9.5c.034-.246.102-.456.17-.702h3.541a4.25 4.25 0 0 0-.272-.701H9.943c.102-.246.238-.456.374-.702H12.6a3.333 3.333 0 0 0-.511-.701h-1.26a5.9 5.9 0 0 1 .647-.667C10.351 5.322 8.819 4.69 7.151 4.69c0-.07 0-.07-.034-.07z" fill="#B9B9B8"/><path d="M.75 11.25c0 3.649 2.86 6.63 6.435 6.63 1.668 0 3.166-.666 4.324-1.719.238-.21.443-.456.647-.701h-1.328c-.17-.21-.34-.456-.477-.667h2.282c.136-.21.272-.456.374-.701h-3.03a4.256 4.256 0 0 1-.272-.702h3.54a7.131 7.131 0 0 0 .341-2.105c0-.49-.068-.947-.136-1.403H9.5c.034-.245.102-.456.17-.701h3.541a4.251 4.251 0 0 0-.272-.702H9.943c.102-.246.238-.456.374-.702H12.6a3.333 3.333 0 0 0-.511-.701h-1.26a5.91 5.91 0 0 1 .647-.667C10.351 5.322 8.819 4.69 7.151 4.69h-.034" fill="#B9B9B8"/><path d="M7.185 17.88c1.669 0 3.167-.666 4.324-1.719.239-.21.443-.456.647-.701h-1.328c-.17-.21-.34-.456-.476-.667h2.28c.137-.21.273-.456.375-.701h-3.03a4.254 4.254 0 0 1-.272-.702h3.54a7.16 7.16 0 0 0 .341-2.105c0-.49-.068-.947-.136-1.403H9.5c.035-.245.103-.456.17-.701h3.542a4.251 4.251 0 0 0-.273-.702H9.943c.102-.246.239-.456.375-.702h2.28a3.33 3.33 0 0 0-.51-.701h-1.26c.205-.246.409-.456.647-.667C10.352 5.322 8.82 4.69 7.151 4.69h-.034" fill="#B9B9B8"/><path d="M9.466 12.934l.102-.596c-.034 0-.102.035-.17.035-.239 0-.273-.14-.239-.21l.205-1.228h.374l.102-.667H9.5l.068-.42h-.68s-.41 2.314-.41 2.595c0 .421.239.596.545.596.205 0 .375-.07.443-.105zm.239-1.122c0 .982.647 1.227 1.192 1.227.51 0 .715-.105.715-.105l.136-.666s-.375.175-.715.175c-.75 0-.613-.561-.613-.561h1.396s.102-.456.102-.632c0-.456-.238-1.017-.987-1.017-.715-.07-1.226.701-1.226 1.579zm1.192-1.018c.374 0 .306.456.306.491h-.749c0-.035.068-.49.443-.49zm4.323 2.14l.136-.772s-.34.176-.578.176c-.477 0-.681-.386-.681-.807 0-.842.408-1.298.885-1.298.34 0 .613.21.613.21l.102-.736s-.409-.176-.783-.176c-.783 0-1.566.702-1.566 2.035 0 .877.408 1.473 1.225 1.473.273 0 .647-.105.647-.105zm-9.498-2.771c-.477 0-.818.14-.818.14l-.102.596s.307-.14.75-.14c.238 0 .442.035.442.245 0 .14-.034.176-.034.176h-.307c-.578 0-1.225.245-1.225 1.052 0 .632.408.772.647.772.476 0 .68-.316.715-.316l-.034.28h.612l.273-1.928c0-.842-.681-.877-.92-.877zm.136 1.578c0 .105-.068.667-.477.667-.204 0-.272-.176-.272-.281 0-.175.102-.42.613-.42a.523.523 0 0 0 .136.034zm1.429 1.263c.17 0 1.021.035 1.021-.912 0-.877-.817-.702-.817-1.053 0-.175.136-.245.375-.245.102 0 .476.035.476.035l.103-.631s-.239-.07-.647-.07c-.511 0-1.022.21-1.022.912 0 .806.851.736.851 1.052 0 .21-.238.245-.408.245-.307 0-.613-.105-.613-.105l-.102.632c.034.07.204.14.783.14zm13.585-3.402l-.136.947s-.272-.351-.647-.351c-.613 0-1.157.772-1.157 1.684 0 .561.272 1.157.85 1.157.41 0 .648-.28.648-.28l-.034.245h.68l.511-3.367-.715-.035zm-.306 1.859c0 .386-.17.877-.545.877-.238 0-.374-.21-.374-.561 0-.562.238-.913.544-.913.239 0 .375.176.375.597zM2.01 12.97l.409-2.527.068 2.526h.477l.885-2.525-.375 2.525h.715l.545-3.367H3.61l-.68 2.07-.035-2.07h-.987l-.545 3.367h.647zm10.556 0c.204-1.159.238-2.106.714-1.93.069-.456.17-.632.239-.807h-.136c-.307 0-.545.42-.545.42l.068-.385h-.647l-.443 2.736h.75v-.035zm4.22-2.807c-.477 0-.817.14-.817.14l-.102.596s.306-.14.749-.14c.238 0 .442.035.442.245 0 .14-.034.176-.034.176h-.306c-.579 0-1.226.245-1.226 1.052 0 .632.409.772.647.772.477 0 .681-.316.715-.316l-.034.28h.613l.272-1.928c.034-.842-.68-.877-.919-.877zm.17 1.578c0 .105-.068.667-.476.667-.205 0-.273-.176-.273-.281 0-.175.102-.42.613-.42.102.034.102.034.136.034zm1.328 1.229c.204-1.159.239-2.106.715-1.93.068-.456.17-.632.239-.807H19.1c-.306 0-.544.42-.544.42l.068-.385h-.647l-.443 2.736h.75v-.035z" fill="#fff"/><path d="M8.412 12.443c0 .421.238.596.545.596.238 0 .442-.07.51-.105l.103-.596c-.034 0-.102.035-.17.035-.239 0-.273-.14-.239-.21l.204-1.228h.375l.102-.667h-.34l.068-.42m.475 1.964c0 .982.306 1.227.851 1.227.51 0 .715-.105.715-.105l.136-.666s-.374.175-.715.175c-.749 0-.613-.561-.613-.561h1.396s.103-.456.103-.632c0-.456-.239-1.017-.988-1.017-.715-.07-.885.701-.885 1.579zm.851-1.018c.375 0 .443.456.443.491h-.886c0-.035.069-.49.443-.49zm4.326 2.14l.136-.772s-.34.176-.579.176c-.477 0-.681-.386-.681-.807 0-.842.409-1.298.885-1.298.34 0 .613.21.613.21l.102-.736s-.408-.176-.783-.176c-.783 0-1.225.702-1.225 2.035 0 .877.068 1.473.885 1.473.272 0 .647-.105.647-.105zm-10.42-2s.307-.14.75-.14c.238 0 .442.035.442.246 0 .14-.034.175-.034.175h-.307c-.578 0-1.225.246-1.225 1.053 0 .63.408.771.647.771.476 0 .68-.316.715-.316l-.034.281h.612l.273-1.93c0-.806-.681-.841-.954-.841l-.885.701zm1.396.807c0 .106-.408.667-.817.667-.204 0-.272-.176-.272-.28 0-.176.102-.422.613-.422.102.035.476.035.476.035zm.342 1.193s.203.07.782.07c.17 0 1.022.035 1.022-.912 0-.877-.818-.702-.818-1.053 0-.175.137-.245.375-.245.102 0 .477.035.477.035l.102-.631s-.239-.07-.647-.07c-.51 0-.681.21-.681.912 0 .806.51.736.51 1.052 0 .21-.238.245-.408.245m13.482-1.788s-.272-.351-.647-.351c-.613 0-.817.772-.817 1.684 0 .561-.068 1.157.51 1.157.41 0 .648-.28.648-.28l-.034.245h.68l.511-3.367-.851.912zm-.034.912c0 .386-.306.877-.681.877-.238 0-.375-.21-.375-.561 0-.562.239-.912.545-.912.239 0 .511.175.511.596zM2.01 12.97l.409-2.527.068 2.526h.477l.885-2.525-.375 2.525h.715l.545-3.367h-.851l-.954 2.07-.034-2.07h-.374l-1.158 3.367h.647zm9.84 0h.715c.204-1.159.238-2.106.715-1.93.068-.456.17-.632.238-.807h-.136c-.307 0-.545.42-.545.42l.068-.385m2.962.666s.306-.14.749-.14c.238 0 .442.035.442.246 0 .14-.034.175-.034.175h-.306c-.579 0-1.226.246-1.226 1.053 0 .63.409.771.647.771.477 0 .681-.316.715-.316l-.034.281h.613l.272-1.93c0-.806-.68-.841-.953-.841l-.885.701zm1.396.807c0 .106-.409.667-.818.667-.204 0-.272-.176-.272-.28 0-.176.102-.422.613-.422.136.035.477.035.477.035zm.307 1.229h.715c.205-1.159.239-2.106.715-1.93.068-.456.17-.632.239-.807h-.137c-.306 0-.544.42-.544.42l.068-.385" fill="#FFFBF9"/></g><defs><clipPath id="a"><path fill="#fff" d="M.75.2H22.2v22.1H.75z"/></clipPath></defs></svg>