<svg width="12" height="12" viewBox="0 0 12 12" fill="none" xmlns="http://www.w3.org/2000/svg"><g clip-path="url(#a)"><path d="M7.547.05H2.424L.154 10.469H3.16l.737-3.453h2.147c2.055 0 3.773-1.266 4.234-3.42C10.797 1.158 9.049.05 7.547.05zM5.306 5.02h-.98l.644-2.85h1.472c.505 0 .888.301 1.014.743-.065-.011-.125-.03-.195-.03H5.789L5.306 5.02zm2.149-1.425c-.18.773-.914 1.39-1.663 1.42l.353-1.563h1.334c-.008.047-.011.093-.024.143zm3.64.712c.173-.808.093-1.466-.14-1.99.487.581.74 1.424.497 2.56-.46 2.153-2.18 3.42-4.233 3.42H5.07l-.736 3.452H1.33l.125-.57H3.98l.736-3.452h2.148c2.054 0 3.772-1.267 4.233-3.42z" fill="#B9B9B8"/></g><defs><clipPath id="a"><path fill="#fff" d="M0 .05h11.7v11.7H0z"/></clipPath></defs></svg>