<svg width="24" height="25" viewBox="0 0 24 25" fill="none" xmlns="http://www.w3.org/2000/svg"><g clip-path="url(#a)" fill="#B9B9B8"><path d="M8.83 15.73l1.189-6.872h1.857l-1.152 6.872H8.83z"/><path d="M8.83 15.73l1.523-6.872h1.523l-1.152 6.872H8.83zm8.617-6.795c-.372-.153-.966-.306-1.709-.306-1.857 0-3.194.955-3.194 2.329 0 1.03.928 1.565 1.671 1.909.743.343.966.572.966.878 0 .458-.595.687-1.114.687-.743 0-1.152-.115-1.783-.382l-.26-.114-.26 1.565c.445.19 1.263.382 2.117.382 1.968 0 3.268-.955 3.268-2.405 0-.802-.483-1.413-1.597-1.91-.668-.343-1.077-.534-1.077-.877 0-.306.334-.611 1.077-.611.632 0 1.077.115 1.412.267l.185.077.297-1.49z"/><path d="M17.447 8.935c-.372-.153-.966-.306-1.709-.306-1.857 0-2.86.955-2.86 2.329 0 1.03.594 1.565 1.337 1.909.743.343.966.572.966.878 0 .458-.595.687-1.114.687-.743 0-1.152-.115-1.783-.382l-.26-.114-.26 1.565c.445.19 1.263.382 2.117.382 1.968 0 3.268-.955 3.268-2.405 0-.802-.483-1.413-1.597-1.91-.668-.343-1.077-.534-1.077-.877 0-.306.334-.611 1.077-.611.632 0 1.077.115 1.412.267l.185.077.297-1.49zm3.195-.077c-.446 0-.78.039-.966.497l-2.785 6.375h2.005l.372-1.145h2.377l.223 1.145h1.783l-1.56-6.872h-1.449zm-.854 4.581c.111-.343.743-2.023.743-2.023s.148-.42.26-.687l.111.649s.371 1.718.446 2.1h-1.56v-.039z"/><path d="M21.088 8.858c-.446 0-.78.039-.966.497l-3.231 6.375h2.005l.372-1.145h2.377l.223 1.145h1.783l-1.56-6.872h-1.003zm-1.3 4.581c.148-.381.743-2.023.743-2.023s.148-.42.26-.687l.111.649s.371 1.718.446 2.1h-1.56v-.039zm-14.375.229l-.186-.992c-.334-1.146-1.411-2.405-2.6-3.016l1.671 6.108h2.006l3.009-6.872H7.307l-1.894 4.772z"/><path d="M5.413 13.668l-.186-.992c-.334-1.146-1.411-2.405-2.6-3.016l1.671 6.108h2.006l3.009-6.872H7.678l-2.265 4.772z"/><path d="M.25 8.858l.334.077c2.377.572 4.012 2.023 4.643 3.74L4.56 9.432c-.112-.458-.446-.573-.855-.573H.25z"/><path d="M.25 8.858c2.377.573 4.346 2.062 4.977 3.78l-.631-2.71c-.112-.459-.483-.726-.892-.726L.25 8.858z"/><path d="M.25 8.858c2.377.573 4.346 2.062 4.977 3.78l-.446-1.49c-.111-.457-.26-.915-.78-1.106L.25 8.858z"/><path d="M7.27 13.44l-1.263-1.298-.594 1.45-.149-.954c-.334-1.145-1.411-2.405-2.6-3.016l1.671 6.108h2.006l.929-2.29zm3.454 2.29l-1.597-1.68-.297 1.68h1.894zm4.271-2.367c.149.153.223.268.186.42 0 .458-.595.687-1.114.687-.743 0-1.152-.114-1.783-.381l-.26-.115-.26 1.565c.445.191 1.263.382 2.117.382 1.188 0 2.154-.344 2.711-.954l-1.597-1.604zm2.155 2.367h1.746l.371-1.145h2.378l.223 1.145h1.782l-.631-2.787-2.229-2.214.112.61s.371 1.719.445 2.1h-1.56c.15-.381.743-2.023.743-2.023s.149-.42.26-.687"/></g><defs><clipPath id="a"><path fill="#fff" d="M.25.25h23.4V24.3H.25z"/></clipPath></defs></svg>