<?xml version="1.0" standalone="no"?>
<!DOCTYPE svg PUBLIC "-//W3C//DTD SVG 20010904//EN"
 "http://www.w3.org/TR/2001/REC-SVG-20010904/DTD/svg10.dtd">
<svg version="1.0" xmlns="http://www.w3.org/2000/svg"
 width="700.000000pt" height="700.000000pt" viewBox="0 0 700.000000 700.000000"
 preserveAspectRatio="xMidYMid meet">
<metadata>
Created by potrace 1.11, written by Peter Selinger 2001-2013
</metadata>
<g transform="translate(0.000000,700.000000) scale(0.100000,-0.100000)"
fill="#000000" stroke="none">
<path d="M2979 6996 c-2 -2 -42 -6 -89 -10 -47 -3 -96 -8 -110 -10 -14 -3 -52
-7 -85 -11 -98 -11 -322 -54 -442 -86 -246 -64 -495 -168 -733 -302 -94 -53
-310 -193 -357 -231 -281 -226 -446 -394 -584 -596 -24 -36 -46 -67 -49 -70
-7 -7 -27 -43 -77 -138 -68 -129 -58 -163 60 -217 61 -28 639 -174 950 -240
10 -2 26 -7 36 -10 12 -4 41 20 102 86 212 231 355 352 567 483 193 120 455
221 651 252 18 3 43 8 55 11 53 13 355 11 427 -3 41 -8 86 -17 101 -19 100
-18 258 -83 378 -155 101 -60 233 -175 309 -270 20 -25 38 -47 41 -50 35 -35
143 -226 180 -320 12 -30 26 -64 31 -75 8 -20 47 -146 54 -175 2 -8 15 -62 28
-120 14 -58 28 -121 31 -140 3 -19 7 -44 10 -55 2 -11 7 -42 10 -68 4 -27 9
-56 11 -66 8 -44 17 -167 20 -273 4 -161 -16 -261 -55 -273 -10 -3 -73 15
-141 41 -281 104 -647 214 -849 253 -30 6 -66 14 -80 16 -83 18 -245 44 -310
51 -25 2 -54 6 -65 9 -93 19 -549 27 -720 12 -109 -9 -187 -19 -255 -32 -14
-2 -36 -7 -50 -9 -293 -50 -689 -216 -890 -373 -314 -244 -506 -503 -644 -868
-17 -46 -65 -204 -71 -236 -2 -11 -6 -28 -9 -37 -3 -9 -7 -34 -11 -56 -3 -21
-7 -41 -9 -45 -3 -4 -8 -34 -11 -66 -4 -33 -9 -69 -11 -80 -10 -53 -18 -205
-17 -350 0 -195 8 -276 45 -470 43 -230 158 -516 280 -699 85 -127 88 -131
168 -220 341 -382 828 -618 1390 -673 96 -10 435 -10 520 0 271 30 478 76 733
163 319 109 604 258 957 498 74 51 140 95 145 98 7 4 10 -94 10 -285 l0 -292
1090 0 1090 0 3 578 2 577 -22 1 c-13 1 -68 2 -123 4 -55 1 -206 6 -335 9
-129 4 -295 9 -368 11 -73 1 -136 6 -140 10 -8 8 -8 -12 -16 630 -4 286 -9
655 -11 820 -5 309 -10 704 -21 1515 -11 896 -9 842 -29 896 -10 27 -22 53
-27 59 -4 5 -8 15 -8 22 0 45 -207 510 -246 554 -8 8 -14 19 -14 23 0 5 -38
68 -62 101 -325 451 -765 746 -1338 898 -100 27 -134 35 -189 42 -18 3 -36 7
-40 9 -3 2 -51 9 -106 16 -55 7 -111 14 -125 16 -30 5 -536 14 -541 10z m94
-3940 c69 -7 203 -24 233 -30 115 -23 346 -90 424 -123 19 -8 44 -19 55 -23
117 -46 717 -346 760 -380 11 -9 12 -329 1 -406 -9 -57 -25 -87 -74 -132 -29
-26 -215 -153 -307 -209 -226 -138 -449 -252 -630 -323 -60 -24 -119 -47 -130
-51 -62 -25 -287 -88 -375 -104 -199 -37 -488 -42 -629 -11 -85 19 -208 60
-266 88 -242 120 -450 369 -521 624 -22 77 -26 251 -9 332 30 136 127 298 243
403 151 136 423 272 612 304 19 3 51 10 70 15 117 30 381 42 543 26z"/>
</g>
</svg>
