<svg width="29" height="29" viewBox="0 0 29 29" fill="none" xmlns="http://www.w3.org/2000/svg">
<g clip-path="url(#clip0)">
<path d="M2.83984 11.7692H3.83857L3.33921 10.498L2.83984 11.7692Z" fill="#B9B9B8"/>
<path d="M15.2457 10.6909C15.1549 10.6455 15.0187 10.6455 14.8825 10.6455H13.9746V11.3719H14.8825C15.0187 11.3719 15.1549 11.3719 15.2457 11.3265C15.3365 11.2811 15.3819 11.1449 15.3819 11.0087C15.4273 10.8271 15.3365 10.7363 15.2457 10.6909Z" fill="#228FE0"/>
<path d="M24.9601 9.3291V9.87386L24.6877 9.3291H22.554V9.87386L22.2817 9.3291H19.3763C18.8769 9.3291 18.4683 9.4199 18.1052 9.60148V9.3291H16.0623V9.60148C15.8353 9.4199 15.5629 9.3291 15.1998 9.3291H7.89087L7.3915 10.464L6.89214 9.3291H4.5769V9.87386L4.30452 9.3291H2.35245L1.44452 11.4628L0.400391 13.8234H1.44452H2.71563L2.98801 13.097H3.62357L3.89595 13.8234H6.52896V13.2786L6.75595 13.8234H8.07245L8.29944 13.2786V13.8234H14.6096V12.6431H14.7004C14.7912 12.6431 14.7912 12.6431 14.7912 12.7793V13.778H18.0598V13.5056C18.3321 13.6418 18.7407 13.778 19.2855 13.778H20.6474L20.9198 13.0516H21.5553L21.8277 13.778H24.4607V13.097L24.8693 13.778H27.0029V9.3291H24.9601ZM9.61595 13.1424H8.8442V10.6456L7.75468 13.1424H7.07372L5.9842 10.6456V13.1424H4.44071L4.12293 12.4615H2.57944L2.30706 13.1878H1.44452L2.80642 9.96466H3.94134L5.21245 13.0062V9.96466H6.43817L7.4369 12.1437L8.34484 9.96466H9.61595V13.1424ZM12.7029 10.6456H10.9325V11.2358H12.6575V11.8713H10.9325V12.5069H12.7029V13.1878H10.1607V9.96466H12.7029V10.6456ZM16.1077 11.9621C16.1985 12.1437 16.2439 12.2799 16.2439 12.5523V13.1878H15.4721V12.7793C15.4721 12.5977 15.4721 12.3253 15.3359 12.1437C15.1998 12.0075 15.0636 12.0075 14.7912 12.0075H13.974V13.1878H13.2023V9.96466H14.9274C15.3359 9.96466 15.6083 9.96466 15.8353 10.1008C16.0623 10.237 16.1985 10.464 16.1985 10.8272C16.1985 11.3266 15.8807 11.5989 15.6537 11.6897C15.8807 11.7351 16.0169 11.8713 16.1077 11.9621ZM17.4696 13.1424H16.6979V9.91926H17.4696V13.1424ZM26.4128 13.1424H25.3232L23.8706 10.7364V13.1424H22.3271L22.0547 12.4615H20.4658L20.1934 13.1878H19.3309C18.9677 13.1878 18.5137 13.097 18.2413 12.8247C17.969 12.5523 17.8328 12.1891 17.8328 11.5989C17.8328 11.145 17.9236 10.691 18.2413 10.3278C18.4683 10.0555 18.8769 9.96466 19.3763 9.96466H20.1026V10.6456H19.3763C19.1039 10.6456 18.9677 10.691 18.7861 10.8272C18.6499 10.9634 18.5591 11.2358 18.5591 11.5535C18.5591 11.9167 18.6045 12.1437 18.7861 12.3253C18.9223 12.4615 19.1039 12.5069 19.3309 12.5069H19.6486L20.6928 10.0101H21.8277L23.0988 13.0516V10.0101H24.2337L25.5502 12.2345V10.0101H26.322V13.1424H26.4128Z" fill="#B9B9B8"/>
<path d="M20.7383 11.7804H21.7824L21.283 10.5093L20.7383 11.7804Z" fill="#228FE0"/>
<path d="M13.0202 18.3176V15.73L11.8398 17.0011L13.0202 18.3176Z" fill="#228FE0"/>
<path d="M8.16406 16.0479V16.638H9.84374V17.2736H8.16406V17.9545H10.0253L10.8879 17.0012L10.0707 16.0479H8.16406Z" fill="#B9B9B8"/>
<path d="M14.7463 16.0479H13.793V16.865H14.7917C15.0641 16.865 15.2457 16.7288 15.2457 16.4564C15.2003 16.184 15.0187 16.0479 14.7463 16.0479Z" fill="#228FE0"/>
<path d="M28.7738 16.8197V14.7769H28.229H26.8671C26.4586 14.7769 26.1408 14.8677 25.9138 15.0492V14.7769H23.8255C23.5078 14.7769 23.0992 14.8677 22.9176 15.0492V14.7769H19.2405V15.0492C18.9681 14.8223 18.4687 14.7769 18.2417 14.7769H15.7903V15.0492C15.5633 14.8223 15.0186 14.7769 14.7462 14.7769H12.0224L11.3868 15.4578L10.7967 14.7769H6.71094V19.2257H10.7059L11.3414 18.5448L11.9316 19.2257H14.383V18.1816H14.7008C15.0186 18.1816 15.4271 18.1816 15.7449 18.0454V19.2711H17.7878V18.0908H17.8786C18.0147 18.0908 18.0147 18.0908 18.0147 18.227V19.2711H24.1887C24.5973 19.2711 25.0059 19.1803 25.2328 18.9988V19.2711H27.1849C27.5935 19.2711 28.0021 19.2257 28.2744 19.0442C28.7284 18.7718 29.0008 18.2724 29.0008 17.6823C29.0008 17.3645 28.91 17.0467 28.7738 16.8197ZM14.7008 17.5461H13.7928V18.6356H12.3401L11.4322 17.5915L10.4789 18.6356H7.48268V15.4124H10.5243L11.4322 16.4565L12.3855 15.4124H14.7916C15.3817 15.4124 16.0627 15.594 16.0627 16.4565C16.0173 17.3645 15.3817 17.5461 14.7008 17.5461ZM19.2405 17.3645C19.3313 17.5007 19.3767 17.6823 19.3767 17.9546V18.5902H18.6049V18.1816C18.6049 18 18.6049 17.6823 18.4687 17.5461C18.3779 17.4099 18.1963 17.4099 17.924 17.4099H17.1068V18.5902H16.3351V15.367H18.0601C18.4233 15.367 18.7411 15.367 18.9681 15.5032C19.1951 15.6394 19.3767 15.8664 19.3767 16.2296C19.3767 16.7289 19.0589 17.0013 18.8319 17.0921C19.0589 17.1829 19.1951 17.2737 19.2405 17.3645ZM22.3728 16.048H20.6024V16.6381H22.3274V17.2737H20.6024V17.9092H22.3728V18.5902H19.8306V15.367H22.3728V16.048ZM24.2795 18.5902H22.8268V17.9092H24.2795C24.4157 17.9092 24.5065 17.9092 24.5973 17.8184C24.6427 17.773 24.6881 17.6823 24.6881 17.5915C24.6881 17.5007 24.6427 17.4099 24.5973 17.3645C24.5519 17.3191 24.4611 17.2737 24.3249 17.2737C23.5986 17.2283 22.736 17.2737 22.736 16.275C22.736 15.821 23.0084 15.3216 23.8255 15.3216H25.3236V16.0934H23.9163C23.7801 16.0934 23.6894 16.0934 23.5986 16.1388C23.5078 16.1842 23.5078 16.275 23.5078 16.3657C23.5078 16.5019 23.5986 16.5473 23.6894 16.5927C23.7801 16.6381 23.8709 16.6381 23.9617 16.6381H24.3703C24.7789 16.6381 25.0513 16.7289 25.2328 16.9105C25.369 17.0467 25.4598 17.2737 25.4598 17.5915C25.4598 18.2724 25.0513 18.5902 24.2795 18.5902ZM28.1836 18.2724C28.0021 18.454 27.6843 18.5902 27.2303 18.5902H25.7776V17.9092H27.2303C27.3665 17.9092 27.4573 17.9092 27.5481 17.8184C27.5935 17.773 27.6389 17.6823 27.6389 17.5915C27.6389 17.5007 27.5935 17.4099 27.5481 17.3645C27.5027 17.3191 27.4119 17.2737 27.2757 17.2737C26.5494 17.2283 25.6868 17.2737 25.6868 16.275C25.6868 15.821 25.9592 15.3216 26.7763 15.3216H28.2744V16.0934H26.9125C26.7763 16.0934 26.6855 16.0934 26.5947 16.1388C26.504 16.1842 26.504 16.275 26.504 16.3657C26.504 16.5019 26.5494 16.5473 26.6855 16.5927C26.7763 16.6381 26.8671 16.6381 26.9579 16.6381H27.3665C27.7751 16.6381 28.0474 16.7289 28.229 16.9105C28.2744 16.9105 28.2744 16.9559 28.2744 16.9559C28.4106 17.1375 28.456 17.3645 28.456 17.5915C28.456 17.8638 28.3652 18.0908 28.1836 18.2724Z" fill="#B9B9B8"/>
<path d="M18.4235 16.1387C18.3327 16.0933 18.1965 16.0933 18.0603 16.0933H17.1523V16.8196H18.0603C18.1965 16.8196 18.3327 16.8196 18.4235 16.7742C18.5142 16.7288 18.5596 16.5926 18.5596 16.4564C18.605 16.2748 18.5142 16.1841 18.4235 16.1387Z" fill="#228FE0"/>
<path d="M15.2438 10.6909C15.153 10.6455 15.0168 10.6455 14.8806 10.6455H13.9727V11.3719H14.8806C15.0168 11.3719 15.153 11.3719 15.2438 11.3265C15.3346 11.2811 15.38 11.1449 15.38 11.0087C15.4254 10.8271 15.3346 10.7363 15.2438 10.6909Z" fill="#B9B9B8"/>
<path d="M20.7383 11.7804H21.7824L21.283 10.5093L20.7383 11.7804Z" fill="#B9B9B8"/>
<path d="M13.0202 18.3176V15.73L11.8398 17.0011L13.0202 18.3176Z" fill="#B9B9B8"/>
<path d="M14.7463 16.0479H13.793V16.865H14.7917C15.0641 16.865 15.2457 16.7288 15.2457 16.4564C15.2003 16.184 15.0187 16.0479 14.7463 16.0479Z" fill="#B9B9B8"/>
<path d="M18.4235 16.1387C18.3327 16.0933 18.1965 16.0933 18.0603 16.0933H17.1523V16.8196H18.0603C18.1965 16.8196 18.3327 16.8196 18.4235 16.7742C18.5142 16.7288 18.5596 16.5926 18.5596 16.4564C18.605 16.2748 18.5142 16.1841 18.4235 16.1387Z" fill="#B9B9B8"/>
<path d="M14.4284 18.4994L13.7928 17.8184V18.5902H12.2947L11.3868 17.5461L10.3881 18.5902H7.39189V15.4124H10.4335L11.3868 16.4565L11.8408 15.9118L10.7059 14.7769H6.71094V19.2257H10.7059L11.3868 18.5448L11.977 19.2257H14.4284V18.4994Z" fill="#B9B9B8"/>
<path d="M9.70674 13.778L9.11658 13.1424H8.8442V12.8701L8.16325 12.1891L7.70928 13.1424H7.07372L5.9842 10.6456V13.1424H4.44071L4.12293 12.4615H2.57944L2.26166 13.1424H1.44452L2.80642 9.96466H3.94134L5.21245 13.0062V9.96466H5.89341L5.25785 9.3291H4.5769V9.87386L4.34991 9.3291H2.35245L1.44452 11.4628L0.400391 13.778H1.44452H2.76103L3.03341 13.097H3.66896L3.98674 13.778H6.52896V13.2332L6.75595 13.778H8.07245L8.29944 13.2332V13.778H9.70674Z" fill="#B9B9B8"/>
<path d="M7.61893 11.6897L6.89258 10.9634L7.43734 12.1437L7.61893 11.6897Z" fill="#2FABF7"/>
<path d="M28.2506 19.0554C28.6592 18.783 28.9315 18.329 28.9769 17.8296L28.3414 17.1941C28.3868 17.3303 28.4322 17.4665 28.4322 17.6481C28.4322 17.9204 28.3414 18.1474 28.1598 18.329C27.9782 18.5106 27.6604 18.6468 27.2065 18.6468H25.7538V17.9658H27.2065C27.3426 17.9658 27.4334 17.9658 27.5242 17.875C27.5696 17.8296 27.615 17.7389 27.615 17.6481C27.615 17.5573 27.5696 17.4665 27.5242 17.4211C27.4788 17.3757 27.388 17.3303 27.2519 17.3303C26.5255 17.2849 25.663 17.3303 25.663 16.3315C25.663 15.8776 25.9353 15.469 26.6163 15.3782L26.1169 14.8789C26.0261 14.9243 25.9807 14.9696 25.9353 14.9696V14.6973H23.8471C23.5293 14.6973 23.1207 14.7881 22.9392 14.9696V14.6973H19.2166V14.9696C18.9442 14.7427 18.4449 14.6973 18.2179 14.6973H15.7665V14.9696C15.5395 14.7427 14.9947 14.6973 14.7223 14.6973H11.9985L11.363 15.3782L10.7728 14.6973H10.2734L11.6353 16.0592L12.3163 15.3328H14.7223C15.3125 15.3328 15.9934 15.5144 15.9934 16.3769C15.9934 17.2849 15.3579 17.4665 14.6769 17.4665H13.769V18.1474L14.4499 18.8284V18.1474H14.6769C14.9947 18.1474 15.4033 18.1474 15.7211 18.0112V19.2369H17.7639V18.0566H17.8547C17.9909 18.0566 17.9909 18.0566 17.9909 18.1928V19.2369H24.1649C24.5734 19.2369 24.982 19.1462 25.209 18.9646V19.2369H27.1611C27.5242 19.2823 27.9328 19.2369 28.2506 19.0554ZM19.2166 17.4211C19.3074 17.5573 19.3528 17.7389 19.3528 18.0112V18.6468H18.5811V18.2382C18.5811 18.0566 18.5811 17.7389 18.4449 17.6027C18.3541 17.4665 18.1725 17.4665 17.9001 17.4665H17.083V18.6468H16.3112V15.4236H18.0363C18.3995 15.4236 18.7172 15.4236 18.9442 15.5598C19.1712 15.696 19.3528 15.923 19.3528 16.2862C19.3528 16.7855 19.035 17.0579 18.808 17.1487C19.035 17.2395 19.1712 17.3303 19.2166 17.4211ZM22.349 16.1046H20.5785V16.6947H22.3036V17.3303H20.5785V17.9658H22.349V18.6468H19.8068V15.4236H22.349V16.1046ZM24.2557 18.6468H22.803V17.9658H24.2557C24.3919 17.9658 24.4826 17.9658 24.5734 17.875C24.6188 17.8296 24.6642 17.7389 24.6642 17.6481C24.6642 17.5573 24.6188 17.4665 24.5734 17.4211C24.528 17.3757 24.4373 17.3303 24.3011 17.3303C23.5747 17.2849 22.7122 17.3303 22.7122 16.3315C22.7122 15.8776 22.9846 15.3782 23.8017 15.3782H25.2998V16.15H23.8925C23.7563 16.15 23.6655 16.15 23.5747 16.1954C23.4839 16.2408 23.4839 16.3316 23.4839 16.4223C23.4839 16.5585 23.5747 16.6039 23.6655 16.6493C23.7563 16.6947 23.8471 16.6947 23.9379 16.6947H24.3465C24.755 16.6947 25.0274 16.7855 25.209 16.9671C25.3452 17.1033 25.436 17.3303 25.436 17.6481C25.436 18.329 25.0274 18.6468 24.2557 18.6468Z" fill="#B9B9B8"/>
<path d="M26.459 16.3656C26.459 16.5018 26.5044 16.5472 26.6406 16.5926C26.7314 16.638 26.8222 16.638 26.913 16.638H27.3215C27.5939 16.638 27.7755 16.6834 27.9571 16.7742L27.2761 16.0933H26.8676C26.7314 16.0933 26.6406 16.0933 26.5498 16.1387C26.5044 16.1841 26.459 16.2748 26.459 16.3656Z" fill="#B9B9B8"/>
<path d="M24.8691 13.6416L24.9605 13.7787H25.0062L24.8691 13.6416Z" fill="#228FE0"/>
<path d="M22.3613 11.1221L23.1331 12.9833V11.8938L22.3613 11.1221Z" fill="#B9B9B8"/>
<path d="M14.6095 12.6431H14.7002C14.791 12.6431 14.791 12.6431 14.791 12.7793V13.778H18.0596V13.5056C18.332 13.6418 18.7406 13.778 19.2853 13.778H20.6472L20.9196 13.0517H21.5552L21.8275 13.778H24.4606V13.324L23.825 12.6885V13.1878H22.2815L22.0545 12.4615H20.4656L20.1933 13.1878H19.3307C18.9675 13.1878 18.5136 13.0971 18.2412 12.8247C17.9688 12.5523 17.8326 12.1891 17.8326 11.599C17.8326 11.145 17.9234 10.691 18.2412 10.3278C18.4682 10.0555 18.8768 9.96467 19.3761 9.96467H20.1025V10.6456H19.3761C19.1037 10.6456 18.9675 10.691 18.786 10.8272C18.6498 10.9634 18.559 11.2358 18.559 11.5536C18.559 11.9167 18.6044 12.1437 18.786 12.3253C18.9222 12.4615 19.1037 12.5069 19.3307 12.5069H19.6485L20.6926 10.0101H21.1466L20.511 9.37451H19.3307C18.8314 9.37451 18.4228 9.46531 18.0596 9.64689V9.37451H16.0622V9.64689C15.8352 9.46531 15.5628 9.37451 15.1996 9.37451H7.89072L7.39136 10.5094L6.89199 9.37451H4.89453L5.53009 10.0101H6.43802L7.20977 11.6897L7.48215 11.9621L8.29929 9.96467H9.57041V13.1878H8.79866V10.691L8.02691 12.5069L9.34342 13.8234H14.5641L14.6095 12.6431ZM16.6977 9.96467H17.4695V13.1878H16.6977V9.96467ZM12.7028 10.6456H10.9323V11.2358H12.6574V11.8713H10.9323V12.5069H12.7028V13.1878H10.1606V9.96467H12.7028V10.6456ZM13.9739 13.1424H13.2022V9.91927H14.9272C15.3358 9.91927 15.6082 9.91927 15.8352 10.0555C16.0622 10.1917 16.1983 10.4186 16.1983 10.7818C16.1983 11.2812 15.8806 11.5536 15.6536 11.6444C15.8352 11.6897 15.9714 11.8259 16.0168 11.9167C16.1075 12.0983 16.1529 12.2345 16.1529 12.5069V13.1424H15.3812V12.7339C15.3812 12.5523 15.3812 12.2799 15.245 12.0983C15.1996 12.0075 15.0634 12.0075 14.791 12.0075H13.9739V13.1424Z" fill="#B9B9B8"/>
</g>
<defs>
<clipPath id="clip0">
<rect x="0.400391" width="28.6" height="28.6" fill="white"/>
</clipPath>
</defs>
</svg>
