<svg width="19" height="20" viewBox="0 0 19 20" fill="none" xmlns="http://www.w3.org/2000/svg">
<g clip-path="url(#clip0)">
<path d="M9.57578 19.0501C14.4221 19.0501 18.3508 14.9759 18.3508 9.9501C18.3508 4.92431 14.4221 0.850098 9.57578 0.850098C4.72948 0.850098 0.800781 4.92431 0.800781 9.9501C0.800781 14.9759 4.72948 19.0501 9.57578 19.0501Z" fill="#B9B9B8"/>
<path d="M10.1989 9.82932C11.5926 9.83634 12.865 8.65077 12.865 7.20826C12.865 5.63126 11.5925 4.54093 10.1989 4.5415H8.99924C7.58899 4.54093 6.42773 5.63153 6.42773 7.20826C6.42773 8.65104 7.58899 9.83634 8.99924 9.82932H10.1989Z" fill="#FFFBF9"/>
<path d="M9.53504 8.6124V5.74849C10.0901 5.96918 10.4842 6.52673 10.4851 7.18037C10.4842 7.83404 10.0901 8.39113 9.53504 8.6124ZM7.52649 7.18037C7.5276 6.527 7.92112 5.96991 8.4759 5.74849V8.61194C7.92112 8.39067 7.5276 7.83373 7.52649 7.18037ZM9.00547 4.75977C7.71675 4.76003 6.67213 5.84361 6.67188 7.18037C6.67213 8.51712 7.71675 9.60012 9.00547 9.6007C10.2947 9.60012 11.3396 8.51712 11.3396 7.18037C11.3396 5.84361 10.2946 4.76007 9.00547 4.75977Z" fill="#B9B9B8"/>
<path d="M3.82057 11.6336C3.82057 11.849 3.96884 11.8738 4.10089 11.8738C4.68326 11.8738 4.87433 11.4184 4.87433 11.0018C4.87433 10.479 4.55095 10.1018 4.03079 10.1018C3.91981 10.1018 3.86923 10.1101 3.82046 10.113V11.6336H3.82057ZM3.55621 10.3223C3.55621 10.0708 3.42983 10.0872 3.30859 10.0848V10.0122C3.41361 10.0174 3.52129 10.0174 3.62657 10.0174C3.73962 10.0174 3.89345 10.0122 4.09311 10.0122C4.79102 10.0122 5.17094 10.4955 5.17094 10.9906C5.17094 11.2676 5.01479 11.9635 4.06052 11.9635C3.92307 11.9635 3.79617 11.9581 3.66952 11.9581C3.54855 11.9581 3.42983 11.9608 3.30859 11.9635V11.891C3.47016 11.8739 3.54858 11.8685 3.55621 11.6783V10.3223Z" fill="#FFFBF9"/>
<path d="M5.55424 10.2549C5.48414 10.2549 5.42248 10.1878 5.42248 10.115C5.42248 10.045 5.48717 9.98047 5.55424 9.98047C5.62433 9.98047 5.68654 10.0394 5.68654 10.115C5.68654 10.1907 5.62696 10.2549 5.55424 10.2549ZM5.26562 11.8904H5.31702C5.39227 11.8904 5.44615 11.8904 5.44615 11.7977V11.0403C5.44615 10.9175 5.40582 10.9004 5.30621 10.8451V10.8001C5.43285 10.7609 5.5839 10.708 5.59441 10.6997C5.61341 10.6883 5.62933 10.6853 5.64318 10.6853C5.65647 10.6853 5.66188 10.7021 5.66188 10.7245V11.7977C5.66188 11.8904 5.72146 11.8904 5.79697 11.8904H5.8427V11.963C5.75097 11.963 5.65647 11.9575 5.5599 11.9575C5.46277 11.9575 5.36564 11.9603 5.26574 11.963V11.8904H5.26562Z" fill="#FFFBF9"/>
<path d="M6.09767 11.0574C6.09767 10.9541 6.06789 10.9262 5.94151 10.8731V10.82C6.05734 10.7808 6.16776 10.7446 6.29704 10.6855C6.30548 10.6855 6.31296 10.6913 6.31296 10.7134V10.8953C6.46689 10.7807 6.59894 10.6855 6.77976 10.6855C7.00894 10.6855 7.08985 10.859 7.08985 11.0771V11.7981C7.08985 11.8908 7.14913 11.8908 7.22438 11.8908H7.27315V11.9634C7.17839 11.9634 7.08429 11.9579 6.98731 11.9579C6.89018 11.9579 6.79305 11.9606 6.69607 11.9634V11.8908H6.74458C6.82008 11.8908 6.874 11.8908 6.874 11.7981V11.0744C6.874 10.915 6.7798 10.8368 6.62612 10.8368C6.5398 10.8368 6.40265 10.9091 6.313 10.9712V11.7983C6.313 11.891 6.37258 11.891 6.44838 11.891H6.49689V11.9635C6.40268 11.9635 6.30803 11.9581 6.2109 11.9581C6.11403 11.9581 6.0169 11.9608 5.91992 11.9635V11.891H5.96869C6.04419 11.891 6.09781 11.891 6.09781 11.7983V11.0574H6.09767Z" fill="#FFFBF9"/>
<path d="M7.95518 11.1021C8.0225 11.1021 8.03013 11.0658 8.03013 11.0326C8.03013 10.89 7.9467 10.7752 7.79584 10.7752C7.63124 10.7752 7.51815 10.9008 7.48601 11.1021H7.95518ZM7.47786 11.1918C7.47246 11.2169 7.47246 11.2588 7.47786 11.3539C7.49379 11.6197 7.65868 11.8376 7.87401 11.8376C8.02254 11.8376 8.13837 11.7533 8.23801 11.6503L8.27556 11.6894C8.1514 11.8598 7.99787 12.0052 7.77703 12.0052C7.34833 12.0052 7.26172 11.5746 7.26172 11.3958C7.26172 10.8478 7.61754 10.6855 7.80624 10.6855C8.02491 10.6855 8.25975 10.8281 8.26197 11.1245C8.26197 11.1413 8.26197 11.1582 8.25975 11.1751L8.23509 11.1918L7.47786 11.1918Z" fill="#FFFBF9"/>
<path d="M8.32422 11.8907H8.39695C8.47189 11.8907 8.52637 11.8907 8.52637 11.798V11.0128C8.52637 10.9261 8.42646 10.9089 8.38587 10.887V10.8452C8.58291 10.7583 8.69056 10.6856 8.71522 10.6856C8.73114 10.6856 8.73907 10.6942 8.73907 10.7221V10.9735H8.74473C8.81209 10.8646 8.92555 10.6855 9.08974 10.6855C9.15706 10.6855 9.24341 10.7331 9.24341 10.8337C9.24341 10.9089 9.19202 10.9768 9.11677 10.9768C9.03268 10.9768 9.03268 10.9089 8.93873 10.9089C8.89274 10.9089 8.74169 10.9734 8.74169 11.1412V11.7978C8.74169 11.8905 8.79561 11.8905 8.87111 11.8905H9.02216V11.9631C8.87389 11.9602 8.76099 11.9576 8.64486 11.9576C8.53444 11.9576 8.42109 11.9604 8.32426 11.9631L8.32422 11.8907Z" fill="#FFFBF9"/>
<path d="M9.36311 11.5746C9.39829 11.7591 9.50597 11.9155 9.70271 11.9155C9.8615 11.9155 9.92082 11.815 9.92082 11.7171C9.92082 11.3874 9.33334 11.4937 9.33334 11.0435C9.33334 10.887 9.45487 10.6855 9.75122 10.6855C9.83754 10.6855 9.95337 10.7109 10.0587 10.7669L10.0774 11.0514H10.0157C9.98869 10.8757 9.89419 10.7752 9.72156 10.7752C9.61391 10.7752 9.51123 10.8392 9.51123 10.9596C9.51123 11.2868 10.1367 11.1858 10.1367 11.6247C10.1367 11.8091 9.9938 12.0051 9.67305 12.0051C9.5654 12.0051 9.43847 11.9659 9.34452 11.9101L9.31445 11.5887L9.36311 11.5746Z" fill="#FFFBF9"/>
<path d="M12.571 10.5178H12.5039C12.4525 10.191 12.2288 10.0595 11.9273 10.0595C11.6169 10.0595 11.1666 10.2746 11.1666 10.9455C11.1666 11.5105 11.555 11.9158 11.9701 11.9158C12.237 11.9158 12.4582 11.7261 12.5121 11.4322L12.5741 11.4488L12.5121 11.857C12.3988 11.9301 12.0943 12.0054 11.9159 12.0054C11.2853 12.0054 10.8867 11.5832 10.8867 10.9543C10.8867 10.381 11.3798 9.96973 11.9083 9.96973C12.1264 9.96973 12.3367 10.0429 12.5443 10.1185L12.571 10.5178Z" fill="#FFFBF9"/>
<path d="M12.668 11.8907H12.7188C12.7946 11.8907 12.8485 11.8907 12.8485 11.798V10.2414C12.8485 10.0595 12.8085 10.0539 12.7056 10.0231V9.97857C12.8133 9.94208 12.9268 9.89193 12.9833 9.85802C13.0128 9.84178 13.0345 9.82715 13.0426 9.82715C13.0588 9.82715 13.0642 9.84397 13.0642 9.86666V11.798C13.0642 11.8907 13.1235 11.8907 13.1991 11.8907H13.2445V11.9632C13.1533 11.9632 13.0588 11.9578 12.9617 11.9578C12.8648 11.9578 12.768 11.9605 12.6681 11.9632V11.8907H12.668Z" fill="#FFFBF9"/>
<path d="M14.3982 11.8092C14.3982 11.8598 14.4277 11.8623 14.4734 11.8623C14.5059 11.8623 14.5459 11.8596 14.5811 11.8596V11.9184C14.4649 11.9297 14.2441 11.9883 14.1927 12.0052L14.1791 11.9968V11.7704C14.0178 11.9072 13.8935 12.0052 13.7018 12.0052C13.5565 12.0052 13.4054 11.9072 13.4054 11.6725V10.9569C13.4054 10.8839 13.3949 10.8144 13.2441 10.8003V10.747C13.3413 10.7444 13.5565 10.7276 13.5916 10.7276C13.6217 10.7276 13.6217 10.747 13.6217 10.8086V11.5297C13.6217 11.6139 13.6217 11.8544 13.856 11.8544C13.9475 11.8544 14.0687 11.7814 14.1819 11.6837V10.9313C14.1819 10.8757 14.0525 10.8451 13.9559 10.8171V10.7668C14.1981 10.7497 14.3494 10.7275 14.3761 10.7275C14.398 10.7275 14.398 10.7469 14.398 10.7781V11.8091H14.3982V11.8092Z" fill="#FFFBF9"/>
<path d="M14.9348 11.6471C14.9348 11.753 15.0319 11.9325 15.2125 11.9325C15.5009 11.9325 15.6222 11.6386 15.6222 11.3897C15.6222 11.0879 15.401 10.8364 15.1911 10.8364C15.0909 10.8364 15.0079 10.9036 14.9348 10.9679V11.6471ZM14.9348 10.8868C15.0424 10.7919 15.1883 10.6854 15.3366 10.6854C15.6494 10.6854 15.8377 10.968 15.8377 11.2727C15.8377 11.6388 15.5791 12.0052 15.1935 12.0052C14.9942 12.0052 14.889 11.938 14.8186 11.9072L14.738 11.9716L14.6817 11.9407C14.7053 11.7759 14.7193 11.6138 14.7193 11.4429V10.2411C14.7193 10.0592 14.6787 10.0536 14.5762 10.0228V9.9783C14.6844 9.94182 14.7973 9.89166 14.8539 9.85802C14.8836 9.84151 14.905 9.82715 14.9134 9.82715C14.9297 9.82715 14.9348 9.84366 14.9348 9.86639V10.8868Z" fill="#FFFBF9"/>
<path d="M3.3048 13.5891H3.32502C3.37782 13.5891 3.43351 13.5815 3.43351 13.5023V12.7052C3.43351 12.6261 3.37782 12.6185 3.32502 12.6185H3.3048V12.5728C3.3619 12.5728 3.44988 12.5789 3.52179 12.5789C3.59508 12.5789 3.68306 12.5728 3.75208 12.5728V12.6185H3.73157C3.67876 12.6185 3.62307 12.6262 3.62307 12.7052V13.5023C3.62307 13.5815 3.67876 13.5891 3.73157 13.5891H3.75208V13.6348C3.68169 13.6348 3.59345 13.6286 3.52042 13.6286C3.44836 13.6286 3.36179 13.6348 3.30469 13.6348V13.5891H3.3048Z" fill="#FFFBF9"/>
<path d="M3.74637 13.6279V13.5953H3.73223C3.67972 13.5953 3.61751 13.5858 3.61721 13.502V12.705C3.61747 12.6211 3.67972 12.6118 3.73223 12.6118H3.74637V12.5791C3.67876 12.5791 3.5937 12.5853 3.5226 12.5853C3.45276 12.5853 3.36867 12.5794 3.31186 12.5791V12.6118H3.32601C3.37852 12.6118 3.44073 12.621 3.44073 12.705V13.502C3.44073 13.5858 3.37852 13.5953 3.32601 13.5953H3.31186V13.6279C3.36867 13.6271 3.45154 13.6215 3.52138 13.6215C3.59229 13.6216 3.67709 13.6275 3.74637 13.6279ZM3.75274 13.6407C3.68153 13.6407 3.59396 13.6347 3.52108 13.6347C3.44902 13.6347 3.3627 13.6407 3.30535 13.6407H3.29883V13.6342V13.5889V13.5824H3.30535H3.32556C3.37892 13.5808 3.42725 13.5765 3.42754 13.5021V12.705C3.42729 12.6304 3.37878 12.6258 3.32556 12.6248H3.29883V12.6181V12.5659H3.30535C3.3627 12.5659 3.45069 12.5719 3.52234 12.5719C3.59536 12.5719 3.68305 12.5659 3.75263 12.5659H3.75915V12.5727V12.6248H3.75263H3.73212C3.67876 12.6258 3.63014 12.6304 3.62988 12.705V13.5021C3.63014 13.5765 3.67894 13.5808 3.73212 13.5824H3.75915V13.5889V13.6407H3.75274V13.6407Z" fill="#FFFBF9"/>
<path d="M4.76064 13.3346L4.76356 13.3316V12.7611C4.76356 12.6365 4.67987 12.6182 4.6361 12.6182H4.60366V12.5725C4.67265 12.5725 4.74027 12.5786 4.809 12.5786C4.86913 12.5786 4.92942 12.5725 4.98955 12.5725V12.6182H4.96767C4.90602 12.6182 4.83699 12.6305 4.83699 12.8114V13.5034C4.83699 13.5567 4.83836 13.61 4.84573 13.657H4.78989L4.03459 12.7838V13.4107C4.03459 13.5429 4.05955 13.5886 4.1723 13.5886H4.19726V13.6343C4.13449 13.6343 4.07143 13.6281 4.00811 13.6281C3.94231 13.6281 3.87469 13.6343 3.80874 13.6343V13.5886H3.82926C3.93039 13.5886 3.96101 13.5171 3.96101 13.3955V12.7548C3.96101 12.6698 3.89365 12.618 3.82785 12.618H3.80859V12.5723C3.86429 12.5723 3.92165 12.5784 3.97723 12.5784C4.02129 12.5784 4.06384 12.5723 4.10791 12.5723L4.76064 13.3346Z" fill="#FFFBF9"/>
<path d="M4.7563 13.3315V13.3312L4.75519 13.3298L4.7563 13.3315ZM4.75949 13.3347L4.76434 13.3301L4.75949 13.3347ZM4.7887 13.6503H4.83721C4.8307 13.6048 4.82959 13.5541 4.82959 13.5035V12.8115C4.82959 12.629 4.90316 12.6119 4.96649 12.6119H4.98185V12.5792C4.92394 12.5794 4.86602 12.585 4.80781 12.585C4.74075 12.585 4.67521 12.5794 4.60911 12.5792L4.60855 12.6119H4.63459C4.67976 12.6119 4.76856 12.6325 4.76856 12.7615L4.76689 13.3363L4.76397 13.3393L4.75886 13.3443L4.10665 12.5792C4.06314 12.5792 4.02089 12.585 3.97571 12.585C3.92209 12.585 3.86721 12.5794 3.81389 12.5792L3.81363 12.6119H3.82667C3.89539 12.6119 3.96634 12.6661 3.96634 12.755V13.3958C3.96634 13.5176 3.93365 13.5951 3.82833 13.5958L3.81393 13.5951V13.628C3.87751 13.6273 3.94279 13.6217 4.00693 13.6217C4.06803 13.6217 4.12927 13.6273 4.18956 13.628V13.5957H4.17112C4.05584 13.5949 4.02715 13.5431 4.02715 13.4109V12.767L4.7887 13.6503ZM4.8444 13.6636L4.784 13.6614L4.03951 12.801V13.4108C4.04118 13.543 4.06058 13.5808 4.17101 13.5823H4.20245V13.5887V13.6406H4.19593C4.13261 13.6406 4.06929 13.6346 4.00678 13.6346C3.94124 13.6346 3.87392 13.6406 3.80741 13.6406H3.80089V13.6341V13.5823H3.80741H3.82818C3.92476 13.5814 3.95235 13.5169 3.95346 13.3956V12.7549C3.9532 12.6742 3.88932 12.6248 3.82655 12.6248H3.80078V12.6176V12.5659H3.8073C3.86329 12.5659 3.92065 12.5719 3.97564 12.5719C4.01941 12.5719 4.06169 12.5659 4.11143 12.5681L4.75601 13.321V12.7613C4.75519 12.6403 4.67732 12.6258 4.63447 12.6248H4.59582V12.6176V12.5659H4.60233C4.67162 12.5659 4.73923 12.5719 4.80766 12.5719C4.8675 12.5719 4.92753 12.5659 4.98822 12.5659H4.99444V12.5727V12.6248H4.98822H4.96634C4.90565 12.6267 4.84344 12.632 4.84192 12.8113V13.5033C4.84192 13.5565 4.84329 13.6097 4.85066 13.6561L4.85232 13.6636H4.8444Z" fill="#FFFBF9"/>
<path d="M5.20971 12.6489C5.09954 12.6489 5.09525 12.6762 5.07336 12.7873H5.0293C5.03526 12.7446 5.04259 12.7022 5.04689 12.6579C5.05285 12.6153 5.05574 12.5727 5.05574 12.5289H5.09091C5.10284 12.5746 5.13942 12.5729 5.17919 12.5729H5.93586C5.97563 12.5729 6.01222 12.5716 6.01485 12.5259L6.05003 12.5321C6.04436 12.5729 6.0384 12.614 6.0341 12.6552C6.03133 12.6962 6.03133 12.7373 6.03133 12.7784L5.98726 12.7952C5.98408 12.739 5.977 12.6489 5.87851 12.6489H5.63825V13.4582C5.63825 13.5753 5.68939 13.5891 5.75979 13.5891H5.78763V13.6348C5.73083 13.6348 5.628 13.6286 5.5486 13.6286C5.46062 13.6286 5.35783 13.6348 5.30073 13.6348V13.5891H5.32857C5.40948 13.5891 5.45011 13.5815 5.45011 13.4614V12.649L5.20971 12.6489Z" fill="#FFFBF9"/>
<path d="M5.78708 13.6408C5.72942 13.6408 5.62689 13.6348 5.54779 13.6348C5.46007 13.6348 5.35727 13.6408 5.29991 13.6408H5.29369V13.6346V13.5825H5.29991H5.32776C5.40867 13.5801 5.44111 13.5794 5.44277 13.4612V12.6555H5.20889V12.6488V12.642H5.4554V13.4612C5.4554 13.5833 5.408 13.5955 5.32765 13.5958H5.30602V13.6278C5.36368 13.6274 5.46273 13.6218 5.54768 13.6218C5.62429 13.6218 5.72227 13.6274 5.78045 13.6278V13.5958H5.75882C5.68787 13.5955 5.63107 13.5777 5.63107 13.458V12.642H5.87784C5.97634 12.6423 5.98911 12.7289 5.9923 12.7857L6.02403 12.7736C6.02403 12.7343 6.02429 12.6942 6.02681 12.6541C6.03136 12.6148 6.03677 12.5761 6.04218 12.5371L6.01988 12.5334C6.01311 12.5775 5.97167 12.5799 5.93494 12.5793H5.17857H5.17068C5.13631 12.5793 5.09862 12.5777 5.08573 12.5353H5.06133C5.06107 12.5771 5.0584 12.6178 5.05248 12.6584C5.04844 12.7003 5.04167 12.7403 5.03656 12.7806H5.06773C5.08729 12.6748 5.09947 12.6405 5.20919 12.6419V12.6487V12.6554C5.10043 12.6573 5.10277 12.6764 5.07881 12.7888L5.07799 12.7938H5.07288H5.02148L5.0223 12.786C5.02826 12.7435 5.03589 12.7008 5.04018 12.6567C5.04615 12.6145 5.04892 12.5722 5.04892 12.5285V12.5216H5.05544H5.09577L5.09658 12.5265C5.10654 12.5653 5.13372 12.5653 5.17097 12.5658H5.17886H5.93523C5.97612 12.5651 6.00589 12.5645 6.00826 12.5248L6.00881 12.5176L6.01559 12.5192L6.05703 12.5259L6.05591 12.5327C6.05025 12.5732 6.04429 12.6143 6.03999 12.6554C6.03721 12.6957 6.03721 12.7367 6.03721 12.7781V12.7825L6.03318 12.7845L5.98093 12.8042L5.98067 12.7951C5.97693 12.7382 5.97097 12.6555 5.87843 12.6555H5.6444V13.458C5.64577 13.5729 5.68958 13.5808 5.75942 13.5824H5.79378V13.5889V13.6407L5.78708 13.6408Z" fill="#FFFBF9"/>
<path d="M6.0957 13.5891H6.11648C6.16928 13.5891 6.22468 13.5815 6.22468 13.5023V12.7052C6.22468 12.6261 6.16924 12.6185 6.11648 12.6185H6.0957V12.5728C6.18506 12.5728 6.33792 12.5789 6.46082 12.5789C6.58427 12.5789 6.73654 12.5728 6.83645 12.5728C6.83397 12.6383 6.83534 12.739 6.83963 12.8057L6.79531 12.8177C6.78853 12.719 6.7709 12.64 6.61671 12.64H6.4129V13.0383H6.5872C6.67518 13.0383 6.69429 12.9868 6.70333 12.9045H6.74709C6.74417 12.964 6.74254 13.0232 6.74254 13.0823C6.74254 13.1401 6.74421 13.198 6.74709 13.2558L6.70333 13.2648C6.69447 13.1737 6.69003 13.1144 6.58861 13.1144H6.4129V13.4689C6.4129 13.5677 6.49755 13.5677 6.59149 13.5677C6.76746 13.5677 6.84533 13.5555 6.8894 13.3821L6.93028 13.3923C6.91128 13.4735 6.8937 13.5536 6.88081 13.6347C6.78661 13.6347 6.61812 13.6285 6.48618 13.6285C6.35387 13.6285 6.17928 13.6347 6.09574 13.6347L6.0957 13.5891Z" fill="#FFFBF9"/>
<path d="M6.87551 13.6276C6.88825 13.5509 6.90502 13.474 6.92316 13.3973L6.89421 13.3897C6.85014 13.56 6.76508 13.5749 6.59215 13.5741C6.49958 13.5741 6.40704 13.5741 6.40649 13.4686V13.1077H6.58882C6.69136 13.1065 6.70187 13.1706 6.70895 13.257L6.74068 13.2502C6.7379 13.1941 6.73665 13.1383 6.73665 13.0821C6.73665 13.0252 6.73802 12.9679 6.74068 12.9107H6.70895C6.70076 12.9901 6.67681 13.0456 6.58742 13.0447H6.40645V12.6329H6.61708C6.76975 12.6316 6.79486 12.7135 6.80137 12.809L6.83311 12.8005C6.83063 12.7572 6.82907 12.7022 6.82907 12.6515C6.82907 12.6253 6.82963 12.6006 6.83018 12.5792C6.73057 12.5795 6.58201 12.5851 6.46133 12.5851C6.34091 12.5851 6.19268 12.5795 6.10273 12.5792V12.612H6.11713C6.16938 12.612 6.23159 12.6211 6.23185 12.7051V13.5021C6.23159 13.5859 6.16935 13.595 6.11713 13.5957H6.10273V13.6277C6.18823 13.6276 6.35768 13.6217 6.48655 13.6217C6.61596 13.6216 6.78071 13.6275 6.87551 13.6276ZM6.88091 13.6407C6.78671 13.6407 6.61822 13.6347 6.48629 13.6347C6.35424 13.6347 6.17994 13.6407 6.0961 13.6407H6.08988V13.6346V13.5889V13.5824H6.0961H6.11688C6.16994 13.5813 6.21804 13.5765 6.21856 13.5021V12.705C6.218 12.6309 6.16979 12.6258 6.11688 12.6248H6.08984V12.6181V12.5659H6.09606C6.18557 12.5659 6.33828 12.5719 6.46118 12.5719C6.58464 12.5719 6.73665 12.5659 6.83681 12.5659H6.84333L6.84292 12.5727C6.84181 12.5957 6.84155 12.6228 6.84155 12.6514C6.84155 12.7039 6.84292 12.7615 6.84585 12.8049V12.8105L6.84129 12.8121L6.7896 12.8257L6.78934 12.8181C6.7806 12.7193 6.76771 12.6474 6.61696 12.6461H6.41911V13.0313H6.58745C6.67184 13.0305 6.68706 12.9856 6.69706 12.9035L6.69762 12.8976H6.70328H6.75357V12.9044C6.75079 12.9638 6.74901 13.023 6.74901 13.0822C6.74901 13.14 6.75094 13.1976 6.75357 13.2554V13.2607L6.74846 13.2621L6.69762 13.2724L6.69706 13.2654C6.6871 13.1726 6.68625 13.1215 6.58886 13.1205H6.41911V13.4686C6.41937 13.5608 6.49628 13.5606 6.59204 13.5608C6.76842 13.5598 6.83911 13.5509 6.88358 13.3801L6.88525 13.3739L6.89121 13.3752L6.93831 13.3876L6.93694 13.394C6.91768 13.4746 6.90035 13.5549 6.88721 13.6357L6.8861 13.6407H6.88091Z" fill="#FFFBF9"/>
<path d="M7.31647 13.0864H7.38797C7.53528 13.0864 7.61397 13.0288 7.61397 12.8491C7.61397 12.7141 7.53054 12.6274 7.3999 12.6274C7.35583 12.6274 7.33713 12.6319 7.31647 12.6333V13.0864ZM7.12843 12.7335C7.12843 12.6227 7.06996 12.6182 7.02452 12.6182H6.99805V12.5723C7.04515 12.5723 7.13576 12.5784 7.22541 12.5784C7.31339 12.5784 7.38379 12.5723 7.46137 12.5723C7.64622 12.5723 7.81067 12.6238 7.81067 12.8402C7.81067 12.977 7.72269 13.0607 7.60686 13.1079L7.85751 13.497C7.89895 13.5613 7.92791 13.5794 7.99982 13.5886V13.6343C7.95131 13.6343 7.90436 13.6281 7.85614 13.6281C7.81071 13.6281 7.76357 13.6343 7.71843 13.6343C7.60564 13.4808 7.50836 13.3163 7.41319 13.1411H7.31662V13.4667C7.31662 13.584 7.36942 13.5886 7.43648 13.5886H7.46296V13.6343C7.37927 13.6343 7.29462 13.6281 7.21078 13.6281C7.14039 13.6281 7.0714 13.6343 6.99808 13.6343V13.5886H7.02456C7.07874 13.5886 7.12847 13.5629 7.12847 13.5064L7.12843 12.7335Z" fill="#FFFBF9"/>
<path d="M7.38867 13.08C7.53401 13.0787 7.60703 13.0266 7.6087 12.8496C7.60788 12.7168 7.52834 12.6345 7.40059 12.6337C7.36082 12.6337 7.34238 12.6376 7.32342 12.6393V13.08H7.38867ZM7.31687 13.093H7.31065V12.6274L7.31605 12.6266C7.33627 12.625 7.35608 12.621 7.40044 12.621C7.53386 12.621 7.62073 12.7108 7.62103 12.8494C7.62048 13.0312 7.53664 13.093 7.38852 13.093H7.31687ZM7.31687 13.1349H7.41733L7.41899 13.1381C7.51475 13.3126 7.61118 13.4769 7.71912 13.6276C7.76374 13.6276 7.81085 13.6213 7.85658 13.6213C7.90342 13.6213 7.94886 13.6266 7.99429 13.6273V13.5941C7.92531 13.5854 7.89313 13.5639 7.85295 13.501L7.59744 13.1047L7.60507 13.1017C7.71979 13.055 7.80474 12.9734 7.805 12.8397C7.80474 12.6286 7.64636 12.5798 7.4618 12.5789C7.38463 12.5789 7.31439 12.5851 7.22585 12.5851C7.13979 12.5851 7.05266 12.5792 7.00444 12.5789V12.6117H7.02496C7.0704 12.6117 7.13512 12.6193 7.13512 12.7335V13.5064C7.13512 13.5678 7.08025 13.5952 7.02496 13.5955H7.00444V13.6276C7.07539 13.6274 7.14216 13.6215 7.21118 13.6215C7.2932 13.6215 7.37578 13.6274 7.45714 13.6276V13.5955H7.43692C7.37012 13.5952 7.31053 13.5866 7.31053 13.4668V13.1348L7.31687 13.1349ZM8.00051 13.6406C7.95134 13.6406 7.90475 13.6346 7.85654 13.6346C7.81192 13.6346 7.76482 13.6406 7.71398 13.6382C7.60133 13.4851 7.50502 13.3219 7.41011 13.1482H7.32349V13.4669C7.32516 13.5811 7.36923 13.5804 7.4371 13.5823H7.4701V13.5887V13.6406H7.46358C7.37948 13.6406 7.29439 13.6346 7.21141 13.6346C7.14131 13.6346 7.07228 13.6406 6.99871 13.6406H6.99219V13.6341V13.5823H6.99871H7.02518C7.07799 13.5814 7.12257 13.5578 7.12257 13.5065V12.7336C7.12146 12.6259 7.07062 12.6261 7.02518 12.6248H6.99219V12.6181V12.5659H6.99871C7.0461 12.5659 7.13672 12.5719 7.22607 12.5719C7.31379 12.5719 7.38415 12.5659 7.46202 12.5659C7.64714 12.5663 7.81729 12.6191 7.81785 12.84C7.81785 12.9775 7.73042 13.0631 7.61736 13.1111L7.86332 13.4939C7.90446 13.5568 7.93012 13.5728 8.00159 13.5823L8.0067 13.5828V13.5887V13.6406H8.00051Z" fill="#FFFBF9"/>
<path d="M8.99659 13.3346L8.99937 13.3316V12.7611C8.99937 12.6365 8.91568 12.6182 8.87217 12.6182H8.83973V12.5725C8.90872 12.5725 8.97608 12.5786 9.04507 12.5786C9.1052 12.5786 9.16493 12.5725 9.22588 12.5725V12.6182H9.2037C9.14205 12.6182 9.07302 12.6305 9.07302 12.8114V13.5034C9.07302 13.5567 9.07439 13.61 9.08187 13.657H9.02603L8.27077 12.7838V13.4107C8.27077 13.5429 8.29543 13.5886 8.40848 13.5886H8.43314V13.6343C8.37038 13.6343 8.30706 13.6281 8.24429 13.6281C8.17793 13.6281 8.11058 13.6343 8.04492 13.6343V13.5886H8.06503C8.16645 13.5886 8.19734 13.5171 8.19734 13.3955V12.7548C8.19734 12.6698 8.12998 12.618 8.06392 12.618H8.04492V12.5723C8.10036 12.5723 8.15772 12.5784 8.21356 12.5784C8.25707 12.5784 8.29987 12.5723 8.34394 12.5723L8.99659 13.3346Z" fill="#FFFBF9"/>
<path d="M8.99226 13.3316V13.3312L8.99115 13.33L8.99226 13.3316ZM8.99574 13.3346L9.0003 13.33L8.99574 13.3346ZM9.02526 13.6503H9.07347C9.06695 13.605 9.06558 13.554 9.06558 13.5035V12.8115C9.06558 12.629 9.13972 12.6122 9.20274 12.6119H9.21785V12.5791C9.16049 12.5794 9.10228 12.585 9.0441 12.585C8.97704 12.585 8.91124 12.5794 8.84485 12.5791V12.6119H8.87103C8.91591 12.6122 9.00474 12.6324 9.00474 12.7612L9.00282 13.3363L8.99989 13.3393L8.99559 13.3443L8.34257 12.5792C8.29906 12.5792 8.25681 12.585 8.21245 12.585C8.15798 12.585 8.10313 12.5794 8.04951 12.5792V12.6119H8.06281C8.13154 12.6122 8.20249 12.6658 8.20249 12.755V13.3953C8.20249 13.5176 8.16923 13.595 8.06392 13.5958L8.04951 13.5955V13.6278C8.1131 13.6274 8.17864 13.6218 8.24296 13.6218C8.30461 13.6218 8.36531 13.6274 8.42585 13.6278V13.5958H8.40741C8.29184 13.5955 8.26288 13.5432 8.26262 13.4108V12.7673L9.02526 13.6503ZM9.08106 13.6635L9.02037 13.6617L8.27588 12.801V13.4105C8.2778 13.543 8.29695 13.5808 8.40763 13.5822H8.43852V13.5887V13.6405H8.43229C8.36897 13.6405 8.30591 13.6345 8.24314 13.6345C8.17734 13.6345 8.10973 13.6405 8.04389 13.6405H8.03711V13.6344V13.5822H8.04389H8.06399C8.16112 13.5814 8.18897 13.5168 8.18982 13.3951V12.7549C8.18956 12.6739 8.12569 12.6248 8.06292 12.6248H8.03715V12.6181V12.5659H8.04392C8.09962 12.5659 8.15698 12.5719 8.21256 12.5719C8.25566 12.5719 8.29806 12.5659 8.34764 12.5678L8.99222 13.321V12.7612C8.99167 12.6405 8.91379 12.6254 8.87125 12.6249H8.83233V12.6182V12.566H8.83885C8.90783 12.566 8.97545 12.5721 9.04418 12.5721C9.10402 12.5721 9.16375 12.566 9.22444 12.566H9.23096V12.5728V12.6249H9.22444H9.20281C9.14212 12.6262 9.07991 12.6321 9.07839 12.8115V13.5035C9.07839 13.5566 9.07976 13.6095 9.08713 13.6563L9.08795 13.6635H9.08106V13.6635Z" fill="#FFFBF9"/>
<path d="M9.67481 12.7429H9.67189L9.53584 13.1735H9.81005L9.67481 12.7429ZM9.461 13.4169C9.44619 13.4685 9.42856 13.5085 9.42856 13.5353C9.42856 13.581 9.49022 13.5886 9.53843 13.5886H9.55491V13.6343C9.49588 13.631 9.43615 13.6282 9.37713 13.6282C9.32432 13.6282 9.27181 13.631 9.21875 13.6343V13.5886H9.2276C9.2847 13.5886 9.33317 13.5534 9.3548 13.4896L9.58964 12.7919C9.6089 12.7353 9.63538 12.6592 9.64412 12.6032C9.69096 12.5863 9.74969 12.5561 9.77754 12.5377C9.78209 12.5361 9.78487 12.5347 9.78946 12.5347C9.79349 12.5347 9.79623 12.5347 9.79942 12.5393C9.80397 12.5516 9.80816 12.5654 9.81301 12.5772L10.0825 13.3728C10.1004 13.426 10.118 13.4823 10.1367 13.5283C10.1543 13.5707 10.1855 13.5889 10.2341 13.5889H10.2425V13.6346C10.1767 13.6313 10.1105 13.6285 10.0404 13.6285C9.96831 13.6285 9.89503 13.6313 9.82034 13.6346V13.5889H9.83626C9.86981 13.5889 9.92743 13.5828 9.92743 13.5448C9.92743 13.5249 9.91414 13.4838 9.89766 13.4352L9.84056 13.2586H9.50747L9.461 13.4169Z" fill="#FFFBF9"/>
<path d="M9.66899 12.7452L9.67217 12.7441L9.66899 12.7452ZM9.54472 13.1671H9.80159L9.67358 12.7595L9.54472 13.1671ZM9.52713 13.1804L9.66762 12.7365H9.67217H9.6751V12.7433L9.67373 12.7439L9.6751 12.7433V12.7365H9.67995L9.81907 13.1804H9.52713ZM9.82666 13.6275C9.89939 13.6248 9.97064 13.6219 10.0407 13.6219C10.1086 13.6219 10.1728 13.6249 10.2364 13.6275V13.5956H10.2341C10.1841 13.596 10.1495 13.5752 10.1313 13.5307C10.1121 13.4847 10.0945 13.4282 10.0772 13.3752L9.80711 12.5794C9.80256 12.5674 9.79837 12.5539 9.79437 12.5428C9.79326 12.5412 9.79356 12.5412 9.79215 12.5412H9.78967C9.78675 12.5412 9.78482 12.5422 9.78093 12.5434C9.75279 12.5625 9.69376 12.5924 9.65025 12.6043C9.6414 12.6618 9.61478 12.7379 9.59578 12.7943L9.3612 13.4922C9.33876 13.5584 9.28736 13.596 9.22722 13.5956H9.2253V13.6276C9.27532 13.6248 9.32631 13.622 9.37716 13.622C9.43396 13.622 9.49188 13.625 9.54757 13.6276V13.5956H9.53842C9.49076 13.5952 9.42396 13.5896 9.42204 13.536C9.4223 13.5054 9.44018 13.4666 9.45447 13.4153L9.46099 13.4173L9.45447 13.4151L9.50298 13.2522H9.84507L9.90409 13.4332C9.92002 13.4821 9.93387 13.5225 9.93387 13.5449C9.93138 13.5914 9.86943 13.5949 9.83648 13.5956H9.82652V13.6275H9.82666ZM10.2426 13.641C10.1765 13.6382 10.1106 13.635 10.0407 13.635C9.96867 13.635 9.89595 13.6382 9.8207 13.641L9.81393 13.6416V13.6349V13.5821H9.8207H9.83663C9.87069 13.5821 9.92072 13.5741 9.92072 13.5451C9.92128 13.528 9.90824 13.4859 9.89176 13.4376L9.83633 13.2653H9.51265L9.46692 13.4192C9.45236 13.4709 9.43448 13.5114 9.43477 13.536C9.43533 13.5731 9.49021 13.582 9.53868 13.582H9.56112V13.589V13.6415L9.5546 13.6409C9.49584 13.638 9.43614 13.6349 9.37738 13.6349C9.32487 13.6349 9.27206 13.638 9.21956 13.6409L9.21289 13.6416V13.6349V13.5821H9.21911H9.22755C9.28269 13.5819 9.32802 13.5498 9.34935 13.4882L9.58393 12.79C9.60319 12.7335 9.62966 12.6577 9.6424 12.5972C9.68839 12.5809 9.74716 12.5503 9.77556 12.5321C9.7796 12.5303 9.78375 12.5284 9.78997 12.5284C9.79345 12.5281 9.80104 12.5294 9.80589 12.5373C9.81019 12.5499 9.81474 12.5634 9.81918 12.5758L10.0892 13.3713C10.1066 13.4247 10.1239 13.4809 10.1432 13.5259C10.1605 13.5664 10.1872 13.5822 10.2343 13.5825H10.2491V13.5895V13.642L10.2426 13.641Z" fill="#FFFBF9"/>
<path d="M10.3076 12.6489C10.1978 12.6489 10.1932 12.6762 10.1713 12.7873H10.127C10.1326 12.7446 10.1402 12.7022 10.1448 12.6579C10.1508 12.6153 10.1537 12.5727 10.1537 12.5289H10.1889C10.2005 12.5746 10.2374 12.5729 10.2766 12.5729H11.0338C11.073 12.5729 11.1099 12.5716 11.1128 12.5259L11.148 12.5321C11.1423 12.5729 11.1366 12.614 11.1321 12.6552C11.1289 12.6962 11.1289 12.7373 11.1289 12.7784L11.085 12.795C11.082 12.7389 11.075 12.6488 10.9765 12.6488H10.7358V13.458C10.7358 13.5752 10.7872 13.5889 10.8576 13.5889H10.8854V13.6346C10.8283 13.6346 10.7255 13.6285 10.6461 13.6285C10.5584 13.6285 10.4556 13.6346 10.3985 13.6346V13.5889H10.4261C10.507 13.5889 10.5482 13.5813 10.5482 13.4612V12.6488H10.3076V12.6489Z" fill="#FFFBF9"/>
<path d="M10.885 13.6407C10.8274 13.6407 10.7248 13.6347 10.6457 13.6347C10.5583 13.6347 10.4555 13.6407 10.3981 13.6407H10.3918V13.6345V13.5824H10.3983H10.4259C10.5068 13.5801 10.5392 13.5793 10.5411 13.4611V12.6554H10.3073V12.6487V12.6419H10.554V13.4611C10.554 13.5833 10.5064 13.595 10.4257 13.5955H10.4041V13.6281C10.4623 13.6273 10.5608 13.6217 10.6457 13.6217C10.7227 13.6217 10.8206 13.6273 10.8788 13.6281L10.8785 13.5955H10.8572C10.7866 13.595 10.7292 13.5777 10.7292 13.458V12.6419H10.976C11.0745 12.6422 11.0875 12.7289 11.0901 12.7856L11.122 12.7736C11.122 12.7342 11.122 12.6941 11.1249 12.6543C11.1292 12.615 11.1346 12.576 11.1401 12.5373L11.1179 12.5334C11.1111 12.5776 11.0694 12.58 11.0332 12.5793H10.276H10.2687C10.234 12.5796 10.1966 12.5777 10.1835 12.5349H10.1596C10.1591 12.5771 10.1561 12.6178 10.1505 12.6585C10.1467 12.7003 10.1394 12.7408 10.134 12.7806H10.1654C10.1847 12.6749 10.1973 12.6401 10.3072 12.642V12.6487V12.6555C10.1984 12.6574 10.2008 12.6764 10.1768 12.7888L10.1757 12.7938H10.1708H10.1191L10.12 12.7863C10.1262 12.7435 10.1332 12.7009 10.1378 12.657C10.1438 12.6145 10.1467 12.5722 10.1467 12.5286V12.5216H10.1532H10.193L10.1943 12.5265C10.2043 12.5653 10.2312 12.5653 10.2687 12.5659C10.2715 12.5659 10.2736 12.5659 10.2761 12.5659H11.0333C11.0736 12.5652 11.1034 12.5646 11.106 12.5251V12.5176L11.1131 12.5192L11.1548 12.5259L11.1537 12.5327C11.1475 12.5732 11.1421 12.6143 11.1375 12.6554C11.1347 12.6957 11.1347 12.7369 11.1347 12.7781V12.7825L11.1304 12.7845L11.0784 12.8042L11.0782 12.7951C11.0744 12.7382 11.0688 12.6555 10.9759 12.6555H10.7421V13.458C10.7432 13.5729 10.7869 13.5808 10.8571 13.5824H10.8912V13.5889V13.6407H10.8851L10.885 13.6407Z" fill="#FFFBF9"/>
<path d="M11.2013 13.5891H11.2215C11.2746 13.5891 11.33 13.5815 11.33 13.5023V12.7052C11.33 12.6261 11.2746 12.6185 11.2215 12.6185H11.2013V12.5728C11.2587 12.5728 11.3464 12.5789 11.4183 12.5789C11.4919 12.5789 11.5796 12.5728 11.6489 12.5728V12.6185H11.6283C11.5753 12.6185 11.5196 12.6262 11.5196 12.7052V13.5023C11.5196 13.5815 11.5753 13.5891 11.6283 13.5891H11.6489V13.6348C11.5782 13.6348 11.4902 13.6286 11.4169 13.6286C11.3448 13.6286 11.2585 13.6348 11.2012 13.6348V13.5891H11.2013Z" fill="#FFFBF9"/>
<path d="M11.643 13.6276V13.5953H11.6288C11.5763 13.5953 11.5138 13.5858 11.5138 13.5021V12.705C11.5138 12.6211 11.5763 12.6119 11.6288 12.6119H11.643V12.5791C11.5751 12.5794 11.4903 12.585 11.4189 12.585C11.3491 12.585 11.2653 12.5794 11.2083 12.5791V12.6119H11.2222C11.2747 12.6119 11.3369 12.6211 11.3372 12.705V13.5021C11.3369 13.5858 11.2747 13.5953 11.2222 13.5953H11.2083V13.6276C11.2649 13.6269 11.3477 13.6216 11.4175 13.6216C11.4885 13.6216 11.5737 13.6272 11.643 13.6276ZM11.6492 13.6407C11.5786 13.6407 11.4906 13.6347 11.4176 13.6347C11.3458 13.6347 11.2592 13.6407 11.2018 13.6407H11.1953V13.6346V13.5889V13.5824H11.2018H11.222C11.2751 13.5813 11.3237 13.5765 11.324 13.5021V12.705C11.3238 12.6309 11.275 12.6258 11.222 12.6248H11.1953V12.6181V12.5659H11.2018C11.2592 12.5659 11.3472 12.5719 11.4188 12.5719C11.4918 12.5719 11.5798 12.5659 11.6491 12.5659H11.6553V12.5727V12.6248H11.6491H11.6289C11.575 12.6258 11.5269 12.6309 11.5264 12.705V13.5021C11.5269 13.5765 11.5751 13.5813 11.6289 13.5824H11.6554V13.5889V13.6407H11.6492Z" fill="#FFFBF9"/>
<path d="M12.2569 13.5904C12.5416 13.5904 12.5911 13.3299 12.5911 13.1082C12.5911 12.8858 12.4755 12.6166 12.2319 12.6166C11.975 12.6166 11.8988 12.8543 11.8988 13.0577C11.8988 13.33 12.0193 13.5904 12.2569 13.5904ZM12.2343 12.5498C12.5474 12.5498 12.7967 12.7507 12.7967 13.0748C12.7967 13.4244 12.5545 13.6571 12.2422 13.6571C11.931 13.6571 11.6934 13.4384 11.6934 13.111C11.6934 12.7948 11.9296 12.5498 12.2343 12.5498Z" fill="#FFFBF9"/>
<path d="M11.891 13.0577C11.8916 12.8528 11.9688 12.6101 12.2306 12.6101C12.4796 12.6103 12.5957 12.8842 12.5963 13.1081C12.5957 13.3299 12.5455 13.5965 12.2556 13.5965V13.5903V13.5835C12.5344 13.5831 12.583 13.3298 12.5833 13.1079C12.5833 12.8875 12.4688 12.6237 12.2306 12.6231C11.979 12.6234 11.9043 12.8549 11.9041 13.0575C11.9041 13.3285 12.0234 13.5828 12.2556 13.5834V13.5901V13.5965C12.012 13.5964 11.8916 13.3314 11.891 13.0577ZM11.6855 13.111C11.6864 12.791 11.9248 12.5435 12.233 12.543V12.5497V12.5562C11.9315 12.5562 11.6983 12.7981 11.698 13.111C11.6988 13.4343 11.9329 13.6501 12.2409 13.6502C12.5499 13.6501 12.7886 13.4208 12.7892 13.0742C12.7889 12.7542 12.5435 12.5566 12.233 12.5562V12.5497V12.543C12.5482 12.5432 12.801 12.7463 12.8013 13.0742C12.8011 13.4278 12.5561 13.663 12.2408 13.6634C11.9271 13.663 11.6864 13.4418 11.6855 13.111Z" fill="#FFFBF9"/>
<path d="M13.7841 13.3346L13.7873 13.3316V12.7611C13.7873 12.6365 13.7034 12.6182 13.6592 12.6182H13.6274V12.5725C13.6961 12.5725 13.7637 12.5786 13.8324 12.5786C13.8931 12.5786 13.9531 12.5725 14.0133 12.5725V12.6182H13.9911C13.9297 12.6182 13.8607 12.6305 13.8607 12.8114V13.5034C13.8607 13.5567 13.8621 13.61 13.8695 13.657H13.8138L13.0583 12.7838V13.4107C13.0583 13.5429 13.0829 13.5886 13.1963 13.5886H13.2213V13.6343C13.1579 13.6343 13.0949 13.6281 13.0321 13.6281C12.966 13.6281 12.8984 13.6343 12.8322 13.6343V13.5886H12.853C12.9544 13.5886 12.985 13.5171 12.985 13.3955V12.7548C12.985 12.6698 12.9176 12.618 12.8513 12.618H12.832V12.5723C12.888 12.5723 12.9451 12.5784 13.0009 12.5784C13.045 12.5784 13.0875 12.5723 13.1313 12.5723L13.7841 13.3346Z" fill="#FFFBF9"/>
<path d="M13.781 13.3316V13.3312L13.7799 13.3301L13.781 13.3316ZM13.7842 13.3347L13.789 13.3301L13.7842 13.3347ZM13.814 13.6503H13.8619C13.8557 13.6048 13.8543 13.5541 13.8543 13.5035V12.8115C13.8543 12.6286 13.9284 12.6122 13.9912 12.6119H14.0069V12.5792C13.949 12.5794 13.8913 12.585 13.8326 12.585C13.7658 12.585 13.7003 12.5794 13.6336 12.5792V12.6119H13.6596C13.7048 12.6122 13.7936 12.6328 13.7936 12.7615L13.792 13.3363L13.789 13.3393L13.7842 13.3443L13.1314 12.5792C13.088 12.5792 13.0454 12.585 13.001 12.585C12.9469 12.585 12.892 12.5794 12.8384 12.5792V12.6119H12.8514C12.9204 12.6122 12.9913 12.6658 12.9913 12.755V13.3958C12.9913 13.5176 12.9586 13.5951 12.8531 13.5958L12.8385 13.5955V13.6279C12.9024 13.6274 12.9676 13.6218 13.0322 13.6218C13.093 13.6218 13.154 13.6274 13.2148 13.6279V13.5958H13.1958C13.0808 13.5956 13.0519 13.5433 13.0519 13.4111V12.7672L13.814 13.6503ZM13.8697 13.6636L13.8088 13.6614L13.0646 12.801V13.4108C13.0666 13.543 13.086 13.5805 13.1958 13.5817H13.2276V13.5887V13.6406H13.2214C13.1578 13.6406 13.0947 13.6346 13.0322 13.6346C12.9661 13.6346 12.899 13.6406 12.8323 13.6406H12.8262V13.6341V13.5817H12.8321H12.8529C12.9495 13.5814 12.9773 13.5169 12.9784 13.3956V12.7549C12.9784 12.6739 12.9143 12.6248 12.8512 12.6248H12.8262V12.6181V12.5659H12.8321C12.8884 12.5659 12.9457 12.5719 13.001 12.5719C13.0445 12.5719 13.0865 12.5659 13.1367 12.5681L13.781 13.321V12.7613C13.7807 12.6403 13.7025 12.6258 13.6597 12.6248H13.6211V12.6181V12.5659H13.6276C13.6966 12.5659 13.7642 12.5719 13.8326 12.5719C13.8925 12.5719 13.9525 12.5659 14.0132 12.5659H14.0197V12.5727V12.6248H14.0132H13.9913C13.9309 12.6267 13.8687 12.632 13.8672 12.8113V13.5033C13.8672 13.5565 13.8685 13.6097 13.8756 13.6562L13.8767 13.6634H13.8696V13.6636H13.8697Z" fill="#FFFBF9"/>
<path d="M14.4638 12.7429H14.4609L14.3245 13.1735H14.5989L14.4638 12.7429ZM14.2494 13.4169C14.235 13.4685 14.2173 13.5085 14.2173 13.5353C14.2173 13.581 14.2789 13.5886 14.3272 13.5886H14.3434V13.6343C14.2846 13.631 14.2246 13.6282 14.1659 13.6282C14.1131 13.6282 14.0603 13.631 14.0078 13.6343V13.5886H14.0163C14.0736 13.5886 14.1221 13.5534 14.1437 13.4896L14.3786 12.7919C14.3978 12.7353 14.4243 12.6592 14.433 12.6032C14.4801 12.5863 14.5386 12.5561 14.5667 12.5377C14.5708 12.5361 14.5738 12.5347 14.5781 12.5347C14.5827 12.5347 14.5854 12.5347 14.5884 12.5393C14.5932 12.5516 14.5973 12.5654 14.602 12.5772L14.8715 13.3728C14.8891 13.426 14.9066 13.4823 14.9259 13.5283C14.9435 13.5707 14.9744 13.5889 15.0228 13.5889H15.0315V13.6346C14.9657 13.6313 14.8998 13.6285 14.8294 13.6285C14.7573 13.6285 14.6841 13.6313 14.6091 13.6346V13.5889H14.6253C14.6588 13.5889 14.7165 13.5828 14.7165 13.5448C14.7165 13.5249 14.7029 13.4838 14.6867 13.4352L14.6299 13.2586H14.2968L14.2494 13.4169Z" fill="#FFFBF9"/>
<path d="M14.4566 12.745L14.4595 12.7438L14.4566 12.745ZM14.3322 13.1668H14.5885L14.461 12.7596L14.3322 13.1668ZM14.3143 13.1801L14.4551 12.7362H14.4596H14.4625V12.743L14.4609 12.7436L14.4625 12.743V12.7362H14.4671L14.6059 13.1801H14.3143ZM14.6141 13.6275C14.6866 13.6245 14.7581 13.6216 14.8279 13.6216C14.8961 13.6216 14.96 13.6247 15.0238 13.6272L15.0236 13.5953H15.0211C14.9714 13.5956 14.9367 13.5749 14.9186 13.5304C14.8993 13.4844 14.8817 13.4279 14.8644 13.3749L14.5943 12.5791C14.5898 12.5671 14.5855 12.5536 14.5819 12.5428C14.5807 12.5409 14.5807 12.5409 14.5796 12.5409H14.5767C14.5735 12.5409 14.5724 12.5422 14.5685 12.543C14.5398 12.5616 14.4811 12.5923 14.4378 12.604C14.4287 12.6615 14.4021 12.7373 14.3831 12.794L14.1483 13.4919C14.1258 13.5581 14.0747 13.5956 14.0148 13.5953H14.0126V13.6272C14.0629 13.6245 14.1136 13.6216 14.1645 13.6216C14.2213 13.6216 14.2792 13.6247 14.3358 13.6272V13.5953H14.3258C14.2781 13.5949 14.2113 13.5896 14.2094 13.5354C14.2097 13.5051 14.2281 13.4666 14.2421 13.415L14.2481 13.417L14.2421 13.4148L14.2906 13.2519H14.6324L14.6912 13.433C14.7074 13.4818 14.7207 13.5222 14.7207 13.5446C14.7188 13.5911 14.6571 13.5946 14.6239 13.5953H14.6142L14.6141 13.6275ZM15.0298 13.6408C14.9634 13.6383 14.8978 13.6347 14.8279 13.6347C14.7562 13.6347 14.6826 13.6383 14.6079 13.6408L14.6014 13.6413V13.6343V13.5824H14.6076H14.6238C14.6579 13.5824 14.7082 13.5738 14.7085 13.5448C14.7087 13.5277 14.6954 13.4859 14.6789 13.4373L14.6233 13.265H14.2996L14.2544 13.4189C14.2398 13.4709 14.222 13.5111 14.2223 13.5356C14.2223 13.5729 14.2771 13.5824 14.3259 13.5824H14.3483V13.5889V13.6413L14.3418 13.6408C14.2831 13.6383 14.2231 13.6347 14.1646 13.6347C14.1121 13.6347 14.0593 13.6383 14.0065 13.6408L14 13.6413V13.6343V13.5824H14.0065H14.015C14.0694 13.5818 14.1151 13.5494 14.1368 13.4879L14.3713 12.7897C14.3903 12.7333 14.4168 12.6574 14.4295 12.5969C14.4758 12.5804 14.5346 12.55 14.5633 12.5318C14.5667 12.5301 14.5712 12.5285 14.5769 12.5285C14.5809 12.5278 14.5885 12.5291 14.5931 12.5373C14.5974 12.5493 14.6018 12.5631 14.6067 12.5755L14.8764 13.3709C14.8938 13.4244 14.9113 13.4806 14.9306 13.5257C14.9476 13.5661 14.9741 13.5819 15.0212 13.5826H15.0366V13.5891V13.6415L15.0298 13.6408Z" fill="#FFFBF9"/>
<path d="M15.4006 13.4853C15.4006 13.5465 15.4411 13.5646 15.4883 13.5707C15.5484 13.5751 15.6144 13.5751 15.6817 13.5677C15.7434 13.5599 15.7962 13.5234 15.8228 13.4853C15.8461 13.4518 15.8594 13.4093 15.868 13.3758H15.9108C15.8948 13.4626 15.8742 13.5478 15.8563 13.6346C15.7274 13.6346 15.5982 13.6285 15.4693 13.6285C15.3399 13.6285 15.2112 13.6346 15.082 13.6346V13.5889H15.1022C15.1551 13.5889 15.2124 13.5813 15.2124 13.4871V12.7052C15.2124 12.6261 15.1551 12.6185 15.1022 12.6185H15.082V12.5728C15.1595 12.5728 15.236 12.5789 15.3137 12.5789C15.3886 12.5789 15.4617 12.5728 15.5366 12.5728V12.6185H15.4998C15.4441 12.6185 15.4005 12.6203 15.4005 12.7005V13.4854L15.4006 13.4853Z" fill="#FFFBF9"/>
<path d="M15.8518 13.6275C15.8686 13.5452 15.8879 13.4644 15.9038 13.3821H15.8737C15.8646 13.415 15.8515 13.4562 15.828 13.4891C15.801 13.5285 15.7465 13.5659 15.6829 13.574C15.6445 13.5779 15.6066 13.5801 15.5703 13.5801C15.5419 13.5801 15.5146 13.5788 15.4879 13.5769C15.44 13.5716 15.394 13.5502 15.394 13.4851V12.7001C15.394 12.6156 15.4457 12.6118 15.5004 12.6118H15.5305V12.579C15.4584 12.5793 15.3874 12.5852 15.3142 12.5852C15.2381 12.5852 15.1637 12.5793 15.0888 12.579V12.6118H15.1029C15.1552 12.6118 15.2193 12.6209 15.2193 12.7047V13.4867C15.2193 13.5853 15.1554 13.5952 15.1029 13.5952H15.0888V13.6275C15.2154 13.6274 15.3423 13.6215 15.4698 13.6215C15.5973 13.6215 15.7249 13.6273 15.8518 13.6275ZM15.857 13.6406C15.7275 13.6406 15.5988 13.6346 15.4699 13.6346C15.3408 13.6346 15.2118 13.6406 15.0821 13.6406H15.0762V13.6341V13.5823H15.0821H15.1029C15.1557 13.5807 15.206 13.577 15.2068 13.4868V12.7049C15.206 12.6309 15.1562 12.6258 15.1029 12.6248H15.0762V12.6181V12.5659H15.0821C15.1603 12.5659 15.2366 12.5719 15.3143 12.5719C15.3887 12.5719 15.4618 12.5659 15.5373 12.5659H15.5433V12.5727V12.6248H15.5373H15.5005C15.4437 12.6261 15.4082 12.6238 15.4071 12.7001V13.4851C15.4076 13.5419 15.4431 13.5572 15.4891 13.564C15.5149 13.566 15.5422 13.567 15.5703 13.567C15.6063 13.567 15.6436 13.5651 15.6816 13.561C15.7412 13.5535 15.7929 13.518 15.8182 13.4815C15.8406 13.4492 15.8534 13.4071 15.8622 13.3742L15.8636 13.369H15.8685H15.9188L15.9176 13.3772C15.9009 13.4641 15.8808 13.5492 15.8629 13.6357L15.8615 13.6407H15.857V13.6406Z" fill="#FFFBF9"/>
<path d="M15.8681 12.6898H15.8866C15.9064 12.6898 15.9158 12.6744 15.9158 12.6491C15.9158 12.6235 15.9013 12.6146 15.8855 12.6146H15.8682V12.6898H15.8681ZM15.8162 12.7743V12.7665C15.8352 12.7636 15.8386 12.7644 15.8386 12.752V12.6334C15.8386 12.617 15.837 12.6112 15.8167 12.6122V12.6041H15.896C15.923 12.6041 15.9479 12.6172 15.9479 12.6463C15.9479 12.6702 15.9328 12.6877 15.9114 12.6946L15.9368 12.7316C15.9488 12.7478 15.9621 12.7637 15.9709 12.7692V12.7742H15.9406C15.9262 12.7742 15.9135 12.7428 15.8851 12.7006H15.8681V12.7537C15.8681 12.7643 15.8716 12.7636 15.8908 12.7665V12.7742L15.8162 12.7743ZM15.8931 12.8197C15.9621 12.8197 16.0152 12.7587 16.0152 12.6898C16.0152 12.621 15.9629 12.5592 15.8931 12.5592C15.8235 12.5592 15.7705 12.6211 15.7705 12.6898C15.7705 12.7587 15.8235 12.8197 15.8931 12.8197ZM15.8931 12.5293C15.9813 12.5293 16.0476 12.6 16.0476 12.6898C16.0476 12.7798 15.9812 12.8495 15.8931 12.8495C15.8049 12.8495 15.7383 12.7798 15.7383 12.6898C15.7382 12.6 15.8048 12.5293 15.8931 12.5293Z" fill="#FFFBF9"/>
</g>
<defs>
<clipPath id="clip0">
<rect x="0.800781" y="0.850098" width="17.55" height="18.2" fill="white"/>
</clipPath>
</defs>
</svg>
