<svg width="23" height="21" viewBox="0 0 23 21" fill="none" xmlns="http://www.w3.org/2000/svg">
<g clip-path="url(#clip0)">
<path d="M21.684 13.9563C21.6658 13.9237 21.6397 13.8992 21.6056 13.8816C21.5728 13.864 21.5391 13.855 21.5042 13.855C21.4687 13.855 21.4351 13.864 21.4023 13.8816C21.3695 13.8992 21.3425 13.9237 21.3243 13.9563C21.3062 13.9877 21.2969 14.0212 21.2969 14.056C21.2969 14.0908 21.3062 14.1243 21.3243 14.1556C21.3434 14.1874 21.3691 14.2132 21.4014 14.2308C21.4342 14.2484 21.4687 14.2574 21.505 14.2574C21.54 14.2574 21.5746 14.2484 21.6074 14.2308C21.6397 14.2132 21.6654 14.1874 21.684 14.1556C21.7021 14.1243 21.7114 14.0903 21.7114 14.056C21.7114 14.0212 21.7026 13.9877 21.684 13.9563ZM21.575 14.1307H21.5298L21.5024 14.0646H21.4754V14.1307H21.439V13.9624H21.5117C21.5205 13.9624 21.5387 13.9628 21.5569 13.9718C21.5662 13.9804 21.575 13.9971 21.575 14.0139C21.575 14.0324 21.5662 14.05 21.548 14.0577L21.575 14.1307Z" fill="#B9B9B8"/>
<path d="M21.5229 13.9967C21.5229 13.9932 21.5045 13.9932 21.495 13.9932H21.4766V14.0373H21.5045C21.5045 14.0373 21.5139 14.0373 21.5229 14.0338C21.5324 14.0298 21.5324 14.0215 21.5324 14.0137C21.5324 14.0071 21.5324 14.0002 21.5229 13.9967Z" fill="#B9B9B8"/>
<path d="M15.7293 4.37305C14.0715 4.37348 12.5612 4.98292 11.4229 5.98276C10.2837 4.98335 8.7743 4.37434 7.11872 4.37434C7.10499 4.37434 7.09126 4.37434 7.07753 4.37434C3.55287 4.39667 0.699219 7.17716 0.699219 10.5997C0.699219 14.0365 3.57546 16.8247 7.11872 16.8247C8.7743 16.8247 10.2833 16.2157 11.4224 15.2163C11.1846 15.008 10.9694 14.7773 10.7661 14.536H12.0921C11.8919 14.7739 11.6736 14.9964 11.4402 15.2025H11.4388C11.4393 15.2034 11.4393 15.2034 11.4393 15.2034C11.434 15.2081 11.4282 15.2116 11.4229 15.2167C12.5616 16.2178 14.0737 16.8273 15.7319 16.8268C19.2779 16.826 22.1501 14.0378 22.1492 10.6002C22.1492 10.5989 22.1492 10.598 22.1492 10.5972C22.1483 7.15955 19.2734 4.37305 15.7293 4.37305ZM10.8391 6.62613H12.0589C12.2396 6.83701 12.4066 7.05991 12.5572 7.29269H10.3812C10.5202 7.06979 10.6744 6.84173 10.8391 6.62613ZM10.0012 7.9468H12.9266C13.0315 8.16283 13.1237 8.3853 13.2034 8.61379H9.65436C9.68935 8.54937 9.81337 8.28996 10.0012 7.9468ZM6.76616 12.0926H6.00436L6.4579 9.78629L5.41485 12.0926H4.72569L4.59857 9.80175L4.14504 12.0926H3.45543L4.04538 9.09396H5.2337L5.28818 10.9511L6.13192 9.09396H7.36586L6.76616 12.0926ZM9.46081 10.7969L9.29738 11.6631L9.27036 11.8182L9.2522 11.9419L9.2429 12.0252L9.23404 12.0913H8.59936L8.61752 11.8392C8.42751 12.0402 8.16398 12.1334 7.8194 12.1334C7.41104 12.1334 7.12979 11.8616 7.12979 11.4682C7.12979 10.8746 7.61965 10.5276 8.46294 10.5276C8.54444 10.5276 8.65339 10.5349 8.7712 10.5465C8.78936 10.4662 8.79867 10.4327 8.79867 10.388C8.79867 10.2269 8.66225 10.1668 8.30881 10.1668C8.0909 10.1668 7.84597 10.1922 7.68298 10.2342L7.57403 10.2609L7.51069 10.2768L7.61034 9.72745C7.99124 9.63382 8.23617 9.59903 8.51742 9.59903C9.17026 9.59903 9.51529 9.84684 9.51529 10.3141C9.51529 10.4352 9.50643 10.5259 9.46081 10.7969ZM10.9764 9.59345C11.6018 9.59345 12.0013 9.93833 12.0013 10.479C12.0013 10.6599 11.9739 10.8347 11.9096 11.082H10.4046C10.3953 11.1194 10.3953 11.1362 10.3953 11.1594C10.3953 11.4415 10.6221 11.5854 11.0575 11.5854C11.3299 11.5854 11.5748 11.5382 11.8468 11.4308L11.7201 12.0415C11.4659 12.1077 11.2121 12.1399 10.949 12.1399C10.0964 12.1399 9.6517 11.7649 9.6517 11.0464C9.6517 10.2102 10.2142 9.59431 10.9764 9.59345ZM12.5651 13.8956H10.2873C10.1491 13.6809 10.0193 13.4605 9.90815 13.229H12.939C12.8278 13.4597 12.7033 13.6813 12.5651 13.8956ZM13.9607 10.2136C13.761 10.1913 13.5617 10.178 13.4071 10.178C13.1617 10.178 13.0351 10.245 13.0351 10.376C13.0351 10.4902 13.0714 10.5177 13.389 10.6414C13.7783 10.7896 13.9333 10.9858 13.9333 11.3204C13.9333 11.877 13.5612 12.1343 12.7445 12.1343C12.6453 12.1343 12.5093 12.127 12.3277 12.1141C12.237 12.1077 12.1648 12.1008 12.1187 12.0918L11.9827 12.0677L11.9464 12.0608L12.0554 11.4982C12.3003 11.5652 12.5098 11.5944 12.745 11.5944C13.0444 11.5944 13.1803 11.5266 13.1803 11.3745C13.1803 11.2629 13.1347 11.2268 12.8265 11.1052C12.4185 10.9459 12.237 10.7329 12.237 10.4254C12.237 9.97483 12.5364 9.59989 13.3894 9.59989C13.571 9.59989 13.8704 9.62136 14.0693 9.64799L13.9607 10.2136ZM15.15 11.5468C15.231 11.5468 15.2943 11.539 15.3488 11.5231L15.2492 12.0643C15.0406 12.1197 14.8776 12.1442 14.7048 12.1442C14.3146 12.1442 14.106 11.9539 14.106 11.6082C14.106 11.5394 14.1149 11.4664 14.1242 11.3891L14.1698 11.149L14.2057 10.9562L14.5596 9.09396H15.3121L15.2035 9.65401H15.5933L15.4844 10.2476H15.0941L14.8948 11.265C14.8855 11.3092 14.8855 11.3427 14.8855 11.3655C14.8855 11.4922 14.9675 11.5459 15.15 11.5468ZM17.0053 10.3403C16.6426 10.3403 16.5252 10.6023 16.2528 12.0939H15.4906L15.9534 9.65444H16.643L16.5704 10.0247C16.8064 9.73647 16.9871 9.62824 17.2325 9.62824C17.26 9.62824 17.2874 9.63081 17.3144 9.63425C17.3144 9.63554 17.3423 9.64026 17.3791 9.64885C17.388 9.65143 17.3968 9.65143 17.4606 9.67548L17.1895 10.3648L17.0987 10.3468C17.0624 10.3425 17.0354 10.3403 17.0053 10.3403ZM18.3513 12.1579C17.4876 12.1579 17.1439 11.652 17.1439 11.0331C17.1439 10.1694 17.7334 9.58314 18.6405 9.58314C19.4307 9.58314 19.8479 10.065 19.8479 10.6835C19.8479 10.8351 19.8479 10.8454 19.8297 10.9871C19.7115 11.7984 19.1308 12.1588 18.3513 12.1579ZM19.9112 12.0926C19.8023 12.0926 19.7115 12.0072 19.7115 11.9015C19.7115 11.7976 19.8023 11.7121 19.9112 11.7121C20.0202 11.7121 20.111 11.7976 20.111 11.9015C20.111 12.0076 20.0202 12.0926 19.9112 12.0926Z" fill="#B9B9B8"/>
<path d="M19.9119 11.7573C19.8304 11.7573 19.7578 11.8222 19.7578 11.9016C19.7578 11.9832 19.8304 12.0477 19.9119 12.0477C19.9939 12.0477 20.0572 11.9824 20.0572 11.9016C20.0572 11.8226 19.9939 11.7573 19.9119 11.7573ZM19.9841 11.9867H19.9385L19.9111 11.921H19.8836V11.9867H19.8473V11.8179H19.9199C19.9297 11.8179 19.9478 11.8187 19.966 11.8278C19.9748 11.8359 19.9841 11.8527 19.9841 11.8698C19.9841 11.8879 19.9748 11.9059 19.9567 11.9137L19.9841 11.9867Z" fill="#B9B9B8"/>
<path d="M19.9292 11.8521C19.9296 11.8481 19.9112 11.8481 19.9022 11.8481H19.8828V11.8922H19.9107C19.9107 11.8922 19.9202 11.8922 19.9292 11.8888C19.9387 11.8848 19.9387 11.8765 19.9387 11.8691C19.9387 11.8626 19.9387 11.8556 19.9292 11.8521Z" fill="#B9B9B8"/>
<path d="M10.9664 10.1523C10.7215 10.1523 10.5492 10.3074 10.4766 10.59L11.3203 10.5917C11.3203 10.5385 11.3203 10.4972 11.3203 10.4654C11.3203 10.2674 11.1932 10.1523 10.9664 10.1523Z" fill="#B9B9B8"/>
<path d="M8.50878 10.9971C8.08315 10.9966 7.86523 11.1216 7.86523 11.3681C7.86523 11.5198 7.96533 11.6168 8.13718 11.6168C8.44589 11.6168 8.66335 11.3669 8.68151 11.0061C8.59957 10.9979 8.56326 10.9971 8.50878 10.9971Z" fill="#B9B9B8"/>
<path d="M18.6219 10.1802C18.2317 10.1802 17.9961 10.6247 17.9961 11.0164C17.9961 11.3479 18.1591 11.5704 18.4315 11.5653C18.5953 11.5653 18.9483 11.3467 19.0121 10.9674C19.0298 10.8785 19.0391 10.781 19.0391 10.6749C19.0391 10.4207 18.9306 10.1793 18.6219 10.1802Z" fill="#B9B9B8"/>
</g>
<defs>
<clipPath id="clip0">
<rect x="0.699219" y="0.200195" width="21.45" height="20.8" fill="white"/>
</clipPath>
</defs>
</svg>
