<svg width="23" height="23" viewBox="0 0 23 23" fill="none" xmlns="http://www.w3.org/2000/svg">
<g clip-path="url(#clip0)">
<path d="M22.2001 11.2501C22.2001 14.8984 19.3401 17.8801 15.7651 17.8801C12.2241 17.8801 9.33008 14.8984 9.33008 11.2501C9.33008 7.60186 12.1901 4.62012 15.731 4.62012C19.3401 4.62012 22.2001 7.60186 22.2001 11.2501Z" fill="#B9B9B8"/>
<path d="M15.7651 4.62012C19.306 4.62012 22.2001 7.60186 22.2001 11.2501C22.2001 14.8984 19.3401 17.8801 15.7651 17.8801C12.2241 17.8801 9.33008 14.8984 9.33008 11.2501" fill="#B9B9B8"/>
<path d="M15.7656 4.62012C19.3066 4.62012 22.2006 7.60186 22.2006 11.2501C22.2006 14.8984 19.3406 17.8801 15.7656 17.8801" fill="#B9B9B8"/>
<path d="M7.1169 4.62012C3.61 4.6552 0.75 7.60186 0.75 11.2501C0.75 14.8984 3.61 17.8801 7.185 17.8801C8.85333 17.8801 10.3514 17.2136 11.509 16.1612C11.7474 15.9508 11.9517 15.7052 12.156 15.4596H10.8281C10.6579 15.2492 10.4876 15.0036 10.3514 14.7931H12.6326C12.7688 14.5827 12.905 14.3371 13.0071 14.0915H9.9769C9.87476 13.8811 9.77262 13.6355 9.70452 13.39H13.2455C13.4498 12.7234 13.586 12.0219 13.586 11.2852C13.586 10.7941 13.5179 10.3381 13.4498 9.88202H9.50024C9.53429 9.63647 9.60238 9.42599 9.67048 9.18043H13.2114C13.1433 8.93488 13.0412 8.68932 12.939 8.47885H9.94286C10.045 8.23329 10.1812 8.02282 10.3174 7.77726H12.5986C12.4624 7.5317 12.2921 7.28615 12.0879 7.07567H10.8281C11.0324 6.83012 11.2367 6.61964 11.475 6.40916C10.3514 5.3217 8.81929 4.69028 7.15095 4.69028C7.15095 4.62012 7.15095 4.62012 7.1169 4.62012Z" fill="#B9B9B8"/>
<path d="M0.75 11.2503C0.75 14.8985 3.61 17.8803 7.185 17.8803C8.85333 17.8803 10.3514 17.2138 11.509 16.1614C11.7474 15.9509 11.9517 15.7053 12.156 15.4598H10.8281C10.6579 15.2493 10.4876 15.0038 10.3514 14.7933H12.6326C12.7688 14.5828 12.905 14.3373 13.0071 14.0917H9.9769C9.87476 13.8812 9.77262 13.6357 9.70452 13.3901H13.2455C13.4498 12.7236 13.586 12.022 13.586 11.2853C13.586 10.7942 13.5179 10.3382 13.4498 9.88217H9.50024C9.53429 9.63662 9.60238 9.42614 9.67048 9.18059H13.2114C13.1433 8.93503 13.0412 8.68948 12.939 8.479H9.94286C10.045 8.23344 10.1812 8.02297 10.3174 7.77741H12.5986C12.4624 7.53186 12.2921 7.2863 12.0879 7.07583H10.8281C11.0324 6.83027 11.2367 6.61979 11.475 6.40932C10.3514 5.32186 8.81929 4.69043 7.15095 4.69043H7.1169" fill="#B9B9B8"/>
<path d="M7.18528 17.8803C8.85362 17.8803 10.3517 17.2138 11.5093 16.1614C11.7477 15.9509 11.9519 15.7053 12.1562 15.4598H10.8284C10.6581 15.2493 10.4879 15.0038 10.3517 14.7933H12.6329C12.7691 14.5828 12.9053 14.3373 13.0074 14.0917H9.97719C9.87504 13.8812 9.7729 13.6357 9.70481 13.3901H13.2458C13.45 12.7236 13.5862 12.022 13.5862 11.2853C13.5862 10.7942 13.5181 10.3382 13.45 9.88217H9.50052C9.53457 9.63662 9.60266 9.42614 9.67076 9.18059H13.2117C13.1436 8.93503 13.0415 8.68948 12.9393 8.479H9.94314C10.0453 8.23344 10.1815 8.02297 10.3177 7.77741H12.5989C12.4627 7.53186 12.2924 7.2863 12.0881 7.07583H10.8284C11.0327 6.83027 11.2369 6.61979 11.4753 6.40932C10.3517 5.32186 8.81957 4.69043 7.15123 4.69043H7.11719" fill="#B9B9B8"/>
<path d="M9.4659 12.9342L9.56804 12.3378C9.53399 12.3378 9.4659 12.3729 9.3978 12.3729C9.15947 12.3729 9.12542 12.2326 9.15947 12.1624L9.36375 10.9346H9.73828L9.84042 10.2681H9.49995L9.56804 9.84717H8.88709C8.88709 9.84717 8.47852 12.1624 8.47852 12.443C8.47852 12.864 8.71685 13.0394 9.02328 13.0394C9.22756 13.0394 9.3978 12.9692 9.4659 12.9342Z" fill="white"/>
<path d="M9.70508 11.8115C9.70508 12.7937 10.352 13.0393 10.8967 13.0393C11.4075 13.0393 11.6117 12.9341 11.6117 12.9341L11.7479 12.2676C11.7479 12.2676 11.3734 12.443 11.0329 12.443C10.2839 12.443 10.4201 11.8817 10.4201 11.8817H11.816C11.816 11.8817 11.9182 11.4257 11.9182 11.2503C11.9182 10.7942 11.6798 10.233 10.9308 10.233C10.2158 10.1628 9.70508 10.9345 9.70508 11.8115ZM10.8967 10.7942C11.2713 10.7942 11.2032 11.2503 11.2032 11.2853H10.4541C10.4541 11.2503 10.5222 10.7942 10.8967 10.7942Z" fill="white"/>
<path d="M15.2203 12.9339L15.3565 12.1622C15.3565 12.1622 15.016 12.3376 14.7777 12.3376C14.301 12.3376 14.0967 11.9517 14.0967 11.5308C14.0967 10.6889 14.5053 10.2328 14.9819 10.2328C15.3224 10.2328 15.5948 10.4433 15.5948 10.4433L15.6969 9.70665C15.6969 9.70665 15.2884 9.53125 14.9138 9.53125C14.1308 9.53125 13.3477 10.2328 13.3477 11.5659C13.3477 12.4428 13.7562 13.0392 14.5734 13.0392C14.8458 13.0392 15.2203 12.9339 15.2203 12.9339Z" fill="white"/>
<path d="M5.72154 10.1626C5.24488 10.1626 4.9044 10.3029 4.9044 10.3029L4.80226 10.8993C4.80226 10.8993 5.10869 10.7589 5.55131 10.7589C5.78964 10.7589 5.99392 10.794 5.99392 11.0045C5.99392 11.1448 5.95988 11.1799 5.95988 11.1799C5.95988 11.1799 5.75559 11.1799 5.65345 11.1799C5.07464 11.1799 4.42773 11.4255 4.42773 12.2323C4.42773 12.8637 4.83631 13.004 5.07464 13.004C5.55131 13.004 5.75559 12.6883 5.78964 12.6883L5.75559 12.9689H6.36845L6.64083 11.0396C6.64083 10.1977 5.95988 10.1626 5.72154 10.1626ZM5.85773 11.7412C5.85773 11.8464 5.78964 12.4077 5.38107 12.4077C5.17678 12.4077 5.10869 12.2323 5.10869 12.127C5.10869 11.9516 5.21083 11.7061 5.72154 11.7061C5.82369 11.7412 5.85773 11.7412 5.85773 11.7412Z" fill="white"/>
<path d="M7.287 13.004C7.45724 13.004 8.30843 13.039 8.30843 12.0919C8.30843 11.2149 7.49129 11.3903 7.49129 11.0395C7.49129 10.8641 7.62748 10.794 7.86581 10.794C7.96795 10.794 8.34248 10.829 8.34248 10.829L8.44462 10.1976C8.44462 10.1976 8.20629 10.1274 7.79772 10.1274C7.287 10.1274 6.77629 10.3379 6.77629 11.0395C6.77629 11.8463 7.62748 11.7762 7.62748 12.0919C7.62748 12.3024 7.38914 12.3374 7.21891 12.3374C6.91248 12.3374 6.60605 12.2322 6.60605 12.2322L6.50391 12.8636C6.53795 12.9338 6.70819 13.004 7.287 13.004Z" fill="white"/>
<path d="M20.8724 9.60156L20.7362 10.5487C20.7362 10.5487 20.4638 10.1979 20.0893 10.1979C19.4764 10.1979 18.9316 10.9697 18.9316 11.8817C18.9316 12.443 19.204 13.0393 19.7828 13.0393C20.1914 13.0393 20.4297 12.7587 20.4297 12.7587L20.3957 13.0043H21.0766L21.5874 9.63664L20.8724 9.60156ZM20.5659 11.4608C20.5659 11.8466 20.3957 12.3378 20.0212 12.3378C19.7828 12.3378 19.6466 12.1273 19.6466 11.7765C19.6466 11.2152 19.885 10.8644 20.1914 10.8644C20.4297 10.8644 20.5659 11.0398 20.5659 11.4608Z" fill="white"/>
<path d="M2.01019 12.9692L2.41876 10.4435L2.48685 12.9692H2.96352L3.84876 10.4435L3.47423 12.9692H4.18923L4.734 9.60156H3.61042L2.92947 11.6712L2.89542 9.60156H1.90804L1.36328 12.9692H2.01019Z" fill="white"/>
<path d="M12.5655 12.9691C12.7697 11.8115 12.8038 10.8643 13.2805 11.0397C13.3485 10.5837 13.4507 10.4083 13.5188 10.2329C13.5188 10.2329 13.4847 10.2329 13.3826 10.2329C13.0762 10.2329 12.8378 10.6539 12.8378 10.6539L12.9059 10.268H12.259L11.8164 13.0042H12.5655V12.9691Z" fill="white"/>
<path d="M16.786 10.1626C16.3093 10.1626 15.9689 10.3029 15.9689 10.3029L15.8667 10.8993C15.8667 10.8993 16.1731 10.7589 16.6158 10.7589C16.8541 10.7589 17.0584 10.794 17.0584 11.0045C17.0584 11.1448 17.0243 11.1799 17.0243 11.1799C17.0243 11.1799 16.82 11.1799 16.7179 11.1799C16.1391 11.1799 15.4922 11.4255 15.4922 12.2323C15.4922 12.8637 15.9008 13.004 16.1391 13.004C16.6158 13.004 16.82 12.6883 16.8541 12.6883L16.82 12.9689H17.4329L17.7053 11.0396C17.7393 10.1977 17.0243 10.1626 16.786 10.1626ZM16.9562 11.7412C16.9562 11.8464 16.8881 12.4077 16.4796 12.4077C16.2753 12.4077 16.2072 12.2323 16.2072 12.127C16.2072 11.9516 16.3093 11.7061 16.82 11.7061C16.9222 11.7412 16.9222 11.7412 16.9562 11.7412Z" fill="white"/>
<path d="M18.2842 12.9691C18.4885 11.8115 18.5225 10.8643 18.9992 11.0397C19.0673 10.5837 19.1694 10.4083 19.2375 10.2329C19.2375 10.2329 19.2035 10.2329 19.1013 10.2329C18.7949 10.2329 18.5566 10.6539 18.5566 10.6539L18.6247 10.268H17.9778L17.5352 13.0042H18.2842V12.9691Z" fill="white"/>
<path d="M8.41211 12.443C8.41211 12.864 8.65044 13.0394 8.95687 13.0394C9.1952 13.0394 9.39949 12.9692 9.46759 12.9342L9.56973 12.3378C9.53568 12.3378 9.46759 12.3729 9.39949 12.3729C9.16116 12.3729 9.12711 12.2326 9.16116 12.1624L9.36544 10.9346H9.73997L9.84211 10.2681H9.50163L9.56973 9.84717" fill="#FFFBF9"/>
<path d="M10.0449 11.8115C10.0449 12.7937 10.3514 13.0393 10.8961 13.0393C11.4068 13.0393 11.6111 12.9341 11.6111 12.9341L11.7473 12.2676C11.7473 12.2676 11.3728 12.443 11.0323 12.443C10.2833 12.443 10.4194 11.8817 10.4194 11.8817H11.8154C11.8154 11.8817 11.9175 11.4257 11.9175 11.2503C11.9175 10.7942 11.6792 10.233 10.9302 10.233C10.2152 10.1628 10.0449 10.9345 10.0449 11.8115ZM10.8961 10.7942C11.2706 10.7942 11.3387 11.2503 11.3387 11.2853H10.4535C10.4535 11.2503 10.5216 10.7942 10.8961 10.7942Z" fill="#FFFBF9"/>
<path d="M15.2216 12.9339L15.3578 12.1622C15.3578 12.1622 15.0173 12.3376 14.779 12.3376C14.3023 12.3376 14.098 11.9517 14.098 11.5308C14.098 10.6889 14.5066 10.2328 14.9833 10.2328C15.3237 10.2328 15.5961 10.4433 15.5961 10.4433L15.6983 9.70665C15.6983 9.70665 15.2897 9.53125 14.9152 9.53125C14.1321 9.53125 13.6895 10.2328 13.6895 11.5659C13.6895 12.4428 13.7575 13.0392 14.5747 13.0392C14.8471 13.0392 15.2216 12.9339 15.2216 12.9339Z" fill="#FFFBF9"/>
<path d="M4.80226 10.9345C4.80226 10.9345 5.10869 10.7942 5.55131 10.7942C5.78964 10.7942 5.99392 10.8293 5.99392 11.0397C5.99392 11.1801 5.95988 11.2151 5.95988 11.2151C5.95988 11.2151 5.75559 11.2151 5.65345 11.2151C5.07464 11.2151 4.42773 11.4607 4.42773 12.2675C4.42773 12.8989 4.83631 13.0393 5.07464 13.0393C5.55131 13.0393 5.75559 12.7235 5.78964 12.7235L5.75559 13.0042H6.36845L6.64083 11.0748C6.64083 10.268 5.95988 10.2329 5.6875 10.2329L4.80226 10.9345ZM6.19821 11.7413C6.19821 11.8466 5.78964 12.4078 5.38107 12.4078C5.17678 12.4078 5.10869 12.2324 5.10869 12.1272C5.10869 11.9518 5.21083 11.7062 5.72154 11.7062C5.82369 11.7413 6.19821 11.7413 6.19821 11.7413Z" fill="#FFFBF9"/>
<path d="M6.53906 12.9338C6.53906 12.9338 6.74335 13.004 7.32216 13.004C7.4924 13.004 8.34359 13.039 8.34359 12.0919C8.34359 11.2149 7.52644 11.3903 7.52644 11.0395C7.52644 10.8641 7.66263 10.794 7.90097 10.794C8.00311 10.794 8.37763 10.829 8.37763 10.829L8.47978 10.1976C8.47978 10.1976 8.24144 10.1274 7.83287 10.1274C7.32216 10.1274 7.15192 10.3379 7.15192 11.0395C7.15192 11.8463 7.66263 11.7762 7.66263 12.0919C7.66263 12.3024 7.4243 12.3374 7.25406 12.3374" fill="#FFFBF9"/>
<path d="M20.736 10.5488C20.736 10.5488 20.4637 10.198 20.0891 10.198C19.4763 10.198 19.272 10.9697 19.272 11.8818C19.272 12.4431 19.2039 13.0394 19.7827 13.0394C20.1913 13.0394 20.4296 12.7588 20.4296 12.7588L20.3956 13.0043H21.0765L21.5872 9.63672L20.736 10.5488ZM20.702 11.4608C20.702 11.8467 20.3956 12.3378 20.021 12.3378C19.7827 12.3378 19.6465 12.1274 19.6465 11.7766C19.6465 11.2153 19.8849 10.8645 20.1913 10.8645C20.4296 10.8645 20.702 11.0399 20.702 11.4608Z" fill="#FFFBF9"/>
<path d="M2.01019 12.9692L2.41876 10.4435L2.48685 12.9692H2.96352L3.84876 10.4435L3.47423 12.9692H4.18923L4.734 9.60156H3.88281L2.92947 11.6712L2.89542 9.60156H2.5209L1.36328 12.9692H2.01019Z" fill="#FFFBF9"/>
<path d="M11.8496 12.9691H12.5646C12.7689 11.8115 12.8029 10.8643 13.2796 11.0397C13.3477 10.5837 13.4498 10.4083 13.5179 10.2329C13.5179 10.2329 13.4839 10.2329 13.3817 10.2329C13.0753 10.2329 12.837 10.6539 12.837 10.6539L12.9051 10.268" fill="#FFFBF9"/>
<path d="M15.8667 10.9345C15.8667 10.9345 16.1731 10.7942 16.6158 10.7942C16.8541 10.7942 17.0584 10.8293 17.0584 11.0397C17.0584 11.1801 17.0243 11.2151 17.0243 11.2151C17.0243 11.2151 16.82 11.2151 16.7179 11.2151C16.1391 11.2151 15.4922 11.4607 15.4922 12.2675C15.4922 12.8989 15.9008 13.0393 16.1391 13.0393C16.6158 13.0393 16.82 12.7235 16.8541 12.7235L16.82 13.0042H17.4329L17.7053 11.0748C17.7053 10.268 17.0243 10.2329 16.752 10.2329L15.8667 10.9345ZM17.2627 11.7413C17.2627 11.8466 16.8541 12.4078 16.4455 12.4078C16.2412 12.4078 16.1731 12.2324 16.1731 12.1272C16.1731 11.9518 16.2753 11.7062 16.786 11.7062C16.9222 11.7413 17.2627 11.7413 17.2627 11.7413Z" fill="#FFFBF9"/>
<path d="M17.5703 12.9691H18.2853C18.4896 11.8115 18.5236 10.8643 19.0003 11.0397C19.0684 10.5837 19.1706 10.4083 19.2386 10.2329C19.2386 10.2329 19.2046 10.2329 19.1025 10.2329C18.796 10.2329 18.5577 10.6539 18.5577 10.6539L18.6258 10.268" fill="#FFFBF9"/>
</g>
<defs>
<clipPath id="clip0">
<rect x="0.75" y="0.200195" width="21.45" height="22.1" fill="white"/>
</clipPath>
</defs>
</svg>
