<svg width="12" height="12" viewBox="0 0 12 12" fill="none" xmlns="http://www.w3.org/2000/svg">
<g clip-path="url(#clip0)">
<path d="M7.54714 0.0498047H2.4241L0.154297 10.4688H3.16042L3.89674 7.01624H6.04447C8.09886 7.01624 9.81694 5.74952 10.2775 3.59568C10.798 1.15753 9.04929 0.0498047 7.54714 0.0498047ZM5.30581 5.02126H4.32613L4.97002 2.17114H6.4424C6.94745 2.17114 7.32991 2.47196 7.45562 2.9137C7.39114 2.90252 7.33134 2.88315 7.26088 2.88315H5.78863L5.30581 5.02126ZM7.45484 3.59594C7.27557 4.36944 6.54055 4.98668 5.79214 5.01567L6.14457 3.45268H7.47928C7.47122 3.50039 7.46797 3.54641 7.45484 3.59594ZM11.0959 4.30782C11.2683 3.50039 11.1883 2.84207 10.9547 2.31804C11.4419 2.89914 11.6941 3.74219 11.4518 4.87735C10.9912 7.03093 9.27289 8.29765 7.21889 8.29765H5.07129L4.3351 11.7498H1.32872L1.45352 11.1803H3.97916L4.71535 7.72812H6.86308C8.91734 7.72812 10.6354 6.4614 11.0959 4.30782Z" fill="#B9B9B8"/>
</g>
<defs>
<clipPath id="clip0">
<rect y="0.0498047" width="11.7" height="11.7" fill="white"/>
</clipPath>
</defs>
</svg>
