<svg width="24" height="25" viewBox="0 0 24 25" fill="none" xmlns="http://www.w3.org/2000/svg">
<g clip-path="url(#clip0)">
<path d="M8.83008 15.7298L10.0186 8.8584H11.8758L10.7244 15.7298H8.83008Z" fill="#B9B9B8"/>
<path d="M8.83008 15.7298L10.3529 8.8584H11.8758L10.7244 15.7298H8.83008Z" fill="#B9B9B8"/>
<path d="M17.4465 8.93479C17.0751 8.78209 16.4808 8.62939 15.738 8.62939C13.8808 8.62939 12.5437 9.58376 12.5437 10.958C12.5437 11.9888 13.4722 12.5232 14.2151 12.8668C14.958 13.2103 15.1808 13.4394 15.1808 13.7448C15.1808 14.2029 14.5865 14.4319 14.0665 14.4319C13.3237 14.4319 12.9151 14.3174 12.2837 14.0502L12.0237 13.9357L11.7637 15.5008C12.2094 15.6917 13.0265 15.8826 13.8808 15.8826C15.8494 15.8826 17.1494 14.9282 17.1494 13.4776C17.1494 12.6759 16.6665 12.0651 15.5522 11.5688C14.8837 11.2253 14.4751 11.0344 14.4751 10.6908C14.4751 10.3854 14.8094 10.08 15.5522 10.08C16.1837 10.08 16.6294 10.1946 16.9637 10.3473L17.1494 10.4236L17.4465 8.93479Z" fill="#B9B9B8"/>
<path d="M17.4465 8.93479C17.0751 8.78209 16.4808 8.62939 15.738 8.62939C13.8808 8.62939 12.878 9.58376 12.878 10.958C12.878 11.9888 13.4722 12.5232 14.2151 12.8668C14.958 13.2103 15.1808 13.4394 15.1808 13.7448C15.1808 14.2029 14.5865 14.4319 14.0665 14.4319C13.3237 14.4319 12.9151 14.3174 12.2837 14.0502L12.0237 13.9357L11.7637 15.5008C12.2094 15.6917 13.0265 15.8826 13.8808 15.8826C15.8494 15.8826 17.1494 14.9282 17.1494 13.4776C17.1494 12.6759 16.6665 12.0651 15.5522 11.5688C14.8837 11.2253 14.4751 11.0344 14.4751 10.6908C14.4751 10.3854 14.8094 10.08 15.5522 10.08C16.1837 10.08 16.6294 10.1946 16.9637 10.3473L17.1494 10.4236L17.4465 8.93479Z" fill="#B9B9B8"/>
<path d="M20.6421 8.8584C20.1963 8.8584 19.8621 8.89657 19.6763 9.35467L16.8906 15.7298H18.8963L19.2678 14.5846H21.6449L21.8678 15.7298H23.6506L22.0906 8.8584H20.6421ZM19.7878 13.4394C19.8992 13.0958 20.5306 11.4161 20.5306 11.4161C20.5306 11.4161 20.6792 10.9962 20.7906 10.729L20.9021 11.3779C20.9021 11.3779 21.2735 13.0958 21.3478 13.4775H19.7878V13.4394Z" fill="#B9B9B8"/>
<path d="M21.0878 8.8584C20.6421 8.8584 20.3078 8.89657 20.1221 9.35467L16.8906 15.7298H18.8963L19.2678 14.5846H21.6449L21.8678 15.7298H23.6506L22.0906 8.8584H21.0878ZM19.7878 13.4394C19.9363 13.0576 20.5306 11.4161 20.5306 11.4161C20.5306 11.4161 20.6792 10.9962 20.7906 10.729L20.9021 11.3779C20.9021 11.3779 21.2735 13.0958 21.3478 13.4775H19.7878V13.4394Z" fill="#B9B9B8"/>
<path d="M5.41267 13.6683L5.22695 12.6758C4.89267 11.5305 3.81552 10.2708 2.62695 9.65998L4.29838 15.7679H6.3041L9.31267 8.89648H7.30695L5.41267 13.6683Z" fill="#B9B9B8"/>
<path d="M5.41267 13.6683L5.22695 12.6758C4.89267 11.5305 3.81552 10.2708 2.62695 9.65998L4.29838 15.7679H6.3041L9.31267 8.89648H7.67838L5.41267 13.6683Z" fill="#B9B9B8"/>
<path d="M0.25 8.8584L0.584286 8.93475C2.96143 9.50737 4.59571 10.958 5.22714 12.6759L4.55857 9.43102C4.44714 8.97292 4.11286 8.8584 3.70429 8.8584H0.25Z" fill="#B9B9B8"/>
<path d="M0.25 8.8584C2.62714 9.43102 4.59571 10.9198 5.22714 12.6377L4.59571 9.92729C4.48429 9.46919 4.11286 9.20197 3.70429 9.20197L0.25 8.8584Z" fill="#B9B9B8"/>
<path d="M0.25 8.8584C2.62714 9.43102 4.59571 10.9198 5.22714 12.6377L4.78143 11.1489C4.67 10.6908 4.52143 10.2327 4.00143 10.0418L0.25 8.8584Z" fill="#B9B9B8"/>
<path d="M7.26977 13.4395L6.00692 12.1416L5.41263 13.5922L5.26406 12.6379C4.92978 11.4926 3.85263 10.2329 2.66406 9.62207L4.33549 15.73H6.3412L7.26977 13.4395Z" fill="#B9B9B8"/>
<path d="M10.7244 15.73L9.12722 14.0503L8.83008 15.73H10.7244Z" fill="#B9B9B8"/>
<path d="M14.9951 13.3633C15.1437 13.516 15.218 13.6305 15.1808 13.7832C15.1808 14.2413 14.5865 14.4703 14.0665 14.4703C13.3237 14.4703 12.9151 14.3558 12.2837 14.0886L12.0237 13.9741L11.7637 15.5392C12.2094 15.7301 13.0265 15.921 13.8808 15.921C15.0694 15.921 16.0351 15.5774 16.5922 14.9666L14.9951 13.3633Z" fill="#B9B9B8"/>
<path d="M17.1504 15.7299H18.8961L19.2675 14.5846H21.6447L21.8675 15.7299H23.6504L23.019 12.9431L20.7904 10.729L20.9018 11.3398C20.9018 11.3398 21.2732 13.0577 21.3475 13.4394H19.7875C19.9361 13.0577 20.5304 11.4161 20.5304 11.4161C20.5304 11.4161 20.679 10.9962 20.7904 10.729" fill="#B9B9B8"/>
</g>
<defs>
<clipPath id="clip0">
<rect x="0.25" y="0.25" width="23.4" height="24.05" fill="white"/>
</clipPath>
</defs>
</svg>
