<svg width="18" height="14" viewBox="0 0 18 14" fill="none" xmlns="http://www.w3.org/2000/svg">
<path d="M13.5293 4.35266C13.5047 4.35266 1.26916 4.35266 1.26916 4.35266L3.84703 1.46328C4.01419 1.2759 3.99781 0.988497 3.81043 0.82133C3.62312 0.654197 3.33565 0.67051 3.16848 0.857927L0.265209 4.11198C-0.0884266 4.50847 -0.0883914 5.10627 0.265245 5.50266L3.16851 8.75675C3.25837 8.85747 3.38286 8.90873 3.50791 8.90873C3.61563 8.90873 3.72373 8.87065 3.81046 8.79335C3.99785 8.62618 4.01419 8.33878 3.84706 8.15139L1.2692 5.26198C1.2692 5.26198 13.5047 5.26198 13.5293 5.26198C15.4931 5.26198 17.0906 6.85962 17.0906 8.8233C17.0906 10.787 15.493 12.3846 13.5293 12.3846H11.3644C11.1133 12.3846 10.9097 12.5882 10.9097 12.8393C10.9097 13.0904 11.1133 13.294 11.3644 13.294H13.5293C15.9945 13.294 18 11.2885 18 8.8233C18 6.35818 15.9944 4.35266 13.5293 4.35266Z" fill="#8A8A8A"/>
</svg>
