<svg width="14" height="14" viewBox="0 0 14 14" fill="none" xmlns="http://www.w3.org/2000/svg">
<path d="M12.206 5.32353V4.78529C12.206 3.49706 11.7502 2.3 10.9237 1.41176C10.0766 0.5 8.91193 0 7.64134 0H7.19723C5.92664 0 4.76193 0.5 3.91487 1.41176C3.0884 2.3 2.63252 3.49706 2.63252 4.78529V5.32353C1.62958 5.39118 0.83252 6.22647 0.83252 7.24706V8.08823C0.83252 9.15 1.69723 10.0147 2.75899 10.0147H3.84428C4.0384 10.0147 4.19723 9.85588 4.19723 9.66177V5.67059C4.19723 5.47647 4.0384 5.31765 3.84428 5.31765H3.3384V4.78529C3.3384 2.45882 4.99723 0.705882 7.19428 0.705882H7.6384C9.8384 0.705882 11.4943 2.45882 11.4943 4.78529V5.31765H10.9884C10.7943 5.31765 10.6355 5.47647 10.6355 5.67059V9.65882C10.6355 9.85294 10.7943 10.0118 10.9884 10.0118H11.4825C11.3384 11.8529 10.0708 12.2794 9.48252 12.3765C9.32075 11.8794 8.85311 11.5206 8.30311 11.5206H7.42075C6.7384 11.5206 6.18252 12.0765 6.18252 12.7588C6.18252 13.4412 6.7384 14 7.42075 14H8.30605C8.87664 14 9.35605 13.6118 9.50017 13.0882C9.7884 13.0471 10.2443 12.9441 10.6972 12.6794C11.3355 12.3059 12.0913 11.5441 12.1913 10.0088C13.2002 9.94706 14.0002 9.10882 14.0002 8.08529V7.24412C14.0031 6.22647 13.209 5.38824 12.206 5.32353ZM3.49723 9.30588H2.76487C2.09134 9.30588 1.54428 8.75882 1.54428 8.08529V7.24412C1.54428 6.57059 2.09134 6.02353 2.76487 6.02353H3.49723V9.30588ZM8.30605 13.2941H7.42075C7.12664 13.2941 6.8884 13.0559 6.8884 12.7618C6.8884 12.4676 7.12664 12.2294 7.42075 12.2294H8.30605C8.60017 12.2294 8.8384 12.4676 8.8384 12.7618C8.8384 13.0559 8.60017 13.2941 8.30605 13.2941ZM13.2972 8.08529C13.2972 8.75882 12.7502 9.30588 12.0766 9.30588H11.3443V6.02353H12.0766C12.7502 6.02353 13.2972 6.57059 13.2972 7.24412V8.08529Z" fill="black"/>
</svg>
