<svg width="10" height="10" viewBox="0 0 10 10" fill="none" xmlns="http://www.w3.org/2000/svg">
<path d="M7.25477 5.70715C6.86425 5.31663 6.86425 4.68347 7.25476 4.29295L9.93868 1.60894C10.0201 1.52753 10.0201 1.39557 9.93868 1.31417L8.68591 0.0610805C8.64682 0.0219931 8.59366 0 8.53852 0C8.48328 0 8.43023 0.0219931 8.39114 0.0610805L5.70703 2.74519C5.3165 3.13571 4.68334 3.13572 4.29281 2.74519L1.6087 0.0610805C1.53053 -0.0170942 1.39211 -0.0170942 1.31393 0.0610805L0.0610544 1.31417C-0.0203515 1.39557 -0.0203515 1.52753 0.0610544 1.60894L2.74506 4.29295C3.13558 4.68347 3.13558 5.31663 2.74506 5.70716L0.0610544 8.39116C-0.0203515 8.47257 -0.0203515 8.60453 0.0610544 8.68594L1.31393 9.93892C1.35302 9.97801 1.40608 10 1.46132 10C1.51656 10 1.56962 9.97801 1.6087 9.93892L4.29281 7.25481C4.68334 6.86429 5.3165 6.86428 5.70703 7.25481L8.39114 9.93892C8.43023 9.97801 8.48328 10 8.53852 10C8.59366 10 8.64682 9.97801 8.68591 9.93892L9.93879 8.68594C10.0202 8.60453 10.0202 8.47247 9.93879 8.39116L7.25477 5.70715Z" fill="black"/>
</svg>
