<svg width="14" height="14" viewBox="0 0 14 14" fill="none" xmlns="http://www.w3.org/2000/svg">
<path d="M13.8348 13.0348L0.96588 0.165886C0.745052 -0.0549697 0.386958 -0.0549697 0.16613 0.165886C-0.0547256 0.386714 -0.0547256 0.74478 0.16613 0.965635L13.0351 13.8346C13.1455 13.945 13.2903 14.0002 13.435 14.0002C13.5797 14.0002 13.7245 13.945 13.8349 13.8346C14.0557 13.6137 14.0557 13.2557 13.8348 13.0348Z" fill="black"/>
<path d="M13.8349 0.165886C13.614 -0.0549698 13.2559 -0.0549698 13.0351 0.165886L0.16613 13.0348C-0.0547256 13.2557 -0.0547256 13.6137 0.16613 13.8346C0.276544 13.9451 0.421302 14.0002 0.566032 14.0002C0.710763 14.0002 0.855493 13.945 0.965935 13.8346L13.8349 0.965636C14.0557 0.744808 14.0557 0.386741 13.8349 0.165886Z" fill="black"/>
</svg>
