<svg width="18" height="19" viewBox="0 0 18 19" fill="none" xmlns="http://www.w3.org/2000/svg">
<path d="M17.6528 4.1923L9.02607 0.027665C8.94958 -0.00922167 8.86052 -0.00922167 8.78408 0.027665L0.157306 4.1923C0.0611191 4.23872 0 4.33613 0 4.44293V14.557C0 14.6638 0.0611191 14.7613 0.157306 14.8077L8.78404 18.9723C8.82226 18.9908 8.86368 19 8.90505 19C8.94643 19 8.98781 18.9908 9.02607 18.9723L17.6528 14.8077C17.749 14.7613 17.8101 14.6638 17.8101 14.557V4.44297C17.8101 4.3361 17.749 4.23876 17.6528 4.1923ZM8.90505 0.587385L16.8916 4.44293L14.5765 5.56059C14.5618 5.54942 14.5463 5.53911 14.5293 5.53091L6.59704 1.70159L8.90505 0.587385ZM5.96848 2.01628L13.9434 5.86623L12.3101 6.65476L4.33842 2.80638L5.96848 2.01628ZM14.13 6.39422V9.30901L12.6043 10.0456V7.13076L14.13 6.39422ZM17.2535 14.3824L9.18337 18.2782V8.78224L11.1083 7.85295C11.2468 7.78612 11.3048 7.61975 11.238 7.4813C11.1711 7.34292 11.0048 7.28481 10.8663 7.35168L8.90505 8.29852L8.13333 7.92594C7.99487 7.85903 7.82851 7.91715 7.76168 8.05557C7.69484 8.19398 7.75288 8.36038 7.8913 8.42722L8.62673 8.78224V18.2782L0.55664 14.3823V4.88635L6.70195 7.85306C6.74095 7.87191 6.78218 7.88082 6.82274 7.88082C6.9262 7.88082 7.02558 7.82285 7.07356 7.72344C7.14039 7.58502 7.08235 7.41862 6.94394 7.35179L0.918493 4.44293L3.68332 3.10819L12.0438 7.14431C12.0451 7.14602 12.0464 7.14754 12.0477 7.14921V10.489C12.0477 10.5848 12.0969 10.6738 12.1781 10.7248C12.2231 10.753 12.2745 10.7673 12.3261 10.7673C12.3673 10.7673 12.4087 10.7582 12.447 10.7396L14.5293 9.73439C14.6255 9.68797 14.6867 9.59059 14.6867 9.48376V6.12555L17.2535 4.88639V14.3824Z" fill="black"/>
</svg>
