<svg width="16" height="16" viewBox="0 0 16 16" fill="none" xmlns="http://www.w3.org/2000/svg">
<path d="M8 0C3.58892 0 0 3.58862 0 8C0 12.4114 3.58892 16 8 16C12.4111 16 16 12.4114 16 8C16 3.58862 12.4111 0 8 0ZM8 15.3846C3.92831 15.3846 0.615385 12.0717 0.615385 8C0.615385 3.92831 3.92831 0.615385 8 0.615385C12.0717 0.615385 15.3846 3.92831 15.3846 8C15.3846 12.0717 12.0717 15.3846 8 15.3846Z" fill="white"/>
<path d="M11.5004 5.10094L7.10937 10.2878L4.46403 8.06577C4.34117 7.96227 4.16089 7.98357 4.06261 8.11257C3.96404 8.24217 3.98404 8.43086 4.10718 8.53436L6.96424 10.9343C7.01681 10.9784 7.07995 11 7.1428 11C7.22166 11 7.30022 10.9658 7.35651 10.8992L11.9278 5.49933C12.0326 5.37573 12.0221 5.18584 11.9041 5.07604C11.7858 4.96564 11.6055 4.97674 11.5004 5.10094Z" fill="white"/>
</svg>
