<svg width="13" height="11" viewBox="0 0 13 11" fill="none" xmlns="http://www.w3.org/2000/svg">
<path d="M1.14258 0.548828H11.8574C12.4867 0.548828 13 1.06162 13 1.69141V9.30859C13 9.93625 12.4889 10.4512 11.8574 10.4512H1.14258C0.514922 10.4512 0 9.94011 0 9.30859V1.69141C0 1.06375 0.511063 0.548828 1.14258 0.548828ZM1.30035 1.31055L6.47578 6.48599L11.696 1.31055H1.30035ZM12.2383 9.15087V1.8455L8.56987 5.48246L12.2383 9.15087ZM11.6997 9.68945L8.02895 6.01873L6.74273 7.2939C6.59384 7.44152 6.35357 7.44104 6.20529 7.29273L4.95117 6.03861L1.30033 9.68945H11.6997ZM0.761719 9.15084L4.41256 5.5L0.761719 1.84913V9.15084Z" fill="white"/>
</svg>
