<svg width="11" height="16" viewBox="0 0 11 16" fill="none" xmlns="http://www.w3.org/2000/svg">
<path d="M10.4057 0.00326024L7.8122 0C4.89847 0 3.01548 1.51357 3.01548 3.85621V5.63418H0.407807C0.182473 5.63418 0 5.7773 0 5.95385V8.52992C0 8.70646 0.182681 8.84943 0.407807 8.84943H3.01548V15.3497C3.01548 15.5262 3.19795 15.6692 3.42329 15.6692H6.82556C7.05089 15.6692 7.23337 15.5261 7.23337 15.3497V8.84943H10.2823C10.5077 8.84943 10.6902 8.70646 10.6902 8.52992L10.6914 5.95385C10.6914 5.86908 10.6483 5.7879 10.572 5.72791C10.4956 5.66792 10.3916 5.63418 10.2834 5.63418H7.23337V4.12697C7.23337 3.40255 7.45371 3.03479 8.65819 3.03479L10.4053 3.0343C10.6304 3.0343 10.8129 2.89118 10.8129 2.7148V0.322764C10.8129 0.146548 10.6306 0.00358626 10.4057 0.00326024Z" fill="white"/>
</svg>
