<svg width="22" height="19" viewBox="0 0 22 19" fill="none" xmlns="http://www.w3.org/2000/svg">
<path d="M20.3228 1.91838C19.2394 0.83536 17.7986 0.238687 16.267 0.238687C14.7353 0.238687 13.2949 0.83536 12.2119 1.91838L11.4222 2.70813L10.632 1.91797C9.54901 0.834955 8.10864 0.238281 6.57659 0.238281C5.04455 0.238281 3.60458 0.834955 2.52116 1.91797C1.43774 3.00139 0.841064 4.44177 0.841064 5.97381C0.841064 7.50545 1.43774 8.94582 2.52116 10.0288L11.1354 18.6431C11.2117 18.7193 11.3147 18.7619 11.4222 18.7619C11.5297 18.7619 11.6331 18.7193 11.709 18.6431L20.3228 10.0288C22.559 7.79303 22.559 4.15458 20.3228 1.91838ZM19.7492 9.45528L11.4222 17.7827L3.09512 9.45528C2.16502 8.52559 1.65272 7.28925 1.65272 5.97381C1.65272 4.65837 2.16502 3.42162 3.09512 2.49193C4.02481 1.56224 5.26156 1.04994 6.57659 1.04994C7.89163 1.04994 9.12837 1.56224 10.0581 2.49193L11.135 3.56886C11.2871 3.72097 11.5564 3.72097 11.7086 3.56886L12.7851 2.49193C13.7152 1.56224 14.9515 1.04994 16.2666 1.04994C17.5816 1.04994 18.8183 1.56224 19.7488 2.49193C21.6691 4.41175 21.6691 7.53546 19.7492 9.45528Z" fill="black"/>
</svg>
