<svg width="18" height="18" viewBox="0 0 18 18" fill="none" xmlns="http://www.w3.org/2000/svg">
<path d="M9 17.4089C8.83057 17.4089 8.66883 17.3383 8.55356 17.2141L1.35962 9.46045C1.35777 9.45846 1.35592 9.45646 1.35412 9.45446C0.480879 8.48759 0 7.20625 0 5.84644C0 4.48657 0.480879 3.20528 1.35412 2.23846L1.46344 2.11744C2.35232 1.13333 3.53914 0.591309 4.80533 0.591309C6.07152 0.591309 7.25839 1.13333 8.14732 2.11749L9 3.06162L9.85268 2.11754C10.7416 1.13338 11.9284 0.591357 13.1946 0.591357C14.4609 0.591357 15.6477 1.13338 16.5366 2.11759L16.6458 2.23831C17.5192 3.20538 18 4.48667 18 5.84648C18 7.2063 17.5191 8.48764 16.6459 9.45446C16.6441 9.45656 16.6423 9.45856 16.6404 9.46055L9.44644 17.2142C9.33117 17.3383 9.16944 17.4089 9 17.4089ZM2.25532 8.63515L9 15.9046L15.7447 8.6351C17.1324 7.09552 17.1315 4.59311 15.742 3.0547L15.6329 2.93398C14.9777 2.20854 14.1118 1.80912 13.1946 1.80912C12.2774 1.80912 11.4115 2.20854 10.7565 2.93374L9.45194 4.37817C9.33653 4.50601 9.17231 4.57893 9.0001 4.57893C8.82789 4.57893 8.66366 4.50601 8.54821 4.37817L7.24363 2.93383C6.58859 2.20859 5.72271 1.80917 4.80548 1.80917C3.88825 1.80917 3.02231 2.20854 2.36732 2.93378L2.258 3.0548C0.868515 4.59321 0.867589 7.09562 2.25532 8.63515Z" fill="black"/>
</svg>
