<svg width="18" height="17" viewBox="0 0 18 17" fill="none" xmlns="http://www.w3.org/2000/svg">
<path fill-rule="evenodd" clip-rule="evenodd" d="M13.1275 0H4.87243C2.18573 0 0 2.0643 0 4.60174V12.3984C0 14.9357 2.18573 17 4.87243 17H13.1277C15.8142 17 18 14.9357 18 12.3984V4.60174C18 2.0643 15.8142 0 13.1275 0ZM8.99998 13.1483C6.28609 13.1483 4.07825 11.0631 4.07825 8.49998C4.07825 5.93686 6.28609 3.85168 8.99998 3.85168C11.7139 3.85168 13.9217 5.93686 13.9217 8.49998C13.9217 11.0631 11.7139 13.1483 8.99998 13.1483ZM14.0394 4.9479C13.2374 4.9479 12.5851 4.33183 12.5851 3.57439C12.5851 2.81694 13.2374 2.20074 14.0394 2.20074C14.8414 2.20074 15.4939 2.81694 15.4939 3.57439C15.4939 4.33183 14.8414 4.9479 14.0394 4.9479ZM8.99931 4.84814C6.86741 4.84814 5.13281 6.48625 5.13281 8.49983C5.13281 10.5133 6.86741 12.1515 8.99931 12.1515C11.1313 12.1515 12.8658 10.5133 12.8658 8.49983C12.8658 6.48625 11.1313 4.84814 8.99931 4.84814ZM13.6406 3.57417C13.6406 3.36639 13.8197 3.19727 14.0397 3.19727C14.2598 3.19727 14.4389 3.36626 14.4389 3.57417C14.4389 3.78208 14.2598 3.95108 14.0397 3.95108C13.8197 3.95108 13.6406 3.78195 13.6406 3.57417Z" fill="white"/>
</svg>
