<svg width="26" height="19" viewBox="0 0 26 19" fill="none" xmlns="http://www.w3.org/2000/svg">
<path d="M21.0509 14.2761C20.9478 14.2761 20.8447 14.2384 20.7642 14.1621L15.9401 9.63649C15.7716 9.47888 15.7632 9.21311 15.9217 9.04459C16.0802 8.8744 16.3442 8.86685 16.5144 9.02615L21.3385 13.5518C21.507 13.7094 21.5154 13.9751 21.357 14.1437C21.274 14.2317 21.1633 14.2761 21.0509 14.2761Z" fill="black"/>
<path d="M4.94793 14.2761C4.83642 14.2761 4.72492 14.2317 4.64192 14.1437C4.48346 13.9752 4.49185 13.7094 4.66036 13.5518L9.48611 9.02617C9.65546 8.86855 9.92123 8.87526 10.0788 9.04462C10.2373 9.21313 10.2289 9.4789 10.0604 9.63651L5.23466 14.1621C5.15417 14.2384 5.05105 14.2761 4.94793 14.2761Z" fill="black"/>
<path d="M23.904 18.4839H2.09596C0.940668 18.4839 0 17.544 0 16.3879V2.09596C0 0.93983 0.940668 0 2.09596 0H23.904C25.0593 0 26 0.93983 26 2.09596V16.3879C26 17.544 25.0593 18.4839 23.904 18.4839ZM2.09596 0.838385C1.40262 0.838385 0.838385 1.40262 0.838385 2.09596V16.3879C0.838385 17.0813 1.40262 17.6455 2.09596 17.6455H23.904C24.5974 17.6455 25.1616 17.0813 25.1616 16.3879V2.09596C25.1616 1.40262 24.5974 0.838385 23.904 0.838385H2.09596Z" fill="black"/>
<path d="M12.9998 11.3483C12.4422 11.3483 11.8847 11.1631 11.4605 10.7933L0.695615 1.40257C0.521231 1.25082 0.502786 0.985894 0.654534 0.810672C0.807959 0.636288 1.07205 0.620358 1.24643 0.770429L12.0113 10.1603C12.547 10.6273 13.4525 10.6273 13.9874 10.1603L24.7388 0.78552C24.9124 0.633773 25.1765 0.65054 25.3307 0.825763C25.4825 1.00099 25.4649 1.26508 25.2905 1.41766L14.539 10.7925C14.114 11.1631 13.5573 11.3483 12.9998 11.3483Z" fill="black"/>
</svg>
