<svg width="27" height="15" viewBox="0 0 27 15" fill="none" xmlns="http://www.w3.org/2000/svg">
<g clip-path="url(#clip0)">
<path d="M9.46396 7.58651H0.361059C0.231838 7.58651 0.116975 7.52286 0.0523641 7.40971C-0.0122464 7.30362 -0.0122464 7.16925 0.0523641 7.0561L3.38339 1.25695C3.44082 1.15794 3.54133 1.09429 3.65619 1.08014L13.2832 -0.00189232C13.4196 -0.0160366 13.5488 0.0405405 13.6206 0.153695C13.6924 0.266849 13.6995 0.408292 13.6349 0.521446L9.77265 7.40263C9.71522 7.51579 9.59318 7.58651 9.46396 7.58651ZM0.978448 6.8793H9.24859L12.6729 0.776043L3.91463 1.76614L0.978448 6.8793Z" fill="#666666"/>
<path d="M26.6406 7.58841H17.5377C17.4084 7.58841 17.2864 7.51768 17.2218 7.40453L13.4313 0.523341C13.3667 0.410187 13.3739 0.268744 13.4528 0.15559C13.5246 0.049508 13.661 -0.0141412 13.7903 3.06545e-06L23.3526 1.08911C23.4675 1.10326 23.568 1.16691 23.6254 1.26592L26.9421 7.03678C26.9851 7.09336 27.0067 7.16408 27.0067 7.2348C26.9995 7.43282 26.8344 7.58841 26.6406 7.58841ZM17.753 6.88119H26.0232L23.087 1.76804L14.3933 0.777938L17.753 6.88119Z" fill="#666666"/>
<path d="M13.1297 14.9364L13.0723 2.65209L13.7902 2.64502L13.8476 14.116L22.7495 12.7865V8.36638H23.4674V13.3947L13.1297 14.9364Z" fill="#666666"/>
<path d="M13.6044 15L3.36719 13.6421V8.0127H4.08508V13.0268L13.7049 14.2998L13.6044 15Z" fill="#666666"/>
</g>
<defs>
<clipPath id="clip0">
<rect width="27" height="15" fill="white"/>
</clipPath>
</defs>
</svg>
