<svg width="12" height="18" viewBox="0 0 12 18" fill="none" xmlns="http://www.w3.org/2000/svg">
<path d="M6.41965 4.45641C5.30943 4.45641 4.40947 5.39862 4.40947 6.55181C4.40947 7.705 5.30943 8.64721 6.41965 8.64721C7.52986 8.64721 8.42982 7.705 8.42982 6.55181C8.42982 5.39862 7.52986 4.45641 6.41965 4.45641ZM6.41965 7.96281C5.67722 7.96281 5.06952 7.33182 5.06952 6.55181C5.06952 5.7718 5.67722 5.14081 6.41965 5.14081C7.16208 5.14081 7.76977 5.7718 7.76977 6.55181C7.76977 7.33182 7.16208 7.96281 6.41965 7.96281Z" fill="black" stroke="black" stroke-width="0.1"/>
<path d="M2.53693 2.60669C1.58861 3.5961 1.05764 5.01887 0.964753 6.47301C0.871885 7.92686 1.21654 9.41783 2.02672 10.5451L6.3285 17.0276L6.37017 17.0904L6.41183 17.0276L10.7072 10.5541C11.5205 9.42239 11.8668 7.92918 11.7748 6.47417C11.6827 5.01888 11.1517 3.5961 10.2034 2.60669C9.17996 1.53875 7.81842 0.95 6.37017 0.95C4.92163 0.95 3.56037 1.53875 2.53693 2.60669ZM2.53693 2.60669L2.57303 2.64129L2.53693 2.60669ZM10.1712 10.155L10.1712 10.1549L10.1702 10.1565L6.37016 15.8828L2.564 10.1474L2.56403 10.1474L2.56294 10.1459C1.84299 9.14423 1.53309 7.81796 1.61445 6.52115C1.69582 5.22427 2.16812 3.96255 3.00536 3.08906L3.00536 3.08905C3.90457 2.15075 5.09938 1.6344 6.37017 1.6344C7.64095 1.6344 8.83577 2.15075 9.73526 3.08906C10.5725 3.96255 11.0448 5.22426 11.1254 6.52225C11.2059 7.82016 10.8944 9.14873 10.1712 10.155Z" fill="black" stroke="black" stroke-width="0.1"/>
</svg>
