<svg width="12" height="15" viewBox="0 0 12 15" fill="none" xmlns="http://www.w3.org/2000/svg">
<path d="M5.89275 12.9664C6.02829 12.9664 6.13829 12.8528 6.13829 12.7122V4.32235C6.13829 4.18176 6.02829 4.06812 5.89275 4.06812C5.75722 4.06812 5.64722 4.18176 5.64722 4.32235V12.7122C5.64722 12.8528 5.75722 12.9664 5.89275 12.9664Z" fill="black"/>
<path d="M3.43743 12.9664C3.57297 12.9664 3.68297 12.8528 3.68297 12.7122V4.32235C3.68297 4.18176 3.57297 4.06812 3.43743 4.06812C3.30189 4.06812 3.19189 4.18176 3.19189 4.32235V12.7122C3.19189 12.8528 3.30189 12.9664 3.43743 12.9664Z" fill="black"/>
<path d="M8.34832 12.9664C8.48385 12.9664 8.59385 12.8528 8.59385 12.7122V4.32235C8.59385 4.18176 8.48385 4.06812 8.34832 4.06812C8.21278 4.06812 8.10278 4.18176 8.10278 4.32235V12.7122C8.10278 12.8528 8.21278 12.9664 8.34832 12.9664Z" fill="black"/>
<path d="M11.5402 1.52542H8.09188C8.06487 1.20763 7.97034 0.671695 7.64672 0.327712C7.44194 0.110339 7.18217 0 6.87475 0H4.41964C4.11223 0 3.85246 0.110339 3.64768 0.327712C3.32406 0.671695 3.22953 1.20763 3.20252 1.52542H0.245536C0.11 1.52542 0 1.63907 0 1.77966C0 1.92025 0.11 2.0339 0.245536 2.0339H0.746674L1.21688 13.7342C1.22596 14.1719 1.48917 15 2.42196 15H9.36375C10.2965 15 10.5598 14.1719 10.5686 13.7395L11.039 2.0339H11.5402C11.6757 2.0339 11.7857 1.92025 11.7857 1.77966C11.7857 1.63907 11.6757 1.52542 11.5402 1.52542ZM4.00027 0.68161C4.11027 0.56517 4.24752 0.508475 4.41964 0.508475H6.87475C7.04688 0.508475 7.18413 0.56517 7.29413 0.68161C7.49179 0.890848 7.57109 1.25898 7.59859 1.52542H3.69605C3.72355 1.25898 3.80286 0.890848 4.00027 0.68161ZM10.0778 13.7235C10.0763 13.802 10.0424 14.4915 9.36375 14.4915H2.42196C1.75067 14.4915 1.7104 13.8008 1.7077 13.7181L1.23799 2.0339H10.5475L10.0778 13.7235Z" fill="black"/>
</svg>
