<svg width="13" height="15" viewBox="0 0 13 15" fill="none" xmlns="http://www.w3.org/2000/svg">
<path d="M12.7085 6.35429C12.7085 2.85052 9.85803 0 6.35429 0C2.85055 0 0 2.85052 0 6.35429C0 6.56242 0.168748 6.73117 0.376882 6.73117C0.585015 6.73117 0.753764 6.5624 0.753764 6.35429C0.753764 3.26614 3.26614 0.753792 6.35426 0.753792C9.44239 0.753792 11.9548 3.26617 11.9548 6.35429C11.9548 9.44239 9.44239 11.9548 6.35426 11.9548H5.70039L6.63535 10.9082C6.77404 10.753 6.76059 10.5147 6.60538 10.376C6.45017 10.2373 6.21186 10.2508 6.0732 10.406L4.7367 11.9021C4.51792 12.147 4.51792 12.5163 4.7367 12.7612L6.0732 14.2573C6.14767 14.3406 6.2508 14.3831 6.3544 14.3831C6.44376 14.3831 6.53349 14.3514 6.60538 14.2873C6.76061 14.1486 6.77404 13.9103 6.63535 13.7551L5.70039 12.7085H6.35426C9.85803 12.7085 12.7085 9.85801 12.7085 6.35429Z" fill="black"/>
</svg>
