<svg width="20" height="16" viewBox="0 0 20 16" fill="none" xmlns="http://www.w3.org/2000/svg">
<path d="M19.2205 2.17066C18.4985 1.31247 17.1656 0.962402 14.6201 0.962402H5.37974C2.77594 0.962402 1.42045 1.33505 0.701226 2.24872C0 3.13956 0 4.45214 0 6.26879V9.7313C0 13.2507 0.832 15.0376 5.37974 15.0376H14.6201C16.8276 15.0376 18.0508 14.7287 18.8422 13.9714C19.6537 13.1947 20 11.9267 20 9.7313V6.26879C20 4.35298 19.9457 3.03266 19.2205 2.17066ZM12.8401 8.47808L8.64406 10.671C8.55026 10.7201 8.44768 10.7444 8.34523 10.7444C8.22923 10.7444 8.11348 10.7132 8.01097 10.6511C7.81793 10.5341 7.70006 10.3249 7.70006 10.0992V5.72737C7.70006 5.50208 7.81761 5.29305 8.01026 5.17601C8.20297 5.05898 8.44265 5.05098 8.64258 5.15485L12.8386 7.33369C13.0521 7.44453 13.1861 7.66492 13.1865 7.90537C13.1867 8.14601 13.0532 8.36672 12.8401 8.47808Z" fill="white"/>
</svg>
