<svg width="18" height="19" viewBox="0 0 18 19" fill="none" xmlns="http://www.w3.org/2000/svg"><path d="M8.55 9.209C3.836 9.209 0 12.316 0 16.137c0 1.77 4.606 2.397 8.55 2.397 3.944 0 8.55-.627 8.55-2.397 0-3.82-3.836-6.928-8.55-6.928zm0 8.614c-4.792 0-7.759-.875-7.759-1.686 0-3.428 3.48-6.217 7.759-6.217 4.278 0 7.759 2.789 7.759 6.217 0 .81-2.967 1.686-7.759 1.686zm4.216-13.285c0-.75-.248-1.483-.71-2.107a4.151 4.151 0 0 0-1.893-1.396A4.656 4.656 0 0 0 7.728.82a4.38 4.38 0 0 0-2.159 1.038 3.69 3.69 0 0 0-1.154 1.941 3.438 3.438 0 0 0 .24 2.19A3.91 3.91 0 0 0 6.208 7.69a4.558 4.558 0 0 0 2.342.64c1.118-.002 2.19-.402 2.98-1.113.79-.71 1.235-1.674 1.236-2.68zm-7.64 0c0-.61.2-1.205.577-1.711a3.373 3.373 0 0 1 1.536-1.135 3.782 3.782 0 0 1 1.98-.175 3.559 3.559 0 0 1 1.753.843c.479.43.805.98.937 1.577a2.793 2.793 0 0 1-.195 1.78 3.176 3.176 0 0 1-1.261 1.382 3.703 3.703 0 0 1-1.903.519c-.908-.001-1.778-.326-2.42-.903-.642-.578-1.004-1.36-1.005-2.177z" fill="#000"/></svg>