<svg xmlns="http://www.w3.org/2000/svg"><defs><clipPath id="clip0"><path d="M0 0h27v15H0z"/></clipPath></defs><symbol id="icon_arrow" viewBox="0 0 9 5"><path d="M.093.543A.31.31 0 0 1 0 .318.318.318 0 0 1 .543.093l3.953 3.954L8.45.093a.318.318 0 0 1 .45.45L4.72 4.72a.318.318 0 0 1-.449 0L.093.543z"/></symbol><symbol id="icon_arrow_button" viewBox="0 0 25 10"><path fill-rule="evenodd" clip-rule="evenodd" d="M20.271 9.009c.081 0 .155-.03.214-.089l3.963-3.963a.302.302 0 0 0 0-.427L20.485.566a.302.302 0 0 0-.427.427l3.386 3.385H0v.73h23.444l-3.386 3.386a.302.302 0 0 0 .213.515z"/></symbol><symbol id="icon_arrow_footer" viewBox="0 0 12 6"><path d="M.716.758a.373.373 0 0 1-.111-.27.382.382 0 0 1 .651-.27L6 4.964 10.744.219a.382.382 0 0 1 .54.54L6.27 5.771a.382.382 0 0 1-.54 0L.716.758z"/></symbol><symbol id="icon_arrow_left_light" viewBox="0 0 7 13"><path d="M5.929 12.224c.08.08.181.121.292.121a.414.414 0 0 0 .292-.706L1.373 6.5l5.14-5.14A.414.414 0 0 0 5.93.776L.497 6.208a.414.414 0 0 0 0 .584l5.432 5.432z"/></symbol><symbol id="icon_arrow_right_burger" viewBox="0 0 7 13"><path d="M1.071 12.224a.404.404 0 0 1-.292.121.414.414 0 0 1-.292-.706L5.627 6.5.486 1.36A.414.414 0 0 1 1.07.776l5.432 5.432a.414.414 0 0 1 0 .584L1.07 12.224z"/></symbol><symbol id="icon_arrow_right_small" viewBox="0 0 6 12"><path d="M.758 11.284a.373.373 0 0 1-.27.111.382.382 0 0 1-.27-.651L4.962 6 .218 1.256a.382.382 0 0 1 .54-.54L5.772 5.73a.382.382 0 0 1 0 .54L.758 11.284z"/></symbol><symbol id="icon_arrow_slider_big" viewBox="0 0 21 37"><path d="M2.84.447a1.273 1.273 0 0 0-.922-.381A1.304 1.304 0 0 0 .996 2.29L17.207 18.5.996 34.71a1.304 1.304 0 0 0 1.844 1.843l17.131-17.131a1.304 1.304 0 0 0 0-1.844L2.84.448z"/></symbol><symbol id="icon_arrow_top" viewBox="0 0 26 14"><path d="M25.328 12.231a.87.87 0 0 1 .26.63.89.89 0 0 1-1.52.63L13 2.42 1.93 13.49a.89.89 0 0 1-1.258-1.259L12.37.531a.89.89 0 0 1 1.259 0l11.699 11.7z"/></symbol><symbol id="icon_back" viewBox="0 0 18 14"><path d="M13.53 4.353H1.27l2.577-2.89a.455.455 0 0 0-.679-.605L.265 4.112a1.044 1.044 0 0 0 0 1.39L3.17 8.758a.453.453 0 0 0 .641.036.455.455 0 0 0 .037-.642L1.27 5.262h12.26a3.565 3.565 0 0 1 3.562 3.561 3.565 3.565 0 0 1-3.562 3.562h-2.165a.455.455 0 0 0 0 .909h2.165A4.476 4.476 0 0 0 18 8.824a4.476 4.476 0 0 0-4.47-4.471z"/></symbol><symbol id="icon_call" viewBox="0 0 14 14"><path d="M12.206 5.324v-.539c0-1.288-.456-2.485-1.282-3.373C10.077.5 8.912 0 7.64 0h-.444c-1.27 0-2.435.5-3.282 1.412-.827.888-1.282 2.085-1.282 3.373v.539a1.932 1.932 0 0 0-1.8 1.923v.841a1.93 1.93 0 0 0 1.926 1.927h1.085a.354.354 0 0 0 .353-.353V5.67a.354.354 0 0 0-.353-.353h-.506v-.533c0-2.326 1.66-4.08 3.856-4.08h.444c2.2 0 3.856 1.754 3.856 4.08v.533h-.506a.354.354 0 0 0-.352.353v3.988c0 .194.158.353.352.353h.495c-.145 1.84-1.412 2.267-2 2.364a1.241 1.241 0 0 0-1.18-.855H7.42a1.24 1.24 0 0 0 0 2.479h.885c.57 0 1.05-.388 1.194-.912a3.337 3.337 0 0 0 1.197-.409c.639-.373 1.394-1.135 1.494-2.67A1.929 1.929 0 0 0 14 8.084v-.84a1.922 1.922 0 0 0-1.795-1.921zM3.497 9.306h-.732a1.22 1.22 0 0 1-1.22-1.22v-.842c0-.673.546-1.22 1.22-1.22h.732v3.282zm4.81 3.988H7.42a.532.532 0 1 1 0-1.065h.885a.532.532 0 1 1 0 1.065zm4.99-5.209a1.22 1.22 0 0 1-1.22 1.22h-.733v-3.28h.733c.673 0 1.22.547 1.22 1.22v.841z"/></symbol><symbol id="icon_checkbox_tick" viewBox="0 0 11 9"><path d="M10.839.622a.55.55 0 0 0-.778 0l-6.59 6.59L.94 4.678a.55.55 0 0 0-.778.777l2.922 2.922a.55.55 0 0 0 .778 0L10.839 1.4a.55.55 0 0 0 0-.778z"/></symbol><symbol id="icon_close" viewBox="0 0 14 14"><path d="M13.835 13.035L.965.165a.565.565 0 1 0-.799.8l12.87 12.87a.564.564 0 0 0 .799 0 .566.566 0 0 0 0-.8z"/><path d="M13.835.166a.566.566 0 0 0-.8 0L.166 13.035a.566.566 0 0 0 .8.8L13.835.965a.566.566 0 0 0 0-.8z"/></symbol><symbol id="icon_close_big" viewBox="0 0 14 14"><path d="M14 1.4L12.6 0 7 5.6 1.4 0 0 1.4 5.6 7 0 12.6 1.4 14 7 8.4l5.6 5.6 1.4-1.4L8.4 7 14 1.4z"/></symbol><symbol id="icon_close_bold" viewBox="0 0 10 10"><path d="M7.255 5.707a1 1 0 0 1 0-1.414l2.684-2.684a.208.208 0 0 0 0-.295L8.686.061a.209.209 0 0 0-.295 0L5.707 2.745a1 1 0 0 1-1.414 0L1.609.061a.215.215 0 0 0-.295 0L.06 1.314a.208.208 0 0 0 0 .295l2.684 2.684a1 1 0 0 1 0 1.414L.061 8.391a.208.208 0 0 0 0 .295l1.253 1.253a.209.209 0 0 0 .295 0l2.684-2.684a1 1 0 0 1 1.414 0l2.684 2.684a.209.209 0 0 0 .295 0l1.253-1.253a.208.208 0 0 0 0-.295L7.255 5.707z"/></symbol><symbol id="icon_email" viewBox="0 0 13 11"><path d="M1.143.549h10.714c.63 0 1.143.513 1.143 1.142V9.31c0 .627-.511 1.142-1.143 1.142H1.143A1.144 1.144 0 0 1 0 9.31V1.69C0 1.064.511.55 1.143.55zm.157.762l5.176 5.175 5.22-5.175H1.3zm10.938 7.84V1.845L8.57 5.482l3.668 3.669zm-.538.538L8.029 6.02 6.743 7.294a.38.38 0 0 1-.538-.001L4.951 6.039l-3.65 3.65H11.7zM.762 9.151L4.412 5.5.763 1.85v7.3z"/></symbol><symbol id="icon_fb" viewBox="0 0 11 16"><path d="M10.406.003L7.812 0C4.898 0 3.015 1.514 3.015 3.856v1.778H.408c-.226 0-.408.143-.408.32V8.53c0 .176.183.32.408.32h2.607v6.5c0 .176.183.32.408.32h3.403c.225 0 .407-.144.407-.32v-6.5h3.05c.225 0 .407-.144.407-.32l.001-2.576a.29.29 0 0 0-.119-.226.471.471 0 0 0-.289-.094h-3.05V4.127c0-.724.22-1.092 1.425-1.092h1.747c.225 0 .408-.144.408-.32V.323c0-.176-.182-.32-.407-.32z"/></symbol><symbol id="icon_grid_lg_one" viewBox="0 0 19 14"><path d="M0 0h19v14H0z"/></symbol><symbol id="icon_grid_lg_two" viewBox="0 0 19 14"><path fill-rule="evenodd" clip-rule="evenodd" d="M9 0H0v14h9V0zm10 0h-9v14h9V0z"/></symbol><symbol id="icon_grid_one" viewBox="0 0 17 14"><path fill-rule="evenodd" clip-rule="evenodd" d="M0 0h5v14H0V0zm6 0h5v14H6V0zm11 0h-5v14h5V0z"/></symbol><symbol id="icon_grid_three" viewBox="0 0 17 14"><path fill-rule="evenodd" clip-rule="evenodd" d="M0 0h5v4H0V0zm6 0h5v4H6V0zm11 0h-5v4h5V0zM0 5h5v4H0V5zm11 0H6v4h5V5zm1 0h5v4h-5V5zm-7 5H0v4h5v-4zm1 0h5v4H6v-4zm11 0h-5v4h5v-4z"/></symbol><symbol id="icon_grid_two" viewBox="0 0 17 14"><path fill-rule="evenodd" clip-rule="evenodd" d="M8 0H0v7h8V0zm9 0H9v7h8V0zM9 8h8v6H9V8zM8 8H0v6h8V8z"/></symbol><symbol id="icon_heart" viewBox="0 0 22 19"><path d="M20.323 1.918a5.7 5.7 0 0 0-4.056-1.68 5.698 5.698 0 0 0-4.055 1.68l-.79.79-.79-.79A5.698 5.698 0 0 0 6.577.238a5.699 5.699 0 0 0-4.056 1.68 5.698 5.698 0 0 0-1.68 4.056 5.7 5.7 0 0 0 1.68 4.055l8.614 8.614a.406.406 0 0 0 .574 0l8.614-8.614a5.741 5.741 0 0 0 0-8.11zm-.574 7.537l-8.327 8.328-8.327-8.328a4.89 4.89 0 0 1-1.442-3.481 4.89 4.89 0 0 1 1.442-3.482A4.892 4.892 0 0 1 6.577 1.05a4.89 4.89 0 0 1 3.481 1.442l1.077 1.077a.418.418 0 0 0 .574 0l1.076-1.077a4.893 4.893 0 0 1 3.482-1.442c1.315 0 2.551.512 3.482 1.442a4.929 4.929 0 0 1 0 6.963z"/></symbol><symbol id="icon_heart_new" viewBox="0 0 18 18"><path d="M9 17.409a.61.61 0 0 1-.446-.195L1.36 9.46a.506.506 0 0 1-.006-.006C.481 8.488 0 7.206 0 5.846c0-1.36.48-2.64 1.354-3.608l.11-.12C2.351 1.132 3.538.59 4.804.59c1.267 0 2.453.542 3.342 1.526L9 3.062l.853-.944C10.742 1.133 11.928.59 13.195.59c1.266 0 2.453.542 3.342 1.527l.109.12C17.519 3.205 18 4.487 18 5.846c0 1.36-.48 2.642-1.354 3.608a.152.152 0 0 1-.006.007l-7.194 7.753A.61.61 0 0 1 9 17.41zM2.255 8.635L9 15.905l6.745-7.27c1.387-1.54 1.386-4.042-.003-5.58l-.11-.121c-.654-.725-1.52-1.125-2.437-1.125-.918 0-1.784.4-2.438 1.125L9.452 4.378a.609.609 0 0 1-.904 0L7.244 2.934c-.655-.725-1.521-1.125-2.439-1.125-.917 0-1.783.4-2.438 1.125l-.109.12c-1.39 1.54-1.39 4.042-.003 5.581z"/></symbol><symbol id="icon_instagram" viewBox="0 0 18 17"><path fill-rule="evenodd" clip-rule="evenodd" d="M13.127 0H4.872C2.186 0 0 2.064 0 4.602v7.796C0 14.936 2.186 17 4.872 17h8.256C15.814 17 18 14.936 18 12.398V4.602C18 2.064 15.814 0 13.127 0zM9 13.148c-2.714 0-4.922-2.085-4.922-4.648 0-2.563 2.208-4.648 4.922-4.648 2.714 0 4.922 2.085 4.922 4.648 0 2.563-2.208 4.648-4.922 4.648zm5.04-8.2c-.803 0-1.455-.616-1.455-1.374 0-.757.652-1.373 1.454-1.373.802 0 1.455.616 1.455 1.373 0 .758-.653 1.374-1.455 1.374zM9 4.848c-2.133 0-3.867 1.638-3.867 3.652 0 2.013 1.734 3.652 3.866 3.652s3.867-1.639 3.867-3.652c0-2.014-1.735-3.652-3.867-3.652zm4.64-1.274c0-.208.18-.377.4-.377.22 0 .399.17.399.377 0 .208-.18.377-.4.377a.388.388 0 0 1-.398-.377z"/></symbol><symbol id="icon_package" viewBox="0 0 27 15"><g clip-path="url(#clip0)"><path d="M9.464 7.587H.361a.348.348 0 0 1-.309-.177.347.347 0 0 1 0-.354l3.331-5.8a.363.363 0 0 1 .273-.176l9.627-1.082a.35.35 0 0 1 .338.156.357.357 0 0 1 .014.367L9.773 7.403a.346.346 0 0 1-.309.184zM.978 6.879h8.27L12.674.776l-8.758.99L.978 6.88z"/><path d="M26.64 7.588h-9.102a.366.366 0 0 1-.316-.183L13.432.523a.343.343 0 0 1 .02-.367A.37.37 0 0 1 13.79 0l9.563 1.09a.363.363 0 0 1 .272.176l3.317 5.77a.328.328 0 0 1 .065.199.368.368 0 0 1-.366.353zm-8.887-.707h8.27l-2.936-5.113-8.694-.99 3.36 6.103z"/><path d="M13.13 14.936l-.058-12.284.718-.007.058 11.471 8.902-1.33v-4.42h.717v5.029L13.13 14.936z"/><path d="M13.604 15L3.367 13.642v-5.63h.718v5.015l9.62 1.273-.1.7z"/></g></symbol><symbol id="icon_phone_footer" viewBox="0 0 17 17"><path d="M16.992 13.414a.822.822 0 0 1-.252.72l-2.394 2.375c-.108.12-.249.222-.422.306a1.746 1.746 0 0 1-.513.162 2.437 2.437 0 0 1-.342.018c-.228 0-.597-.039-1.107-.117-.51-.078-1.134-.27-1.872-.576-.738-.306-1.575-.765-2.51-1.376-.936-.612-1.932-1.452-2.988-2.52-.84-.828-1.536-1.62-2.087-2.376a16.922 16.922 0 0 1-1.332-2.096 11.292 11.292 0 0 1-.756-1.746 9.261 9.261 0 0 1-.342-1.35 4.457 4.457 0 0 1-.072-.89c.012-.216.018-.336.018-.36a1.75 1.75 0 0 1 .162-.513c.084-.174.186-.315.306-.423L2.882.258a.793.793 0 0 1 .576-.252c.156 0 .294.045.414.135.12.09.222.201.306.333l1.926 3.654a.876.876 0 0 1 .09.63c-.048.227-.15.42-.306.575l-.882.882a.3.3 0 0 0-.063.117.444.444 0 0 0-.027.135c.048.252.156.54.324.864.144.288.366.639.666 1.053.3.414.726.89 1.278 1.43.54.553 1.02.981 1.44 1.287.42.306.77.531 1.052.675.282.144.498.231.648.261l.225.045a.428.428 0 0 0 .117-.027.3.3 0 0 0 .117-.063l1.026-1.044c.216-.192.468-.288.756-.288.204 0 .366.036.486.108h.018l3.473 2.052c.252.156.402.354.45.594z"/></symbol><symbol id="icon_pin" viewBox="0 0 12 18"><path d="M6.42 4.456c-1.11 0-2.01.943-2.01 2.096s.9 2.095 2.01 2.095c1.11 0 2.01-.942 2.01-2.095 0-1.153-.9-2.096-2.01-2.096zm0 3.507c-.743 0-1.35-.631-1.35-1.411S5.677 5.14 6.42 5.14c.742 0 1.35.63 1.35 1.41 0 .78-.608 1.412-1.35 1.412z" stroke-width=".1"/><path d="M2.537 2.607c-.948.99-1.48 2.412-1.572 3.866-.093 1.454.252 2.945 1.062 4.072l4.301 6.483.042.062.042-.062 4.295-6.474c.813-1.132 1.16-2.625 1.068-4.08-.092-1.455-.623-2.878-1.572-3.867C9.18 1.539 7.818.95 6.37.95c-1.448 0-2.81.589-3.833 1.657zm0 0l.036.034-.036-.034zm7.634 7.548v.002l-3.8 5.726-3.807-5.736-.001-.001c-.72-1.002-1.03-2.328-.949-3.625.082-1.297.554-2.558 1.391-3.432A4.63 4.63 0 0 1 6.37 1.634 4.63 4.63 0 0 1 9.735 3.09c.838.874 1.31 2.135 1.39 3.433.08 1.298-.23 2.627-.954 3.633z" stroke-width=".1"/></symbol><symbol id="icon_remove" viewBox="0 0 12 15"><path d="M5.893 12.966a.25.25 0 0 0 .245-.254v-8.39a.25.25 0 0 0-.245-.254.25.25 0 0 0-.246.254v8.39c0 .14.11.254.246.254zm-2.456 0a.25.25 0 0 0 .246-.254v-8.39a.25.25 0 0 0-.246-.254.25.25 0 0 0-.245.254v8.39c0 .14.11.254.245.254zm4.911 0a.25.25 0 0 0 .246-.254v-8.39a.25.25 0 0 0-.246-.254.25.25 0 0 0-.245.254v8.39c0 .14.11.254.245.254z"/><path d="M11.54 1.525H8.092C8.065 1.208 7.97.672 7.647.328A1.021 1.021 0 0 0 6.875 0H4.42c-.308 0-.568.11-.772.328-.324.344-.418.88-.445 1.197H.246A.25.25 0 0 0 0 1.78c0 .14.11.254.246.254h.5l.47 11.7c.01.438.273 1.266 1.206 1.266h6.942c.932 0 1.196-.828 1.205-1.26l.47-11.706h.501a.25.25 0 0 0 .246-.254.25.25 0 0 0-.246-.255zM4 .682a.547.547 0 0 1 .42-.174h2.455c.172 0 .31.057.42.174.197.209.276.577.304.843H3.696c.028-.266.107-.634.304-.843zm6.078 13.041c-.002.079-.036.768-.714.768H2.422c-.671 0-.712-.69-.714-.773l-.47-11.684h9.31l-.47 11.69z"/></symbol><symbol id="icon_repeat" viewBox="0 0 13 15"><path d="M12.709 6.354A6.361 6.361 0 0 0 6.354 0 6.362 6.362 0 0 0 0 6.354a.377.377 0 0 0 .754 0c0-3.088 2.512-5.6 5.6-5.6 3.088 0 5.6 2.512 5.6 5.6 0 3.088-2.512 5.6-5.6 5.6H5.7l.935-1.046a.377.377 0 0 0-.562-.502l-1.336 1.496a.644.644 0 0 0 0 .86l1.336 1.495a.376.376 0 1 0 .562-.502L5.7 12.71h.654a6.361 6.361 0 0 0 6.355-6.355z"/></symbol><symbol id="icon_search" viewBox="0 0 18 18"><path d="M17.402 16.39l-4.141-4.142A7.262 7.262 0 0 0 7.647.386a7.26 7.26 0 1 0 0 14.52 7.222 7.222 0 0 0 4.598-1.642l4.141 4.138a.717.717 0 1 0 1.016-1.012zm-9.756-2.93a5.822 5.822 0 0 1-5.818-5.815 5.825 5.825 0 0 1 5.818-5.818 5.828 5.828 0 0 1 5.819 5.818 5.825 5.825 0 0 1-5.819 5.815z"/></symbol><symbol id="icon_tick_simple" viewBox="0 0 13 11"><path d="M4.136 8.38L1.034 5.279 0 6.312l4.136 4.137L13 1.585 11.966.551l-7.83 7.83z"/></symbol><symbol id="icon_user" viewBox="0 0 13 13"><path d="M11.096 8.404a6.475 6.475 0 0 0-2.47-1.55A3.756 3.756 0 0 0 6.5 0a3.756 3.756 0 1 0-2.126 6.854 6.475 6.475 0 0 0-2.47 1.55A6.458 6.458 0 0 0 0 13h1.016A5.49 5.49 0 0 1 6.5 7.516 5.49 5.49 0 0 1 11.984 13H13a6.457 6.457 0 0 0-1.904-4.596zM6.5 6.5a2.745 2.745 0 0 1-2.742-2.742A2.745 2.745 0 0 1 6.5 1.016a2.745 2.745 0 0 1 2.742 2.742A2.745 2.745 0 0 1 6.5 6.5z"/></symbol><symbol id="icon_youtube" viewBox="0 0 20 16"><path d="M19.22 2.17c-.72-.857-2.053-1.207-4.6-1.207H5.38C2.776.962 1.42 1.335.7 2.25 0 3.139 0 4.452 0 6.269V9.73c0 3.52.832 5.307 5.38 5.307h9.24c2.208 0 3.43-.31 4.222-1.067.812-.776 1.158-2.044 1.158-4.24V6.27c0-1.916-.054-3.236-.78-4.098zm-6.38 6.308l-4.196 2.193a.644.644 0 0 1-.944-.572V5.727a.645.645 0 0 1 .943-.572l4.196 2.179a.645.645 0 0 1 .001 1.144z"/></symbol></svg>