<svg xmlns="http://www.w3.org/2000/svg"><symbol id="icon_arrow" viewBox="0 0 9 5"><path d="M.093.543A.31.31 0 0 1 0 .318.318.318 0 0 1 .543.093l3.953 3.954L8.45.093a.318.318 0 0 1 .45.45L4.72 4.72a.318.318 0 0 1-.449 0L.093.543z"/></symbol><symbol id="icon_arrow_button" viewBox="0 0 25 10"><path fill-rule="evenodd" clip-rule="evenodd" d="M20.271 9.009c.081 0 .155-.03.214-.089l3.963-3.963a.302.302 0 0 0 0-.427L20.485.566a.302.302 0 0 0-.427.427l3.386 3.385H0v.73h23.444l-3.386 3.386a.302.302 0 0 0 .213.515z"/></symbol><symbol id="icon_arrow_footer" viewBox="0 0 12 6"><path d="M.716.758a.373.373 0 0 1-.111-.27.382.382 0 0 1 .651-.27L6 4.964 10.744.219a.382.382 0 0 1 .54.54L6.27 5.771a.382.382 0 0 1-.54 0L.716.758z"/></symbol><symbol id="icon_arrow_left_light" viewBox="0 0 7 13"><path d="M5.929 12.224c.08.08.181.121.292.121a.414.414 0 0 0 .292-.706L1.373 6.5l5.14-5.14A.414.414 0 0 0 5.93.776L.497 6.208a.414.414 0 0 0 0 .584l5.432 5.432z"/></symbol><symbol id="icon_arrow_right" viewBox="0 0 10 15"><path d="M1.75 0L0 1.75 5.75 7.5 0 13.25 1.75 15l7.5-7.5L1.75 0z"/></symbol><symbol id="icon_arrow_right_burger" viewBox="0 0 7 13"><path d="M1.071 12.224a.404.404 0 0 1-.292.121.414.414 0 0 1-.292-.706L5.627 6.5.486 1.36A.414.414 0 0 1 1.07.776l5.432 5.432a.414.414 0 0 1 0 .584L1.07 12.224z"/></symbol><symbol id="icon_arrow_top" viewBox="0 0 20 11"><path d="M.205 10.787a.693.693 0 0 0 .999 0L9.99 1.736l8.804 9.051a.693.693 0 0 0 1 0 .742.742 0 0 0 0-1.027L10.506.213a.68.68 0 0 0-.5-.213.71.71 0 0 0-.5.213L.223 9.76a.726.726 0 0 0-.017 1.027z"/></symbol><symbol id="icon_call" viewBox="0 0 14 14"><path d="M12.206 5.324v-.539c0-1.288-.456-2.485-1.282-3.373C10.077.5 8.912 0 7.64 0h-.444c-1.27 0-2.435.5-3.282 1.412-.827.888-1.282 2.085-1.282 3.373v.539a1.932 1.932 0 0 0-1.8 1.923v.841a1.93 1.93 0 0 0 1.926 1.927h1.085a.354.354 0 0 0 .353-.353V5.67a.354.354 0 0 0-.353-.353h-.506v-.533c0-2.326 1.66-4.08 3.856-4.08h.444c2.2 0 3.856 1.754 3.856 4.08v.533h-.506a.354.354 0 0 0-.352.353v3.988c0 .194.158.353.352.353h.495c-.145 1.84-1.412 2.267-2 2.364a1.241 1.241 0 0 0-1.18-.855H7.42a1.24 1.24 0 0 0 0 2.479h.885c.57 0 1.05-.388 1.194-.912a3.337 3.337 0 0 0 1.197-.409c.639-.373 1.394-1.135 1.494-2.67A1.929 1.929 0 0 0 14 8.084v-.84a1.922 1.922 0 0 0-1.795-1.921zM3.497 9.306h-.732a1.22 1.22 0 0 1-1.22-1.22v-.842c0-.673.546-1.22 1.22-1.22h.732v3.282zm4.81 3.988H7.42a.532.532 0 1 1 0-1.065h.885a.532.532 0 1 1 0 1.065zm4.99-5.209a1.22 1.22 0 0 1-1.22 1.22h-.733v-3.28h.733c.673 0 1.22.547 1.22 1.22v.841z"/></symbol><symbol id="icon_close" viewBox="0 0 14 14"><path d="M13.835 13.035L.965.165a.565.565 0 1 0-.799.8l12.87 12.87a.564.564 0 0 0 .799 0 .566.566 0 0 0 0-.8z"/><path d="M13.835.166a.566.566 0 0 0-.8 0L.166 13.035a.566.566 0 0 0 .8.8L13.835.965a.566.566 0 0 0 0-.8z"/></symbol><symbol id="icon_close_big" viewBox="0 0 14 14"><path d="M14 1.4L12.6 0 7 5.6 1.4 0 0 1.4 5.6 7 0 12.6 1.4 14 7 8.4l5.6 5.6 1.4-1.4L8.4 7 14 1.4z"/></symbol><symbol id="icon_close_bold" viewBox="0 0 10 10"><path d="M7.255 5.707a1 1 0 0 1 0-1.414l2.684-2.684a.208.208 0 0 0 0-.295L8.686.061a.209.209 0 0 0-.295 0L5.707 2.745a1 1 0 0 1-1.414 0L1.609.061a.215.215 0 0 0-.295 0L.06 1.314a.208.208 0 0 0 0 .295l2.684 2.684a1 1 0 0 1 0 1.414L.061 8.391a.208.208 0 0 0 0 .295l1.253 1.253a.209.209 0 0 0 .295 0l2.684-2.684a1 1 0 0 1 1.414 0l2.684 2.684a.209.209 0 0 0 .295 0l1.253-1.253a.208.208 0 0 0 0-.295L7.255 5.707z"/></symbol><symbol id="icon_delivery" viewBox="0 0 18 19"><path d="M17.653 4.192L9.026.028a.278.278 0 0 0-.242 0L.157 4.192a.278.278 0 0 0-.157.25v10.115c0 .107.061.204.157.25l8.627 4.165a.278.278 0 0 0 .242 0l8.627-4.164a.278.278 0 0 0 .157-.251V4.443a.278.278 0 0 0-.157-.25zM8.905.587l7.987 3.856-2.316 1.118a.278.278 0 0 0-.047-.03L6.597 1.7 8.905.588zm-2.937 1.43l7.975 3.85-1.633.788-7.972-3.849 1.63-.79zm8.162 4.377V9.31l-1.526.737V7.13l1.526-.737zm3.123 7.988l-8.07 3.896V8.782l1.925-.93a.278.278 0 1 0-.242-.5l-1.961.947-.772-.373a.278.278 0 1 0-.242.501l.736.355v9.496l-8.07-3.896V4.886l6.145 2.967a.277.277 0 0 0 .372-.13.278.278 0 0 0-.13-.371L.918 4.442l2.765-1.334 8.36 4.036.005.005v3.34a.278.278 0 0 0 .399.25l2.082-1.005a.278.278 0 0 0 .158-.25V6.126l2.566-1.24v9.496z"/></symbol><symbol id="icon_done" viewBox="0 0 16 16"><path d="M8 0C3.589 0 0 3.589 0 8s3.589 8 8 8 8-3.589 8-8-3.589-8-8-8zm0 15.385C3.928 15.385.615 12.072.615 8 .615 3.928 3.928.615 8 .615c4.072 0 7.385 3.313 7.385 7.385 0 4.072-3.313 7.385-7.385 7.385z"/><path d="M11.5 5.1l-4.39 5.188-2.646-2.222a.277.277 0 0 0-.401.047.31.31 0 0 0 .044.421l2.857 2.4a.277.277 0 0 0 .393-.035l4.57-5.4a.31.31 0 0 0-.023-.423.276.276 0 0 0-.404.025z"/></symbol><symbol id="icon_fb" viewBox="0 0 11 16"><path d="M10.406.003L7.812 0C4.898 0 3.015 1.514 3.015 3.856v1.778H.408c-.226 0-.408.143-.408.32V8.53c0 .176.183.32.408.32h2.607v6.5c0 .176.183.32.408.32h3.403c.225 0 .407-.144.407-.32v-6.5h3.05c.225 0 .407-.144.407-.32l.001-2.576a.29.29 0 0 0-.119-.226.471.471 0 0 0-.289-.094h-3.05V4.127c0-.724.22-1.092 1.425-1.092h1.747c.225 0 .408-.144.408-.32V.323c0-.176-.182-.32-.407-.32z"/></symbol><symbol id="icon_grid_four" viewBox="0 0 26 14"><path d="M0 0h5v14H0zm7 0h5v14H7zm7 0h5v14h-5zm7 0h5v14h-5z"/></symbol><symbol id="icon_grid_one" viewBox="0 0 5 13"><path d="M0 0h4.643v13H0z"/></symbol><symbol id="icon_grid_three" viewBox="0 0 19 14"><path d="M0 0h5v14H0zm7 0h5v14H7zm7 0h5v14h-5z"/></symbol><symbol id="icon_grid_two" viewBox="0 0 12 13"><path d="M.857 0H5.5v13H.857zm6.5 0H12v13H7.357z"/></symbol><symbol id="icon_heart" viewBox="0 0 22 19"><path d="M20.323 1.918a5.7 5.7 0 0 0-4.056-1.68 5.698 5.698 0 0 0-4.055 1.68l-.79.79-.79-.79A5.698 5.698 0 0 0 6.577.238a5.699 5.699 0 0 0-4.056 1.68 5.698 5.698 0 0 0-1.68 4.056 5.7 5.7 0 0 0 1.68 4.055l8.614 8.614a.406.406 0 0 0 .574 0l8.614-8.614a5.741 5.741 0 0 0 0-8.11zm-.574 7.537l-8.327 8.328-8.327-8.328a4.89 4.89 0 0 1-1.442-3.481 4.89 4.89 0 0 1 1.442-3.482A4.892 4.892 0 0 1 6.577 1.05a4.89 4.89 0 0 1 3.481 1.442l1.077 1.077a.418.418 0 0 0 .574 0l1.076-1.077a4.893 4.893 0 0 1 3.482-1.442c1.315 0 2.551.512 3.482 1.442a4.929 4.929 0 0 1 0 6.963z"/></symbol><symbol id="icon_instagram" viewBox="0 0 18 17"><path fill-rule="evenodd" clip-rule="evenodd" d="M13.127 0H4.872C2.186 0 0 2.064 0 4.602v7.796C0 14.936 2.186 17 4.872 17h8.256C15.814 17 18 14.936 18 12.398V4.602C18 2.064 15.814 0 13.127 0zM9 13.148c-2.714 0-4.922-2.085-4.922-4.648 0-2.563 2.208-4.648 4.922-4.648 2.714 0 4.922 2.085 4.922 4.648 0 2.563-2.208 4.648-4.922 4.648zm5.04-8.2c-.803 0-1.455-.616-1.455-1.374 0-.757.652-1.373 1.454-1.373.802 0 1.455.616 1.455 1.373 0 .758-.653 1.374-1.455 1.374zM9 4.848c-2.133 0-3.867 1.638-3.867 3.652 0 2.013 1.734 3.652 3.866 3.652s3.867-1.639 3.867-3.652c0-2.014-1.735-3.652-3.867-3.652zm4.64-1.274c0-.208.18-.377.4-.377.22 0 .399.17.399.377 0 .208-.18.377-.4.377a.388.388 0 0 1-.398-.377z"/></symbol><symbol id="icon_mail" viewBox="0 0 26 19"><path d="M21.05 14.276a.415.415 0 0 1-.286-.114L15.94 9.636a.419.419 0 1 1 .574-.61l4.825 4.526a.419.419 0 0 1-.288.724zm-16.102 0a.42.42 0 0 1-.288-.724l4.826-4.526a.42.42 0 0 1 .574.61l-4.825 4.526a.415.415 0 0 1-.287.114z"/><path d="M23.904 18.484H2.096A2.098 2.098 0 0 1 0 16.388V2.096C0 .94.94 0 2.096 0h21.808C25.059 0 26 .94 26 2.096v14.292c0 1.156-.94 2.096-2.096 2.096zM2.096.838A1.26 1.26 0 0 0 .838 2.096v14.292a1.26 1.26 0 0 0 1.258 1.257h21.808a1.26 1.26 0 0 0 1.258-1.257V2.096A1.26 1.26 0 0 0 23.904.838H2.096z"/><path d="M13 11.348a2.344 2.344 0 0 1-1.54-.555L.697 1.403A.42.42 0 0 1 .655.81a.422.422 0 0 1 .591-.04l10.765 9.39c.536.466 1.442.466 1.976 0L24.74.785a.42.42 0 0 1 .552.632L14.54 10.792c-.425.37-.982.555-1.54.555z"/></symbol><symbol id="icon_minus" viewBox="0 0 11 2"><path d="M10.45 2H.55a.55.55 0 1 1 0-1.1h9.9a.55.55 0 1 1 0 1.1z"/></symbol><symbol id="icon_phone_footer" viewBox="0 0 17 17"><path d="M16.992 13.414a.822.822 0 0 1-.252.72l-2.394 2.375c-.108.12-.249.222-.422.306a1.746 1.746 0 0 1-.513.162 2.437 2.437 0 0 1-.342.018c-.228 0-.597-.039-1.107-.117-.51-.078-1.134-.27-1.872-.576-.738-.306-1.575-.765-2.51-1.376-.936-.612-1.932-1.452-2.988-2.52-.84-.828-1.536-1.62-2.087-2.376a16.922 16.922 0 0 1-1.332-2.096 11.292 11.292 0 0 1-.756-1.746 9.261 9.261 0 0 1-.342-1.35 4.457 4.457 0 0 1-.072-.89c.012-.216.018-.336.018-.36a1.75 1.75 0 0 1 .162-.513c.084-.174.186-.315.306-.423L2.882.258a.793.793 0 0 1 .576-.252c.156 0 .294.045.414.135.12.09.222.201.306.333l1.926 3.654a.876.876 0 0 1 .09.63c-.048.227-.15.42-.306.575l-.882.882a.3.3 0 0 0-.063.117.444.444 0 0 0-.027.135c.048.252.156.54.324.864.144.288.366.639.666 1.053.3.414.726.89 1.278 1.43.54.553 1.02.981 1.44 1.287.42.306.77.531 1.052.675.282.144.498.231.648.261l.225.045a.428.428 0 0 0 .117-.027.3.3 0 0 0 .117-.063l1.026-1.044c.216-.192.468-.288.756-.288.204 0 .366.036.486.108h.018l3.473 2.052c.252.156.402.354.45.594z"/></symbol><symbol id="icon_pin" viewBox="0 0 12 18"><path d="M6.42 4.456c-1.11 0-2.01.943-2.01 2.096s.9 2.095 2.01 2.095c1.11 0 2.01-.942 2.01-2.095 0-1.153-.9-2.096-2.01-2.096zm0 3.507c-.743 0-1.35-.631-1.35-1.411S5.677 5.14 6.42 5.14c.742 0 1.35.63 1.35 1.41 0 .78-.608 1.412-1.35 1.412z" stroke-width=".1"/><path d="M2.537 2.607c-.948.99-1.48 2.412-1.572 3.866-.093 1.454.252 2.945 1.062 4.072l4.301 6.483.042.062.042-.062 4.295-6.474c.813-1.132 1.16-2.625 1.068-4.08-.092-1.455-.623-2.878-1.572-3.867C9.18 1.539 7.818.95 6.37.95c-1.448 0-2.81.589-3.833 1.657zm0 0l.036.034-.036-.034zm7.634 7.548v.002l-3.8 5.726-3.807-5.736-.001-.001c-.72-1.002-1.03-2.328-.949-3.625.082-1.297.554-2.558 1.391-3.432A4.63 4.63 0 0 1 6.37 1.634 4.63 4.63 0 0 1 9.735 3.09c.838.874 1.31 2.135 1.39 3.433.08 1.298-.23 2.627-.954 3.633z" stroke-width=".1"/></symbol><symbol id="icon_plus" viewBox="0 0 10 10"><path d="M10 4.524H5.476V0h-.952v4.524H0v.952h4.524V10h.952V5.476H10v-.952z"/></symbol><symbol id="icon_refresh" viewBox="0 0 612.035 612.035"><path d="M323.128 56.236l5.646-9.57 40.17-40.169C271.247-13.921 165.482 13.786 89.65 89.646-16.421 195.717-28.355 360.261 53.875 479.49L10.98 522.386l137.7 19.667-19.667-137.7-34.968 34.967c-60.978-96.724-49.322-226.078 34.94-310.34 53.244-53.243 124.486-77.501 194.143-72.744zm258.264 13.743l-137.7-19.667 19.668 137.7 38.25-38.25c78.726 98.31 72.521 242.186-18.583 333.317-61.116 61.117-145.989 84.039-224.882 68.739l-45.65 45.649c105.654 33.799 226.05 8.791 309.895-75.054 112.858-112.858 119.146-291.979 18.805-412.209l40.197-40.225z"/></symbol><symbol id="icon_remove" viewBox="0 0 12 15"><path d="M5.893 12.966a.25.25 0 0 0 .245-.254v-8.39a.25.25 0 0 0-.245-.254.25.25 0 0 0-.246.254v8.39c0 .14.11.254.246.254zm-2.456 0a.25.25 0 0 0 .246-.254v-8.39a.25.25 0 0 0-.246-.254.25.25 0 0 0-.245.254v8.39c0 .14.11.254.245.254zm4.911 0a.25.25 0 0 0 .246-.254v-8.39a.25.25 0 0 0-.246-.254.25.25 0 0 0-.245.254v8.39c0 .14.11.254.245.254z"/><path d="M11.54 1.525H8.092C8.065 1.208 7.97.672 7.647.328A1.021 1.021 0 0 0 6.875 0H4.42c-.308 0-.568.11-.772.328-.324.344-.418.88-.445 1.197H.246A.25.25 0 0 0 0 1.78c0 .14.11.254.246.254h.5l.47 11.7c.01.438.273 1.266 1.206 1.266h6.942c.932 0 1.196-.828 1.205-1.26l.47-11.706h.501a.25.25 0 0 0 .246-.254.25.25 0 0 0-.246-.255zM4 .682a.547.547 0 0 1 .42-.174h2.455c.172 0 .31.057.42.174.197.209.276.577.304.843H3.696c.028-.266.107-.634.304-.843zm6.078 13.041c-.002.079-.036.768-.714.768H2.422c-.671 0-.712-.69-.714-.773l-.47-11.684h9.31l-.47 11.69z"/></symbol><symbol id="icon_repeat" viewBox="0 0 13 15"><path d="M12.709 6.354A6.361 6.361 0 0 0 6.354 0 6.362 6.362 0 0 0 0 6.354a.377.377 0 0 0 .754 0c0-3.088 2.512-5.6 5.6-5.6 3.088 0 5.6 2.512 5.6 5.6 0 3.088-2.512 5.6-5.6 5.6H5.7l.935-1.046a.377.377 0 0 0-.562-.502l-1.336 1.496a.644.644 0 0 0 0 .86l1.336 1.495a.376.376 0 1 0 .562-.502L5.7 12.71h.654a6.361 6.361 0 0 0 6.355-6.355z"/></symbol><symbol id="icon_search" viewBox="0 0 18 18"><path d="M17.402 16.39l-4.141-4.142A7.262 7.262 0 0 0 7.647.386a7.26 7.26 0 1 0 0 14.52 7.222 7.222 0 0 0 4.598-1.642l4.141 4.138a.717.717 0 1 0 1.016-1.012zm-9.756-2.93a5.822 5.822 0 0 1-5.818-5.815 5.825 5.825 0 0 1 5.818-5.818 5.828 5.828 0 0 1 5.819 5.818 5.825 5.825 0 0 1-5.819 5.815z"/></symbol><symbol id="icon_star" viewBox="0 0 39 37"><path fill-rule="evenodd" d="M19.5 2.501l5.603 10.056 11.395 2.166-7.933 8.382 1.44 11.394L19.5 29.623 8.995 34.499l1.439-11.394-7.932-8.382 11.395-2.166L19.5 2.501"/></symbol><symbol id="icon_tick" viewBox="0 0 18 18"><path d="M9 0a9 9 0 1 0 0 18A9 9 0 0 0 9 0zM7.349 13.623L3.386 9.66l1.321-1.32 2.642 2.641 5.944-5.944 1.32 1.321-7.264 7.265z"/></symbol><symbol id="icon_tick_simple" viewBox="0 0 13 11"><path d="M4.136 8.38L1.034 5.279 0 6.312l4.136 4.137L13 1.585 11.966.551l-7.83 7.83z"/></symbol><symbol id="icon_user" viewBox="0 0 13 13"><path d="M11.096 8.404a6.475 6.475 0 0 0-2.47-1.55A3.756 3.756 0 0 0 6.5 0a3.756 3.756 0 1 0-2.126 6.854 6.475 6.475 0 0 0-2.47 1.55A6.458 6.458 0 0 0 0 13h1.016A5.49 5.49 0 0 1 6.5 7.516 5.49 5.49 0 0 1 11.984 13H13a6.457 6.457 0 0 0-1.904-4.596zM6.5 6.5a2.745 2.745 0 0 1-2.742-2.742A2.745 2.745 0 0 1 6.5 1.016a2.745 2.745 0 0 1 2.742 2.742A2.745 2.745 0 0 1 6.5 6.5z"/></symbol><symbol id="icon_youtube" viewBox="0 0 20 16"><path d="M19.22 2.17c-.72-.857-2.053-1.207-4.6-1.207H5.38C2.776.962 1.42 1.335.7 2.25 0 3.139 0 4.452 0 6.269V9.73c0 3.52.832 5.307 5.38 5.307h9.24c2.208 0 3.43-.31 4.222-1.067.812-.776 1.158-2.044 1.158-4.24V6.27c0-1.916-.054-3.236-.78-4.098zm-6.38 6.308l-4.196 2.193a.644.644 0 0 1-.944-.572V5.727a.645.645 0 0 1 .943-.572l4.196 2.179a.645.645 0 0 1 .001 1.144z"/></symbol></svg>