<svg width="29" height="29" viewBox="0 0 29 29" fill="none" xmlns="http://www.w3.org/2000/svg"><path d="M28.503 5.187a5.28 5.28 0 0 0-4.69-4.69 87.59 87.59 0 0 0-18.626 0 5.28 5.28 0 0 0-4.69 4.69 87.59 87.59 0 0 0 0 18.626 5.28 5.28 0 0 0 4.69 4.69 87.591 87.591 0 0 0 18.626 0 5.28 5.28 0 0 0 4.69-4.69 87.588 87.588 0 0 0 0-18.626z" fill="url(#a)"/><path d="M26.926 6.236a4.686 4.686 0 0 0-4.162-4.162 77.756 77.756 0 0 0-16.528 0 4.686 4.686 0 0 0-4.162 4.162 77.754 77.754 0 0 0 0 16.528 4.686 4.686 0 0 0 4.162 4.162 77.728 77.728 0 0 0 16.528 0 4.685 4.685 0 0 0 4.162-4.162 77.715 77.715 0 0 0 0-16.528z" fill="url(#b)"/><path d="M.435 23.212c.02.2.04.4.062.601a5.28 5.28 0 0 0 4.69 4.69 87.589 87.589 0 0 0 18.626 0 5.28 5.28 0 0 0 4.69-4.69c.022-.2.043-.401.063-.601H.435z" fill="url(#c)"/><path d="M28.504 23.813c.356-3.333.52-6.671.493-10.009L22.37 7.176c-.829-.946-2.038-1.536-3.46-1.587-2.923-.105-5.855-.1-8.778 0-2.428.084-4.126 1.716-4.562 4.115-.076.423-.122.852-.183 1.279v7.032c.034.227.083.454.098.683.097 1.46.697 2.71 1.657 3.555l6.745 6.745c3.31.023 6.622-.142 9.927-.495a5.28 5.28 0 0 0 4.69-4.69z" fill="url(#d)"/><path d="M28.503 23.813a5.28 5.28 0 0 1-4.69 4.69 87.718 87.718 0 0 1-9.927.495l-6.735-6.736c.78.684 1.798 1.1 2.98 1.145 2.922.11 5.855.106 8.778.001 2.643-.096 4.556-2.052 4.639-4.696a134.4 134.4 0 0 0 0-8.427c-.038-1.22-.466-2.293-1.176-3.105l6.625 6.625a87.84 87.84 0 0 1-.494 10.008z" fill="url(#e)"/><path d="M17.922 11.36a4.645 4.645 0 1 0-6.562 6.562l10.747 10.747a89.06 89.06 0 0 0 1.706-.166 5.28 5.28 0 0 0 4.69-4.69c.061-.569.116-1.137.166-1.706L17.922 11.36z" fill="url(#f)"/><path d="M28.944 17.624l-8.65-8.65a1.105 1.105 0 1 0-1.547 1.547L28.79 20.564c.068-.98.12-1.96.155-2.94z" fill="url(#g)"/><path d="M5.386 10.983c.06-.427.107-.856.183-1.28.436-2.398 2.134-4.03 4.562-4.113 2.923-.101 5.855-.106 8.778 0 2.643.094 4.557 2.051 4.64 4.694.087 2.807.087 5.621 0 8.428-.083 2.644-1.996 4.6-4.64 4.696-2.922.105-5.855.108-8.778-.002-2.643-.1-4.47-2.06-4.647-4.708-.015-.229-.064-.456-.098-.684v-7.031zm9.117 10.858c1.337 0 2.676.04 4.012-.01 2.095-.077 3.383-1.327 3.432-3.42.06-2.607.06-5.218 0-7.826-.049-2.092-1.338-3.371-3.432-3.416a189.407 189.407 0 0 0-7.975 0c-2.078.044-3.37 1.297-3.426 3.367-.072 2.64-.072 5.285 0 7.926.056 2.068 1.348 3.293 3.426 3.37 1.32.049 2.642.01 3.963.01z" fill="url(#h)"/><path d="M5.386 10.983c.06-.427.107-.856.183-1.28.436-2.398 2.134-4.03 4.562-4.113 2.923-.101 5.855-.106 8.778 0 2.643.094 4.557 2.051 4.64 4.694.087 2.807.087 5.621 0 8.428-.083 2.644-1.996 4.6-4.64 4.696-2.922.105-5.855.108-8.778-.002-2.643-.1-4.47-2.06-4.647-4.708-.015-.229-.064-.456-.098-.684v-7.031zm9.117 10.858c1.337 0 2.676.04 4.012-.01 2.095-.077 3.383-1.327 3.432-3.42.06-2.607.06-5.218 0-7.826-.049-2.092-1.338-3.371-3.432-3.416a189.407 189.407 0 0 0-7.975 0c-2.078.044-3.37 1.297-3.426 3.367-.072 2.64-.072 5.285 0 7.926.056 2.068 1.348 3.293 3.426 3.37 1.32.049 2.642.01 3.963.01z" fill="#fff"/><path d="M14.5 9.855a4.645 4.645 0 1 0 0 9.29 4.645 4.645 0 0 0 0-9.29zm0 7.69a3.046 3.046 0 1 1 0-6.09 3.046 3.046 0 0 1 0 6.09zm6.022-7.902a1.105 1.105 0 1 1-2.21 0 1.105 1.105 0 0 1 2.21 0z" fill="#fff"/><defs><radialGradient id="a" cx="0" cy="0" r="1" gradientUnits="userSpaceOnUse" gradientTransform="translate(5.945 25.344) scale(31.9819)"><stop stop-color="#FAE100"/><stop offset=".054" stop-color="#FADC04"/><stop offset=".117" stop-color="#FBCE0E"/><stop offset=".183" stop-color="#FCB720"/><stop offset=".251" stop-color="#FE9838"/><stop offset=".305" stop-color="#FF7950"/><stop offset=".492" stop-color="#FF1C74"/><stop offset="1" stop-color="#6C1CD1"/></radialGradient><linearGradient id="b" x1="11.123" y1="12.6" x2="-38.007" y2="-15.035" gradientUnits="userSpaceOnUse"><stop stop-color="#A1B5D8" stop-opacity="0"/><stop offset=".309" stop-color="#90A2BD" stop-opacity=".31"/><stop offset=".755" stop-color="#7C8B9C" stop-opacity=".757"/><stop offset="1" stop-color="#748290"/></linearGradient><linearGradient id="c" x1="14.5" y1="25.6" x2="14.5" y2="30.12" gradientUnits="userSpaceOnUse"><stop stop-color="#FAE100" stop-opacity="0"/><stop offset=".307" stop-color="#FCA800" stop-opacity=".306"/><stop offset=".627" stop-color="#FE7300" stop-opacity=".627"/><stop offset=".869" stop-color="#FF5200" stop-opacity=".867"/><stop offset="1" stop-color="#FF4500"/></linearGradient><linearGradient id="d" x1="12.851" y1="12.809" x2="5.673" y2="5.632" gradientUnits="userSpaceOnUse"><stop stop-color="#833AB4" stop-opacity="0"/><stop offset="1" stop-color="#833AB4"/></linearGradient><linearGradient id="e" x1="19.875" y1="26.524" x2="16.293" y2="9.637" gradientUnits="userSpaceOnUse"><stop stop-color="#833AB4" stop-opacity="0"/><stop offset="1" stop-color="#833AB4"/></linearGradient><linearGradient id="f" x1="21.238" y1="21.238" x2="6.85" y2="6.85" gradientUnits="userSpaceOnUse"><stop stop-color="#833AB4" stop-opacity="0"/><stop offset="1" stop-color="#833AB4"/></linearGradient><linearGradient id="g" x1="22.305" y1="12.533" x2="17.548" y2="7.775" gradientUnits="userSpaceOnUse"><stop stop-color="#833AB4" stop-opacity="0"/><stop offset="1" stop-color="#833AB4"/></linearGradient><linearGradient id="h" x1="20.258" y1="8.782" x2="8.527" y2="20.513" gradientUnits="userSpaceOnUse"><stop stop-color="#833AB4"/><stop offset=".092" stop-color="#9C3495"/><stop offset=".293" stop-color="#DC2546"/><stop offset=".392" stop-color="#FD1D1D"/><stop offset=".559" stop-color="#FC6831"/><stop offset=".689" stop-color="#FC9B40"/><stop offset=".752" stop-color="#FCAF45"/><stop offset=".781" stop-color="#FDB750"/><stop offset=".866" stop-color="#FECB6A"/><stop offset=".942" stop-color="#FFD87A"/><stop offset="1" stop-color="#FFDC80"/></linearGradient></defs></svg>