<svg width="18" height="19" viewBox="0 0 18 19" fill="none" xmlns="http://www.w3.org/2000/svg">
<path d="M8.55 9.20864C3.83552 9.20864 0 12.3165 0 16.1368C0 17.9065 4.60578 18.5344 8.55 18.5344C12.4942 18.5344 17.1 17.9065 17.1 16.1368C17.1 12.3165 13.2645 9.20864 8.55 9.20864ZM8.55 17.8229C3.75751 17.8229 0.791077 16.9476 0.791077 16.1368C0.791077 12.7089 4.27173 9.92008 8.55 9.92008C12.8283 9.92008 16.3089 12.7089 16.3089 16.1368C16.3089 16.9476 13.3425 17.8229 8.55 17.8229ZM12.7657 4.53778C12.7657 3.78793 12.5185 3.05492 12.0552 2.43144C11.592 1.80796 10.9336 1.32201 10.1633 1.03506C9.39297 0.748103 8.54533 0.673022 7.72756 0.819311C6.90979 0.965599 6.15862 1.32669 5.56904 1.85691C4.97947 2.38714 4.57796 3.06268 4.41529 3.79813C4.25263 4.53357 4.33611 5.29588 4.65519 5.98865C4.97427 6.68142 5.51461 7.27355 6.20788 7.69014C6.90115 8.10674 7.71621 8.32909 8.55 8.32909C9.66769 8.32796 10.7392 7.92816 11.5296 7.21739C12.3199 6.50663 12.7645 5.54295 12.7657 4.53778ZM5.12537 4.53778C5.12537 3.92864 5.32622 3.33318 5.70252 2.82669C6.07882 2.32021 6.61368 1.92546 7.23945 1.69235C7.86522 1.45924 8.5538 1.39825 9.21811 1.51709C9.88243 1.63592 10.4926 1.92925 10.9716 2.35998C11.4505 2.79071 11.7767 3.33949 11.9088 3.93693C12.041 4.53436 11.9732 5.15362 11.714 5.7164C11.4547 6.27917 11.0158 6.76018 10.4526 7.0986C9.88945 7.43702 9.22733 7.61766 8.55 7.61766C7.64205 7.61673 6.77157 7.29195 6.12955 6.71456C5.48753 6.13717 5.12639 5.35433 5.12537 4.53778Z" fill="black"/>
</svg>
