<svg width="23" height="12" viewBox="0 0 23 12" fill="none" xmlns="http://www.w3.org/2000/svg">
<path d="M0.718731 1.49996H22.2812C22.678 1.49996 22.9999 1.16394 22.9999 0.749982C22.9999 0.335965 22.6779 0 22.2812 0H0.718731C0.321965 0 0 0.336027 0 0.749982C0 1.16394 0.322025 1.49996 0.718731 1.49996Z" fill="black"/>
<path d="M22.2812 5.25H0.718731C0.321965 5.25 0 5.58603 0 5.99998C0 6.41393 0.322025 6.74996 0.718731 6.74996H22.2812C22.678 6.74996 22.9999 6.41393 22.9999 5.99998C22.9999 5.58603 22.678 5.25 22.2812 5.25Z" fill="black"/>
<path d="M22.2812 10.5H7.90623C7.50946 10.5 7.1875 10.836 7.1875 11.25C7.1875 11.664 7.50952 12 7.90623 12H22.2812C22.678 12 22.9999 11.6639 22.9999 11.25C23 10.836 22.678 10.5 22.2812 10.5Z" fill="black"/>
</svg>
