<svg width="28" height="16" viewBox="0 0 28 16" fill="none" xmlns="http://www.w3.org/2000/svg">
<path d="M1.33763 2.42007H9.41159C9.70059 2.42007 9.93487 2.65435 9.93487 2.94335C9.93487 3.23234 9.70059 3.46662 9.41159 3.46662H1.33763C1.04863 3.46662 0.814355 3.23234 0.814355 2.94335C0.814355 2.65435 1.04863 2.42007 1.33763 2.42007Z" fill="black" stroke="white" stroke-width="0.2"/>
<path d="M1.33763 8.34036H6.74859C7.03758 8.34036 7.27186 8.57464 7.27186 8.86363C7.27186 9.15263 7.03758 9.38691 6.74859 9.38691H1.33763C1.04864 9.38691 0.814355 9.15263 0.814355 8.86363C0.814355 8.57464 1.04863 8.34036 1.33763 8.34036Z" fill="black" stroke="white" stroke-width="0.2"/>
<path d="M1.33763 14.0136H14.7376C15.0266 14.0136 15.2609 14.2479 15.2609 14.5369C15.2609 14.8259 15.0266 15.0601 14.7376 15.0601H1.33763C1.04864 15.0601 0.814355 14.8259 0.814355 14.5369C0.814355 14.2479 1.04863 14.0136 1.33763 14.0136Z" fill="black" stroke="white" stroke-width="0.2"/>
<path d="M27.6345 14.8055L23.3599 10.5625C24.4502 9.51882 25.1257 8.08004 25.1257 6.49327C25.1257 3.31368 22.4158 0.727173 19.0846 0.727173C15.7533 0.727173 13.0435 3.31368 13.0435 6.49327C13.0435 9.67286 15.7533 12.2594 19.0846 12.2594C20.5468 12.2594 21.8888 11.7605 22.9348 10.9326L27.2196 15.1861C27.276 15.2424 27.3514 15.2704 27.4271 15.2704C27.499 15.2704 27.5706 15.2448 27.6264 15.1938C27.7409 15.0886 27.7444 14.9148 27.6345 14.8055ZM19.0846 11.7102C16.0706 11.7102 13.6188 9.37 13.6188 6.49327C13.6188 3.61654 16.0706 1.27632 19.0846 1.27632C22.0985 1.27632 24.5503 3.61654 24.5503 6.49327C24.5503 9.37 22.0982 11.7102 19.0846 11.7102Z" fill="black" stroke="black" stroke-width="0.3"/>
</svg>
