<svg width="11" height="11" viewBox="0 0 11 11" fill="none" xmlns="http://www.w3.org/2000/svg">
<path d="M0.966797 1.31055H10.0332C10.5656 1.31055 11 1.74445 11 2.27734V8.72266C11 9.25375 10.5676 9.68945 10.0332 9.68945H0.966797C0.435703 9.68945 0 9.25702 0 8.72266V2.27734C0 1.74625 0.432438 1.31055 0.966797 1.31055ZM1.1003 1.95508L5.4795 6.3343L9.89658 1.95508H1.1003ZM10.3555 8.5892V2.40773L7.25143 5.48515L10.3555 8.5892ZM9.89972 9.04492L6.79372 5.93893L5.70539 7.01791C5.57941 7.14282 5.3761 7.14242 5.25063 7.01693L4.18945 5.95575L1.10028 9.04492H9.89972ZM0.644531 8.58917L3.7337 5.5L0.644531 2.4108V8.58917Z" fill="#848484"/>
</svg>
