<svg width="29" height="29" viewBox="0 0 29 29" fill="none" xmlns="http://www.w3.org/2000/svg">
<path d="M28.5035 5.18704C28.2396 2.71388 26.2863 0.760223 23.813 0.49649C17.6104 -0.165497 11.3896 -0.165497 5.18726 0.49649C2.71388 0.760445 0.760445 2.71388 0.49649 5.18704C-0.165497 11.3894 -0.165497 17.6104 0.49649 23.8127C0.760445 26.2861 2.71388 28.2396 5.18704 28.5035C11.3894 29.1655 17.6104 29.1655 23.813 28.5035C26.2863 28.2396 28.2396 26.2861 28.5035 23.8127C29.1655 17.6104 29.1655 11.3896 28.5035 5.18704Z" fill="url(#paint0_radial)"/>
<path d="M26.9263 6.236C26.6922 4.0414 24.9589 2.30789 22.7641 2.07358C17.2602 1.48638 11.74 1.48638 6.23613 2.07358C4.04152 2.30789 2.30801 4.0414 2.0737 6.236C1.4865 11.7399 1.4865 17.2601 2.0737 22.7638C2.30801 24.9586 4.04152 26.6921 6.23613 26.9262C11.74 27.5136 17.2602 27.5136 22.7639 26.9262C24.9587 26.6921 26.6922 24.9586 26.9263 22.7638C27.5138 17.2601 27.5138 11.7399 26.9263 6.236Z" fill="url(#paint1_linear)"/>
<path d="M0.43457 23.2116C0.454483 23.412 0.47506 23.6125 0.496521 23.813C0.760475 26.2861 2.71391 28.2396 5.18729 28.5035C11.3897 29.1655 17.6106 29.1655 23.813 28.5035C26.2864 28.2396 28.2396 26.2861 28.5035 23.813C28.525 23.6125 28.5456 23.412 28.5657 23.2116H0.43457Z" fill="url(#paint2_linear)"/>
<path d="M28.5038 23.8127C28.8596 20.48 29.0237 17.142 28.9972 13.8044L22.3685 7.17566C21.5403 6.23025 20.3307 5.64017 18.9094 5.58906C15.9864 5.48374 13.0542 5.48905 10.1308 5.5895C7.70274 5.67313 6.00485 7.30509 5.56943 9.70369C5.49265 10.1272 5.44663 10.5562 5.38623 10.9827V18.0146C5.41964 18.2425 5.46876 18.4693 5.48402 18.6985C5.58138 20.1574 6.18097 21.4071 7.14098 22.2525L13.8865 28.9978C17.1969 29.021 20.5075 28.8564 23.8132 28.5035C26.2866 28.2396 28.2398 26.2861 28.5038 23.8127Z" fill="url(#paint3_linear)"/>
<path d="M28.5033 23.813C28.2396 26.2859 26.2857 28.2398 23.8127 28.5035C20.5074 28.8562 17.1962 29.021 13.8862 28.9978L7.15088 22.2624C7.93168 22.9459 8.94944 23.362 10.1305 23.4065C13.0532 23.5163 15.9862 23.5134 18.9089 23.4081C21.5524 23.3125 23.4654 21.3559 23.5479 18.7124C23.636 15.9056 23.636 13.0915 23.5479 10.2847C23.5103 9.06515 23.0822 7.99208 22.3724 7.18008L28.9969 13.8046C29.023 17.1418 28.8588 20.4802 28.5033 23.813Z" fill="url(#paint4_linear)"/>
<path d="M17.9218 11.3598C17.0727 10.4352 15.8542 9.85503 14.5 9.85503C11.9348 9.85503 9.85498 11.9348 9.85498 14.5C9.85498 15.8543 10.4351 17.0727 11.3597 17.9219L22.1066 28.6688C22.6755 28.6192 23.2443 28.5641 23.8127 28.5035C26.2861 28.2396 28.2395 26.2861 28.5035 23.8127C28.5641 23.2443 28.6192 22.6755 28.6687 22.1067L17.9218 11.3598Z" fill="url(#paint5_linear)"/>
<path d="M28.9438 17.6239L20.2946 8.97488C20.0928 8.71004 19.7748 8.53813 19.4162 8.53813C18.806 8.53813 18.311 9.03285 18.311 9.64329C18.311 10.0019 18.4829 10.3199 18.7478 10.5217L28.7891 20.5632C28.8573 19.5837 28.9088 18.6038 28.9438 17.6239Z" fill="url(#paint6_linear)"/>
<path d="M5.38623 10.9827C5.44663 10.5562 5.49265 10.1272 5.56943 9.70369C6.00463 7.30509 7.70274 5.67313 10.1308 5.5895C13.0542 5.48905 15.9864 5.48374 18.9094 5.58906C21.552 5.68419 23.4659 7.64095 23.5484 10.2845C23.6362 13.0915 23.6362 15.9054 23.5484 18.7124C23.4659 21.3559 21.5527 23.3125 18.9096 23.4078C15.9867 23.5134 13.0537 23.516 10.131 23.4063C7.48791 23.3069 5.6608 21.3458 5.48402 18.6983C5.46876 18.4693 5.41964 18.2423 5.38623 18.0144C5.38623 15.6704 5.38623 13.3265 5.38623 10.9827ZM14.5027 21.8411C15.8404 21.8411 17.1794 21.8812 18.5154 21.8319C20.6099 21.7542 21.8983 20.5041 21.9472 18.4115C22.0078 15.8041 22.0078 13.1931 21.9472 10.5854C21.8983 8.49321 20.6091 7.21393 18.5154 7.16946C15.8579 7.11326 13.1975 7.11371 10.5401 7.16946C8.4623 7.21305 7.17019 8.46644 7.11377 10.5356C7.04208 13.176 7.04208 15.8211 7.11377 18.4615C7.17019 20.5304 8.4623 21.7549 10.5403 21.8319C11.8594 21.881 13.1818 21.8411 14.5027 21.8411Z" fill="url(#paint7_linear)"/>
<path d="M5.38623 10.9827C5.44663 10.5562 5.49265 10.1272 5.56943 9.70369C6.00463 7.30509 7.70274 5.67313 10.1308 5.5895C13.0542 5.48905 15.9864 5.48374 18.9094 5.58906C21.552 5.68419 23.4659 7.64095 23.5484 10.2845C23.6362 13.0915 23.6362 15.9054 23.5484 18.7124C23.4659 21.3559 21.5527 23.3125 18.9096 23.4078C15.9867 23.5134 13.0537 23.516 10.131 23.4063C7.48791 23.3069 5.6608 21.3458 5.48402 18.6983C5.46876 18.4693 5.41964 18.2423 5.38623 18.0144C5.38623 15.6704 5.38623 13.3265 5.38623 10.9827ZM14.5027 21.8411C15.8404 21.8411 17.1794 21.8812 18.5154 21.8319C20.6099 21.7542 21.8983 20.5041 21.9472 18.4115C22.0078 15.8041 22.0078 13.1931 21.9472 10.5854C21.8983 8.49321 20.6091 7.21393 18.5154 7.16946C15.8579 7.11326 13.1975 7.11371 10.5401 7.16946C8.4623 7.21305 7.17019 8.46644 7.11377 10.5356C7.04208 13.176 7.04208 15.8211 7.11377 18.4615C7.17019 20.5304 8.4623 21.7549 10.5403 21.8319C11.8594 21.881 13.1818 21.8411 14.5027 21.8411Z" fill="white"/>
<path d="M14.5004 9.85524C11.9352 9.85524 9.85547 11.9348 9.85547 14.5C9.85547 17.0654 11.9352 19.145 14.5004 19.145C17.0659 19.145 19.1454 17.0654 19.1454 14.5C19.1454 11.9348 17.0659 9.85524 14.5004 9.85524ZM14.5004 17.5458C12.8183 17.5458 11.4547 16.1822 11.4547 14.5C11.4547 12.8178 12.8183 11.4542 14.5004 11.4542C16.1826 11.4542 17.5462 12.8178 17.5462 14.5C17.5462 16.1822 16.1826 17.5458 14.5004 17.5458Z" fill="white"/>
<path d="M20.5216 9.64329C20.5216 10.2535 20.0269 10.7482 19.4167 10.7482C18.8065 10.7482 18.3115 10.2535 18.3115 9.64329C18.3115 9.03285 18.8065 8.53813 19.4167 8.53813C20.0269 8.53813 20.5216 9.03285 20.5216 9.64329Z" fill="white"/>
<defs>
<radialGradient id="paint0_radial" cx="0" cy="0" r="1" gradientUnits="userSpaceOnUse" gradientTransform="translate(5.94484 25.3437) scale(31.9819)">
<stop stop-color="#FAE100"/>
<stop offset="0.0544" stop-color="#FADC04"/>
<stop offset="0.1167" stop-color="#FBCE0E"/>
<stop offset="0.1829" stop-color="#FCB720"/>
<stop offset="0.2514" stop-color="#FE9838"/>
<stop offset="0.3054" stop-color="#FF7950"/>
<stop offset="0.4922" stop-color="#FF1C74"/>
<stop offset="1" stop-color="#6C1CD1"/>
</radialGradient>
<linearGradient id="paint1_linear" x1="11.1228" y1="12.6003" x2="-38.0066" y2="-15.035" gradientUnits="userSpaceOnUse">
<stop stop-color="#A1B5D8" stop-opacity="0"/>
<stop offset="0.3094" stop-color="#90A2BD" stop-opacity="0.309804"/>
<stop offset="0.7554" stop-color="#7C8B9C" stop-opacity="0.756863"/>
<stop offset="1" stop-color="#748290"/>
</linearGradient>
<linearGradient id="paint2_linear" x1="14.5" y1="25.5996" x2="14.5" y2="30.12" gradientUnits="userSpaceOnUse">
<stop stop-color="#FAE100" stop-opacity="0"/>
<stop offset="0.3068" stop-color="#FCA800" stop-opacity="0.305882"/>
<stop offset="0.6275" stop-color="#FE7300" stop-opacity="0.627451"/>
<stop offset="0.8685" stop-color="#FF5200" stop-opacity="0.866667"/>
<stop offset="1" stop-color="#FF4500"/>
</linearGradient>
<linearGradient id="paint3_linear" x1="12.8505" y1="12.8092" x2="5.67345" y2="5.63212" gradientUnits="userSpaceOnUse">
<stop stop-color="#833AB4" stop-opacity="0"/>
<stop offset="1" stop-color="#833AB4"/>
</linearGradient>
<linearGradient id="paint4_linear" x1="19.8749" y1="26.5241" x2="16.2928" y2="9.6367" gradientUnits="userSpaceOnUse">
<stop stop-color="#833AB4" stop-opacity="0"/>
<stop offset="1" stop-color="#833AB4"/>
</linearGradient>
<linearGradient id="paint5_linear" x1="21.2382" y1="21.2383" x2="6.85013" y2="6.85017" gradientUnits="userSpaceOnUse">
<stop stop-color="#833AB4" stop-opacity="0"/>
<stop offset="1" stop-color="#833AB4"/>
</linearGradient>
<linearGradient id="paint6_linear" x1="22.3054" y1="12.5325" x2="17.5476" y2="7.77462" gradientUnits="userSpaceOnUse">
<stop stop-color="#833AB4" stop-opacity="0"/>
<stop offset="1" stop-color="#833AB4"/>
</linearGradient>
<linearGradient id="paint7_linear" x1="20.2583" y1="8.7821" x2="8.52712" y2="20.5133" gradientUnits="userSpaceOnUse">
<stop stop-color="#833AB4"/>
<stop offset="0.0922" stop-color="#9C3495"/>
<stop offset="0.2927" stop-color="#DC2546"/>
<stop offset="0.392" stop-color="#FD1D1D"/>
<stop offset="0.5589" stop-color="#FC6831"/>
<stop offset="0.6887" stop-color="#FC9B40"/>
<stop offset="0.7521" stop-color="#FCAF45"/>
<stop offset="0.7806" stop-color="#FDB750"/>
<stop offset="0.8656" stop-color="#FECB6A"/>
<stop offset="0.9415" stop-color="#FFD87A"/>
<stop offset="1" stop-color="#FFDC80"/>
</linearGradient>
</defs>
</svg>
