<svg width="30" height="40" viewBox="0 0 30 40" fill="none" xmlns="http://www.w3.org/2000/svg">
<path d="M14.9992 0C7.01129 0 0.512695 6.49859 0.512695 14.4864C0.512695 24.3995 13.4767 38.9526 14.0286 39.5673C14.5471 40.1447 15.4522 40.1437 15.9697 39.5673C16.5217 38.9526 29.4857 24.3995 29.4857 14.4864C29.4855 6.49859 22.987 0 14.9992 0ZM14.9992 21.7749C10.9803 21.7749 7.71074 18.5053 7.71074 14.4864C7.71074 10.4675 10.9804 7.19797 14.9992 7.19797C19.018 7.19797 22.2875 10.4676 22.2875 14.4865C22.2875 18.5054 19.018 21.7749 14.9992 21.7749Z" fill="black"/>
<rect x="5.19629" y="7.05859" width="19.6078" height="16.4706" fill="black"/>
</svg>
